<svg width="256" height="256" viewBox="0 0 256 256" fill="none" xmlns="http://www.w3.org/2000/svg">
<path d="M96.9604 0.307175L92.1969 0.614314L90.8139 1.53573L89.5846 2.30358V3.53213V4.76069H88.8163L88.2017 4.76069L87.4333 6.14281L86.665 7.6785L86.9724 8.44635L87.2797 9.36776L88.048 9.6749C88.509 9.82847 90.3529 9.98204 92.1969 9.98204H95.5774L98.3433 9.52133L100.956 8.90706L102.646 9.6749L104.336 10.4427L104.797 9.52133L105.258 8.75349L108.946 8.59992C111.097 8.59992 115.4 8.44635 118.78 8.29278C122.007 8.13921 128 7.83207 132.149 7.6785L139.678 7.21779L141.061 6.29638L142.444 5.37496L147.361 5.06782L152.432 4.91425L153.969 5.83567L155.505 6.75709L160.115 6.91066L164.725 7.06422L165.954 6.29638L167.03 5.6821V4.91425V4.29998L165.493 2.91785L164.11 1.38216L161.037 0.767883L157.964 3.68953e-05L155.505 0.460745C154.122 0.767883 152.278 0.921453 151.664 0.921453C151.049 0.921453 147.669 0.921453 144.288 0.921453L137.988 0.767883L136.298 1.07502L134.454 1.38216V1.84287C134.454 2.15001 133.993 2.76428 133.378 3.53213L132.302 4.76069L131.381 4.76069H130.612V3.99284C130.612 3.6857 130.305 3.07142 129.998 2.61071L129.383 1.6893L126.156 1.53573C124.312 1.38216 122.315 1.22859 121.546 1.07502C120.932 0.921453 117.705 0.767883 114.324 0.614314C111.097 0.614314 106.948 0.460745 105.104 0.307175L101.724 3.68953e-05L96.9604 0.307175Z" fill="#CC0000"/>
<path d="M191.001 1.22856C190.694 1.38213 190.233 1.84284 189.926 2.30355L189.465 3.22496L188.696 8.44632L188.082 13.8212L188.389 14.4355L188.543 15.2034L188.082 15.8176C187.774 16.1248 187.313 17.5069 187.006 18.889C186.699 20.2712 186.238 21.6533 185.93 22.114L185.316 22.8818L181.167 23.0354L177.018 23.189L175.942 24.1104L174.867 25.1854L173.484 25.4925L172.101 25.7996L171.947 26.7211L171.64 27.6425H171.025C170.257 27.6425 168.874 29.3317 167.337 31.9424L166.108 34.246V35.9352V37.6245L166.415 37.9316L166.876 38.0852V40.8494L167.03 43.4601L166.415 44.228L165.954 44.8422V50.8314V56.9742L163.957 58.3563L161.806 59.5849H160.576H159.347L159.04 58.9706L158.732 58.2028L159.501 56.2064L160.115 54.21L159.654 52.5207C159.193 50.3707 159.193 49.6029 159.808 44.8422C160.115 42.5387 160.576 39.4673 160.73 37.7781L161.037 34.7067L160.576 33.9388L160.115 33.3245L158.271 33.0174L156.581 32.7103L156.274 33.9388C155.966 34.5531 155.813 35.1674 155.966 35.3209C155.966 35.4745 155.505 36.2424 155.044 37.0102L154.122 38.5459L153.661 41.1566L153.2 43.7673L153.047 52.2136L152.893 60.5063L153.508 61.2742L154.122 61.8884L153.047 64.192L151.971 66.3419L152.586 66.8026L153.047 67.4169L155.505 67.7241L157.964 67.8776L159.501 69.2598C160.269 70.0276 161.498 71.1026 161.959 71.5633C162.574 72.1776 163.342 72.4847 163.649 72.4847C164.11 72.4847 164.725 72.7918 165.032 73.099L165.493 73.7133V76.0168C165.493 77.3989 165.801 79.2418 165.954 80.1632C166.876 83.2346 167.645 87.5345 167.491 87.9952C167.491 88.3023 167.645 88.6095 167.798 88.7631C167.952 88.9166 168.874 89.9916 169.796 91.0666L171.333 93.2166L170.564 94.138L169.642 95.0594H168.874H168.106L167.798 95.6737L167.491 96.2879L168.106 96.5951L168.567 96.7487L167.491 98.2843L166.262 99.82L165.032 99.6665L163.957 99.5129L163.803 98.5915L163.649 97.5165L161.652 95.9808L159.808 94.2915V93.3701V92.4487L160.576 91.5273L161.498 90.6059L161.652 85.231L161.806 79.7025L161.037 78.781L160.115 77.8596H159.347C158.886 77.8596 158.425 77.5525 158.118 77.2454L157.657 76.7846L156.581 77.5525L155.505 78.3203L155.813 81.0846L156.12 83.8488L155.505 84.156L155.044 84.4631V87.2274V89.838L154.276 91.2202L153.354 92.7559L151.664 93.5237L149.82 94.4451L148.283 94.138L146.747 93.8308L145.671 92.9094L144.595 91.988L142.751 93.063C141.83 93.5237 140.6 93.9844 140.293 93.9844C139.986 93.9844 139.064 93.6773 138.449 93.063L137.066 92.2951H135.837H134.607L132.303 90.4523L129.844 88.7631H129.076H128.461L127.078 87.0738L125.849 85.3845L126.156 82.7739L126.463 80.1632L125.695 78.9346L124.927 77.8596H123.697H122.622L121.546 79.0882L120.624 80.3167V84.4631V88.7631L119.702 89.3773C119.241 89.6845 118.627 90.4523 118.319 91.0666L117.705 92.1416H115.707C112.48 92.1416 107.256 90.4523 106.334 89.2238L106.026 88.7631L106.487 84.9238C106.641 82.6203 106.948 79.3953 106.948 77.5525C107.102 75.7097 107.256 72.4847 107.409 70.3347C107.717 65.7277 108.178 54.3635 108.331 47.9136L108.485 43.153L107.87 42.078L107.102 40.8494L105.873 40.5423L104.797 40.0816L103.721 40.3887L102.8 40.6959L103.107 44.228L103.26 47.9136L102.185 49.91L101.109 51.7529L101.263 55.2849L101.417 58.817L100.648 58.9706L100.034 59.2778L99.419 58.817C99.1116 58.5099 98.497 58.2028 98.1897 58.2028H97.4214L96.3457 56.0528C95.7311 54.9778 95.2701 53.9028 95.2701 53.5957C95.2701 53.2885 94.5018 52.5207 93.7335 51.5993L92.0432 50.0636L91.7359 44.6887C91.5822 41.7709 91.4286 38.5459 91.1212 37.4709L90.8139 35.6281L91.2749 35.3209C91.5822 35.1674 92.3505 33.4781 92.8115 31.4817L93.8871 27.796L94.6554 27.0282C95.1164 26.5675 95.7311 26.2604 96.0384 26.2604C96.3457 26.2604 96.8067 25.9532 97.114 25.4925L97.4214 24.8782L99.419 25.4925C100.341 25.9532 102.953 26.4139 105.104 26.7211L108.792 27.1818L109.868 26.4139C110.329 26.1068 111.251 25.4925 111.712 25.0318L112.48 24.4175L112.634 23.189C112.634 22.5747 112.634 21.6533 112.634 20.8854L112.48 19.6569L111.097 18.889L109.714 18.1212H105.719H101.724L100.802 19.0426L99.8799 19.964H99.1116H98.1897L97.575 18.889C96.9604 17.5069 96.3457 17.1998 94.9628 17.0462H93.8871L92.8115 17.814L91.7359 18.4283H86.5114H81.2869L80.8259 19.0426L80.2113 19.5033H78.06H75.9088L75.4478 19.0426C74.6795 18.4283 69.455 16.5855 68.072 16.5855H66.9964L65.6134 18.1212L64.2305 19.5033V20.8854V22.2676L64.8451 22.7283C65.1525 23.0354 66.9964 23.6497 68.8403 24.264L72.3745 25.3389L74.3721 25.1854C75.4478 25.1854 77.4454 25.1854 78.6747 25.1854H80.9796V25.6461C80.9796 25.7996 81.2869 26.4139 81.9016 27.0282C82.3625 27.4889 83.1308 28.7175 83.5918 29.4853L84.3601 31.021L84.0528 32.096L83.8991 33.0174L84.3601 35.0138L84.9748 37.1638L84.2065 39.0066L83.4382 40.6959L83.1308 44.6887L82.9772 48.6815L81.7479 50.2172C81.1332 50.985 80.2113 52.6743 79.5966 53.7493L78.6747 55.5921L75.7551 55.7457H72.8355L72.6819 53.135C72.6819 51.5993 72.6819 49.4493 72.5282 48.3743C72.5282 47.2993 72.5282 45.7637 72.3745 44.9958V43.4601L71.6062 42.6923L70.8379 41.9244L69.3013 42.2316C68.533 42.3851 67.611 42.8458 67.1501 43.153L66.6891 43.6137L66.3817 47.7601C66.2281 49.91 66.0744 52.9814 65.9208 54.5171L65.6134 57.2814L66.0744 57.8956L66.5354 58.5099L66.8427 60.967L67.1501 63.2706L66.3817 65.1134L65.4598 66.9562L65.6134 69.4133C65.6134 70.6419 65.7671 74.3275 65.9208 77.2454C66.0744 80.3167 66.2281 83.5417 66.2281 84.6167L66.0744 86.3059L66.6891 86.9202C66.9964 87.2274 67.7647 88.3023 68.3793 89.0702L69.3013 90.4523L69.6086 92.2951L69.916 94.138L68.6867 95.213C67.9184 95.9808 67.1501 96.4415 66.8427 96.4415H66.0744V98.5915V100.741L66.8427 101.816L67.4574 102.891V104.581V106.27L66.6891 107.191L65.9208 108.266L63.6158 108.727L61.4646 109.341H59.006L56.7011 109.341L56.2401 110.57C55.6254 111.798 55.0108 111.952 54.2425 111.031C53.9352 110.723 52.8595 110.109 51.7839 109.495L49.7863 108.727L49.6326 107.499C49.479 106.731 49.018 105.502 48.7107 104.581C48.2497 103.813 47.9424 102.584 47.9424 101.97V100.895L48.557 100.281L49.3253 99.82L51.9376 100.127L54.5498 100.434L55.6254 98.7451C56.0864 97.8236 56.7011 96.4415 56.8547 95.5201L57.1621 93.9844L57.9304 93.6773L58.545 93.2166L58.2377 91.0666C57.9304 88.7631 57.9304 88.9166 58.2377 85.231L58.545 82.6203L59.006 82.3131L59.467 82.006V79.7025V77.3989L59.006 77.0918C58.6987 76.9382 58.545 76.3239 58.545 75.8632V75.0954L57.3157 74.7882L56.0864 74.4811L55.0108 75.249L53.7815 75.8632L53.1669 77.3989L52.5522 78.781L52.8595 82.9274L53.1669 87.0738L51.9376 87.9952C51.3229 88.6095 50.8619 89.3773 50.8619 89.6845V90.2987L49.3253 89.9916C45.9448 89.5309 43.6399 88.9166 43.0252 88.3023C42.5642 87.9952 42.1032 87.2274 41.7959 86.3059L41.1813 84.9238H39.7983H38.4154L37.9544 86.1524L37.4934 87.3809L37.8007 89.3773C37.9544 90.4523 38.4154 92.2951 39.03 93.2166L39.7983 95.0594L39.6447 95.5201L39.3373 95.9808L40.413 97.9772L41.6423 99.9736V103.352L41.7959 106.731L41.3349 107.191C41.1813 107.499 40.2593 108.113 39.3373 108.727L37.4934 109.802H36.5714H35.4958V109.034V108.113L34.5738 107.499L33.6519 106.884V105.963C33.6519 105.502 33.3445 104.427 32.8835 103.506L32.2689 101.816L32.5762 99.3593L32.7299 96.9022L31.9616 94.9058L31.0396 93.063H30.5786C30.2713 93.063 29.503 93.5237 28.8884 94.138L27.8127 95.3665V102.277L27.8127 109.341L26.8908 111.491L25.8151 113.641H24.8932H24.1248L22.8956 111.184C22.2809 109.802 21.6663 108.42 21.6663 108.113C21.6663 107.806 21.3589 107.191 20.898 106.884L20.2833 106.27V105.195C20.2833 104.734 20.5906 103.506 20.898 102.584L21.5126 100.895V94.2915L21.3589 87.5345L20.437 85.8452L19.515 84.3095L17.9784 84.156L16.5954 84.0024L15.2125 85.3845L13.9832 86.9202V89.838C13.8295 91.5273 13.8295 93.5237 13.8295 94.4451L13.6759 96.1344L14.1369 97.8236L14.5978 99.5129L15.6735 100.434L16.5954 101.202V102.738L16.7491 104.274L16.1345 105.041C15.8271 105.349 15.3661 106.424 15.0588 107.345C13.5222 112.413 13.0612 114.409 12.9076 115.484L12.7539 116.713H11.3709H9.98799L9.68067 115.484C9.52701 114.87 9.37335 113.641 9.21969 112.873V111.338L7.9904 110.109L6.60744 108.881L6.60744 103.966C6.60744 101.202 6.30012 98.2843 6.14646 97.5165L5.83913 95.9808H6.30012H6.91477L6.91477 91.2202L6.91477 86.6131L7.68307 83.3881L8.45138 80.1632L7.9904 77.5525L7.37575 74.9418L7.83673 70.3347C8.14406 67.7241 8.45138 64.6527 8.29772 63.4241V61.2742L9.06603 58.817L9.83433 56.3599L9.06603 54.3635C8.7587 53.135 8.29772 51.4457 7.9904 50.3707C7.83673 49.2957 7.37575 47.9136 7.06843 47.2993L6.30012 46.2244L6.7611 45.4565L7.22209 44.5351L7.37575 39.928L7.52941 35.3209L7.22209 35.0138C6.91477 34.7067 4.7635 34.5531 2.45858 34.7067L1.22929 34.8602L0.614646 36.3959L0.153661 37.9316L0.153661 43.7673L0.153661 49.7565L0.768307 51.2921L1.53661 52.6743L2.76591 53.7493L3.9952 54.8242L3.9952 56.3599V57.7421H3.53421C3.38055 57.7421 2.91957 58.0492 2.76591 58.5099L2.45858 59.2778L3.07323 60.8134L3.53421 62.5027L2.76591 63.8848C2.45858 64.6527 1.84394 65.4205 1.53661 65.4205L1.07563 65.5741L0.921969 71.8704C0.153661 92.6023 0 105.502 0 117.634L0.153661 126.541L1.84394 128.384L3.68787 130.38H4.30252H4.91717V130.841L4.91717 131.302H6.14646H7.22209L7.83673 130.38C7.9904 129.92 8.29772 128.845 8.29772 128.23C8.29772 127.616 8.7587 125.927 9.21969 124.391L10.2953 121.78L10.91 121.627C11.2173 121.473 11.8319 121.32 12.2929 121.473L13.2149 121.627L14.4442 124.391L15.6735 127.309L15.9808 136.062L16.2881 144.816L15.8271 146.352C15.6735 147.119 15.5198 148.348 15.5198 149.116V150.498L14.2905 153.109L13.0612 155.719H12.2929C11.9856 155.719 11.0636 155.412 10.449 155.259L9.21969 154.798V153.569V152.341L8.29772 151.419L7.37575 150.344H6.60744H5.83913L3.9952 152.187L2.15126 154.03L1.22929 156.026L0.307323 158.023L0.768307 158.791L1.22929 159.558L0.921969 168.005C0.768307 172.612 0.460984 177.68 0.460984 179.369C0.307323 184.59 1.07563 218.99 1.38295 220.679C1.53661 221.6 1.69028 225.593 1.84394 229.74C1.9976 233.732 2.15126 239.107 2.45858 241.718L2.76591 246.172L3.68787 247.707C3.9952 248.475 5.07083 249.704 5.83913 250.472L7.37575 252.007L14.4442 252.161L21.3589 252.468L21.9736 252.775L22.5882 253.236L30.886 253.389L39.03 253.696L40.7203 254.311L42.4106 255.079L46.4058 255.386L50.401 255.693V255.232V254.618L52.0912 254.464L53.7815 254.157L56.0864 255.079L58.3913 255.846L66.6891 255.386L74.8331 255.079L76.5234 255.539L78.2137 256L80.8259 255.539C82.3625 255.232 85.8967 254.771 88.6627 254.464L93.5798 254.004L95.5774 253.082L97.575 252.161L98.036 250.932C98.3433 250.318 98.6506 249.397 98.6506 249.089V248.475L96.9604 248.168L95.2701 247.861L90.6603 248.322L86.0504 248.936L83.1308 248.322C81.5942 248.168 77.4454 247.554 74.2185 247.093L68.072 246.479L66.8427 246.786L65.6134 247.093L63.4622 244.943C62.2329 243.868 61.3109 242.639 61.3109 242.486C61.3109 242.179 60.8499 241.718 60.3889 241.257L59.467 240.49L58.8523 237.879C58.6987 236.343 58.2377 234.193 58.084 233.118L57.9304 230.968L57.1621 230.047L56.5474 228.972V222.368V215.611L57.0084 213.308L57.4694 210.851L55.7791 209.469L54.2425 207.933L54.0888 206.551L53.9352 205.169L52.8595 205.015L51.6302 204.861L51.1693 205.322L50.5546 205.936L50.2473 209.008C50.0936 210.851 49.6326 214.536 49.3253 217.147L48.8643 222.061L49.6326 223.75C50.0936 224.672 50.7083 225.44 50.8619 225.44C51.1693 225.44 51.3229 225.593 51.3229 225.9V226.361H50.7083C50.401 226.361 49.94 226.361 49.6326 226.361H49.1717V229.893V233.272L49.6326 233.886L49.94 234.654L50.0936 237.418L50.2473 240.182H48.4034H46.7131L45.9448 240.797L45.1765 241.411L45.0228 243.868L44.8691 246.172L43.1789 246.479C42.2569 246.632 41.0276 246.939 40.2593 247.247L39.1837 247.707L37.6471 247.4L36.1104 246.939L28.2737 246.786L20.2833 246.632L18.2857 245.25C15.6735 243.407 15.3661 243.254 13.9832 242.947L12.7539 242.639L11.0636 239.875L9.21969 237.111L8.91236 234.961C8.7587 233.732 8.60504 232.657 8.60504 232.504C8.7587 232.197 8.7587 230.507 8.7587 228.511L8.91236 224.825L8.29772 224.365L7.83673 223.75L7.83673 221.14V218.376L8.45138 217.454L9.21969 216.533L9.21969 215.151V213.768L8.29772 212.847L7.52941 211.772L7.83673 207.779L8.14406 203.633L7.52941 201.483L6.91477 199.333L7.06843 196.722L7.37575 194.112L6.91477 189.351C6.60744 186.74 6.14646 183.208 5.83913 181.672L5.22449 178.601L7.06843 176.451L8.7587 174.148V173.226C8.7587 172.765 9.06603 171.69 9.52701 170.923L10.1417 169.54L11.6783 168.773C12.6002 168.466 13.5222 168.158 13.8295 168.158H14.5978L15.6735 166.93L16.7491 165.855L17.2101 167.544L17.6711 169.233L18.593 169.54C19.2077 169.694 20.1296 170.155 20.7443 170.769L21.9736 171.69L21.8199 176.451L21.6663 181.212L20.898 181.98L20.2833 182.747V184.744C20.2833 185.819 19.976 188.276 19.515 190.272C19.2077 192.115 18.7467 194.419 18.593 195.494C18.4394 196.569 17.9784 198.104 17.5174 198.872L16.7491 200.561L17.2101 201.79L17.8247 203.019H19.054H20.1296L20.2833 203.633L20.5906 204.094L21.8199 203.479L22.8956 202.865L23.6639 201.636L24.4322 200.408V196.262L24.5858 192.269L25.2005 189.351L25.8151 186.433L27.5054 183.055L29.3493 179.522V177.373L29.3493 175.069L29.8103 173.38C30.425 171.69 30.7323 169.08 30.886 162.937L31.0396 159.558L31.6543 158.791L32.2689 158.023L32.7299 154.184L33.0372 150.344L34.2665 148.962L35.6495 147.58L35.1885 145.277L34.5738 142.973L35.1885 142.359C35.4958 142.052 35.9568 141.744 36.2641 141.744H37.0324L37.1861 141.13L37.4934 140.516H40.2593L43.1789 140.669V140.977C43.1789 141.284 42.4106 142.205 41.6423 143.28L40.1056 145.277L39.6447 148.194C39.3373 151.266 39.03 154.184 38.7227 161.708L38.4154 166.162L37.9544 166.776L37.4934 167.391L37.3397 170.462C37.1861 172.151 36.7251 175.683 36.5714 178.14L35.9568 182.594L36.8787 183.822C37.3397 184.437 38.108 185.205 38.569 185.512L39.3373 185.972L40.413 184.897L41.6423 183.822L42.5642 178.755L43.6399 173.533V171.23V168.926L44.2545 167.698C44.7155 166.93 45.1765 165.394 45.3301 164.319C45.4838 163.091 45.7911 161.862 46.0984 161.555L46.7131 160.941L46.0984 160.173L45.4838 159.558L45.7911 157.869C45.9448 157.101 46.2521 154.644 46.4058 152.648L46.5594 148.809L47.7887 146.198L48.8643 143.587L49.3253 143.894L49.94 144.202V145.123V146.044L50.401 146.352L50.8619 146.659V147.58V148.502H51.3229C51.4766 148.502 51.9376 148.962 52.0912 149.576L52.3986 150.498L51.7839 152.494L51.1693 154.337L52.0912 155.105L53.1669 155.873L52.8595 160.326L52.5522 164.78H52.2449H51.7839V166.316V167.851L52.2449 168.312L52.7059 168.773L52.8595 173.994C53.0132 176.912 53.1669 179.983 53.4742 180.905L53.7815 182.44L52.7059 184.13C52.0912 185.051 51.3229 185.819 51.1693 185.819C51.0156 185.819 50.8619 186.126 50.8619 186.587C50.8619 187.047 50.5546 187.662 50.401 187.969L49.94 188.43L50.401 191.347C50.5546 192.883 50.8619 195.494 50.7083 197.029V199.794L51.3229 201.176C51.6302 201.79 52.2449 202.558 52.5522 202.711L53.1669 202.865L54.0888 202.251C55.9328 200.869 56.8547 198.412 57.7767 192.115L58.084 190.119L58.8523 189.505L59.467 189.044V186.126L59.467 183.208L59.7743 182.594C59.928 182.287 60.6963 181.826 61.3109 181.672L62.5402 181.365L64.2305 182.594L65.9208 183.669L66.0744 189.965L66.2281 196.262H66.6891H67.1501V198.104V199.794L67.9184 200.715L68.8403 201.79L69.916 204.708C70.3769 206.244 71.1452 208.394 71.4526 209.469L71.9136 211.465L73.4502 213.615L74.9868 215.611L75.1404 217.454V219.143L77.138 221.6L79.1356 224.058H80.2113H81.2869L81.7479 223.443L82.2089 222.829L82.5162 220.218C82.6699 218.683 82.9772 216.993 83.1308 216.226L83.4382 214.997L82.2089 212.386C81.4406 211.004 80.9796 209.622 80.9796 209.469C80.9796 209.315 80.0576 207.933 78.982 206.244C77.9064 204.554 77.138 203.172 77.138 202.865C77.138 202.711 76.6771 201.944 76.2161 201.176L75.2941 199.794L74.9868 197.49C74.6795 194.879 73.6038 192.269 72.0672 190.426L70.8379 189.044V187.815V186.433L70.2233 185.512L69.455 184.59V183.515C69.455 182.44 67.611 177.987 66.9964 177.68C66.8427 177.526 66.5354 176.298 66.5354 175.069C66.0744 171.998 65.1525 168.619 64.0768 167.083L63.3085 166.008V165.087V164.166L64.0768 163.244L64.8451 162.323L65.3061 159.866C65.4598 158.484 65.7671 156.18 65.9208 154.951L66.2281 152.494L65.4598 151.88L64.6915 151.266V148.962V146.812L65.9208 144.969C66.5354 144.048 67.1501 142.666 67.3037 141.898L67.611 140.516L67.1501 138.827L66.6891 137.137L67.3037 136.83L68.072 136.523L67.4574 135.602L66.8427 134.68L68.072 133.605C68.6867 133.145 69.455 132.684 69.7623 132.684C70.0696 132.684 70.5306 132.377 70.8379 132.07C71.2989 131.609 71.7599 131.302 72.0672 131.302H72.6819L73.2965 132.837C73.6038 133.759 74.3721 134.68 74.8331 135.141C75.2941 135.602 75.9088 136.677 76.2161 137.445L76.6771 138.98H77.4454C77.7527 138.98 78.982 139.441 80.0576 140.055L82.2089 140.977H85.1284L88.2017 140.823L88.8163 140.516C89.1236 140.209 90.0456 139.902 90.8139 139.748L92.3505 139.441L92.8115 140.055L93.2725 140.516L94.0408 140.209L94.8091 139.902L94.5018 138.827L94.1945 137.598L95.4238 136.677C96.1921 136.062 96.653 135.448 96.653 135.141C96.653 134.834 96.9604 134.68 97.114 134.68C97.575 134.68 98.8043 131.916 98.958 130.227L99.1116 128.691L100.495 127.463L101.724 126.388V123.93V121.473L103.107 120.091C103.875 119.477 104.643 118.863 104.797 118.863C105.104 118.863 105.719 118.095 106.18 117.173L107.256 115.484L109.407 115.638L111.712 115.791L111.866 115.177L112.173 114.563H113.556C114.324 114.563 115.4 114.409 115.861 114.102L116.783 113.641L116.475 112.566L116.322 111.645H117.09C117.397 111.645 118.78 111.952 120.01 112.259L122.161 112.873L121.854 114.102C121.7 114.716 121.085 116.252 120.624 117.327L119.549 119.323H119.088H118.78V120.091V120.705L117.09 122.241L115.4 123.623H112.941H110.636L109.561 124.698L108.639 125.62L108.792 127.155C108.946 127.923 109.1 128.998 109.1 129.766V130.841H109.714H110.175L110.636 129.766L110.944 128.537L111.712 128.23L112.48 127.923L114.478 128.691C115.707 128.998 117.09 129.305 117.705 129.459H118.78V131.455V133.605L118.166 134.066L117.551 134.527H112.019L106.641 134.373L106.026 134.987L105.258 135.602V137.445V139.287L106.026 140.209L106.641 140.977L109.407 141.13C110.944 141.13 112.941 141.284 113.863 141.284H115.4L117.09 142.973C118.012 143.894 118.934 144.662 119.241 144.662H119.702V145.737V146.812L117.244 147.887L114.939 148.962V149.423V149.884H110.175H105.412L105.104 150.498L104.797 150.959L104.49 150.498L104.182 150.037L101.263 149.884L98.3433 149.576L96.3457 150.344L94.3481 151.112L93.5798 152.187L92.9652 153.109L93.8871 155.105L94.9628 157.101L96.4994 157.869L98.036 158.484L98.958 158.176L100.034 158.023L101.263 158.791L102.492 159.558L102.953 161.401C103.26 162.323 103.414 163.244 103.414 163.398C103.414 163.551 102.646 164.166 101.724 164.473C100.802 164.933 100.034 165.548 100.034 165.701C100.034 166.162 98.958 167.391 95.4238 171.23C94.6554 172.151 93.7335 172.919 93.4262 172.919H92.9652L92.6579 174.148L92.1969 175.376L93.2725 177.219L94.1945 178.908L95.5774 179.062L96.9604 179.215L97.7287 177.987C98.3433 177.373 99.2653 176.144 100.034 175.069L101.417 173.226L101.263 172.919C101.109 172.612 101.263 171.844 101.57 171.076L102.031 169.54L102.953 169.233L103.721 169.08L105.565 166.469C106.487 165.087 108.024 162.783 108.946 161.401C110.022 160.019 110.944 158.637 111.097 158.484C111.712 158.176 117.705 158.33 118.166 158.791C118.319 158.944 118.473 160.326 118.627 162.016L118.78 165.087L116.936 165.701C116.014 166.008 114.939 166.469 114.631 166.776C114.478 166.93 113.709 167.083 113.248 167.083H112.327L111.097 168.926C110.483 169.848 108.639 171.998 107.102 173.38L104.336 176.144V178.294V180.444H103.875H103.568L103.26 184.13L103.107 187.815L101.57 189.044L100.034 190.272V191.654C100.034 192.269 99.8799 193.497 99.5726 194.265C99.2653 195.033 98.958 196.722 98.8043 198.258C98.6506 199.64 98.3433 201.944 97.8823 203.172L97.2677 205.629L96.9604 209.776L96.653 213.768L97.114 214.229L97.7287 214.536V215.611V216.686L96.9604 217.608L96.3457 218.529L96.1921 224.365L96.1921 230.354L97.114 232.197L97.8823 234.04H100.034H102.339L103.107 233.118L103.875 232.35V231.275V230.2L103.414 229.893L102.953 229.74L102.953 225.133V220.679L103.414 220.372L104.029 220.065L103.721 216.226L103.568 212.54L102.8 211.618L101.878 210.697L102.185 209.776L102.492 208.854L103.568 208.394L104.797 207.779L104.951 208.24C104.951 208.547 105.104 207.011 104.951 205.015V201.329L105.719 198.719C106.026 197.183 106.487 195.647 106.487 195.033C106.795 193.804 107.717 189.197 108.331 186.74L108.946 184.59L110.022 183.976C110.636 183.669 111.405 183.208 111.558 182.901L112.019 182.133L111.712 179.983L111.405 177.68L111.712 176.451L112.019 175.223H114.939H117.858L118.78 175.683L119.702 176.298V178.14V179.983L120.317 181.212L121.085 182.594L120.163 184.437L119.088 186.28L118.627 185.972L118.166 185.665L116.014 188.122L113.863 190.426L112.941 190.733L112.019 191.04V195.494L112.173 199.794L111.097 201.79L110.175 203.633L110.944 205.015L111.558 206.397L110.79 208.24L110.175 210.083V211.465V212.847L110.79 213.154L111.558 213.461V214.69V215.765L112.019 216.072L112.48 216.379L111.866 217.761C111.405 218.376 111.097 220.065 110.79 221.293L110.483 223.597L111.712 225.133C113.095 226.975 114.478 230.354 114.478 231.89V232.965L114.939 233.425C115.4 233.732 116.475 234.04 117.397 234.347C118.319 234.5 119.241 234.807 119.241 234.961C119.241 235.115 119.856 235.729 120.778 236.19L122.468 237.111L125.08 236.497L127.539 235.882L129.383 236.036L131.381 236.19L132.149 234.347L133.071 232.657H133.839H134.454V232.197V231.736L135.529 231.582L136.605 231.429L137.988 229.279L139.525 227.129L139.832 218.222L140.293 209.469L139.678 207.933L139.217 206.244L139.525 204.861L139.832 203.633H140.6H141.369L141.522 203.172L141.676 202.558L140.754 202.404L139.986 202.097L139.371 200.254L138.756 198.258L138.603 194.419L138.295 190.426L137.834 189.812C137.527 189.505 136.912 189.044 136.451 189.044L135.529 188.737L133.685 189.658L131.842 190.579L129.537 190.272L127.385 189.965V192.729V195.34L128 196.108C128.307 196.415 129.229 196.876 129.844 197.029L131.073 197.337L132.149 199.026L133.071 200.715L133.224 203.019V205.322L132.303 206.397L131.227 207.472L130.92 208.854L130.612 210.236L129.076 209.929C128.307 209.776 125.541 209.469 123.083 209.315L118.473 209.161L117.244 208.086L115.861 207.165L115.553 205.629L115.246 203.94L115.553 201.636C115.861 198.872 116.322 195.954 116.629 194.419L116.936 193.19L118.934 191.194L121.085 189.197L121.239 187.815C121.393 187.047 121.546 186.433 121.546 186.126C121.546 185.972 122.007 185.665 122.622 185.358L123.697 184.897L125.234 182.901C126.002 181.672 126.771 180.597 126.924 180.444C127.078 180.444 127.539 179.369 128.154 178.294L128.922 176.451L131.842 176.144L134.607 175.837L135.837 177.219L136.912 178.601H137.527H138.295L140.447 180.597C141.676 181.672 143.52 183.362 144.288 184.283L145.825 185.972L147.361 185.665L149.052 185.205L149.82 184.437L150.742 183.669V182.594C150.742 181.212 149.052 175.837 147.822 173.073L146.9 171.23L147.208 169.694L147.515 168.312L145.517 166.469C144.442 165.394 143.52 164.319 143.52 164.012C143.52 163.705 143.981 163.091 144.595 162.63L145.517 161.708V160.48C145.517 159.712 145.671 158.791 145.825 158.33L146.132 157.562H147.515H148.898L149.513 156.794L150.127 156.026L149.666 154.798C149.359 154.184 148.898 153.723 148.744 153.723C148.437 153.723 147.976 153.416 147.515 153.109L146.9 152.341H145.364C144.595 152.341 143.52 152.034 143.059 151.88L142.137 151.419L140.447 152.034L138.603 152.801L136.759 152.648L134.915 152.494V152.034C134.915 151.112 134.3 150.805 131.688 150.498L129.537 150.191L129.383 147.58L129.229 145.123L130.612 144.662L132.149 144.048L132.61 143.127L133.071 142.359H139.217L145.364 142.359L145.671 141.744L145.978 141.284L145.825 140.055L145.517 138.98L144.134 138.673C143.366 138.519 142.598 138.059 142.444 137.752C141.83 136.83 137.988 135.602 136.144 135.602H134.761L133.071 134.68C132.149 134.066 130.766 133.452 129.998 133.145L128.768 132.684L128.922 131.916C129.076 130.995 129.844 130.534 133.071 129.92L135.837 129.305L136.912 129.92L137.988 130.38L139.986 130.073L142.137 129.766L142.444 129.305L142.598 128.845H143.673H144.903L146.132 130.227L147.361 131.609L147.208 133.298L146.9 134.834L147.361 135.448C147.515 135.755 147.976 136.062 148.437 136.216L149.359 136.523V138.212V139.902L149.82 141.13C150.127 141.744 150.588 142.359 150.742 142.359C151.049 142.359 151.51 143.434 151.971 144.816C152.432 146.198 153.2 148.041 153.661 149.116L154.737 150.959L154.43 152.034L154.122 153.262L154.583 155.259L155.044 157.101L155.659 157.409L156.427 157.562L156.581 159.866C156.888 161.094 157.196 162.323 157.349 162.476C157.81 163.091 158.271 166.008 158.579 169.233C158.732 170.308 158.886 172.305 159.193 173.533L159.501 175.837L160.576 176.451L161.652 177.219L164.11 176.912L166.723 176.758L167.184 176.144C167.491 175.837 168.567 173.38 169.335 170.769L170.872 166.008V163.551V160.941L171.793 159.558L172.869 158.023L173.33 155.259L173.791 152.494L174.098 146.044C174.098 142.512 174.406 137.291 174.406 134.373C174.713 127.309 174.867 123.777 174.713 121.473L174.559 119.63L173.945 118.555L173.176 117.481V115.331V113.027L174.098 113.334C174.559 113.488 176.096 113.641 177.633 113.641L180.399 113.795L180.706 113.488L181.013 113.181V107.499V101.97L181.474 101.356L181.935 100.741L182.089 98.4379C182.242 97.2094 182.396 94.7523 182.55 92.9094L182.857 89.6845L182.242 89.0702L181.781 88.4559L181.628 86.1524C181.628 85.0774 181.321 83.8488 181.167 83.6953L180.86 83.3881L180.86 79.3953V75.4025L181.321 75.249L181.781 74.9418L182.703 75.8632C183.164 76.4775 183.933 77.3989 184.547 77.8596C185.008 78.4739 185.777 79.5489 186.238 80.1632L187.006 81.3917L187.006 91.2202V101.202L187.774 104.427L188.696 107.652L190.54 109.034C191.462 109.648 192.538 110.263 192.691 110.263C192.999 110.263 193.46 110.57 193.767 111.031L194.382 111.645H196.379H198.531L198.838 110.877L198.992 109.956L198.531 108.573C198.223 107.806 197.609 106.731 196.994 106.116C196.533 105.656 196.226 104.888 196.226 104.734C196.226 104.427 196.226 103.506 196.226 102.584V100.741L194.689 100.281L193.152 99.82L193.46 98.4379L193.767 97.2094L194.843 96.2879L195.918 95.5201L196.687 96.9022L197.455 98.1308L200.836 98.4379L204.062 98.7451L205.138 97.6701L206.214 96.4415L206.675 96.7487L207.136 96.9022L208.211 96.2879L209.287 95.5201H210.363H211.438V94.9058C211.592 94.5987 211.745 92.2951 212.053 89.6845C212.206 87.2274 212.514 82.9274 212.667 80.3167L212.975 75.4025L212.36 74.6347L211.745 74.0204H208.98H206.214L204.677 73.2526L203.294 72.4847L199.145 72.6383L194.996 72.7918V70.0276L194.843 67.4169L196.994 66.4955L199.145 65.7277L200.375 66.4955L201.604 67.1098L206.521 67.4169L211.284 67.7241L212.36 67.1098L213.589 66.4955L213.436 62.042L213.282 57.4349L212.36 55.4385C211.899 54.21 211.438 52.8278 211.438 52.3671C211.438 51.9064 210.977 50.5243 210.363 49.4493C209.902 48.3743 209.287 47.1458 209.133 46.6851L208.672 46.0708L207.136 45.9172L205.599 45.7637L204.677 46.5315L203.909 47.2993L200.221 47.1458L196.533 46.9922L195.457 45.6101L194.382 44.3815H191.923C190.694 44.3815 189.157 44.5351 188.85 44.6887L188.082 44.9958V47.9136V50.985L187.006 51.5993L186.084 52.3671L185.777 56.8206C185.623 59.2778 185.623 62.3491 185.623 63.5777V65.8812L183.933 66.4955L182.089 67.2634L181.474 66.4955C181.167 66.0348 180.86 65.1134 180.86 64.6527V63.5777L181.628 62.9634L182.396 62.3491L182.089 58.817L181.781 55.2849L182.55 54.3635L183.472 53.4421L183.625 50.8314L183.779 48.2208L183.318 46.8386L182.857 45.4565L184.547 41.7709L186.238 38.0852L185.777 36.8566L185.162 35.7817H183.472H181.781L181.013 36.3959C180.552 36.7031 179.63 37.6245 178.862 38.3923L177.479 39.7745V41.3101V42.8458L178.247 43.4601C179.169 44.228 179.169 44.9958 177.94 46.0708L177.018 46.8386V47.9136C177.172 48.3743 176.864 50.5243 176.557 52.5207C176.25 54.5171 175.942 57.1278 175.789 58.5099L175.481 60.967L174.406 62.3491L173.176 63.5777L172.254 62.6563L171.333 61.8884V60.1992V58.6635L169.796 58.3563C169.028 58.2028 168.413 57.8956 168.413 57.7421C168.413 57.5885 169.028 56.6671 169.642 55.7457L170.872 54.21L170.564 52.5207L170.411 50.8314L171.64 49.91L172.715 48.9886L172.408 47.2993C172.254 46.3779 171.793 44.9958 171.486 44.5351C171.179 43.9208 170.872 43.153 170.872 42.6923C170.872 41.1566 174.713 35.3209 175.789 35.3209C176.096 35.3209 177.479 34.3995 178.862 33.3245L181.321 31.4817H183.164C184.086 31.4817 186.545 31.3281 188.696 31.1746L192.384 30.7139L192.845 30.0996L193.152 29.4853L193.46 23.189L193.613 16.8926L194.535 14.8962L195.304 12.7463L197.455 11.057L199.76 9.36773L200.221 10.2892L200.682 11.057L200.528 13.207V15.2034L199.453 17.0462L198.531 18.7355V20.2712V21.9604L197.609 22.4211L196.687 23.0354V23.6497C196.687 24.1104 196.994 24.8782 197.455 25.4925L198.07 26.5675L198.531 30.4067C198.838 32.4031 199.145 34.8602 199.453 35.7817L200.067 37.4709L201.911 39.4673L203.755 41.6173L204.984 40.8494L206.06 40.0816L206.214 37.9316L206.521 35.7817L206.06 35.3209C205.753 34.8602 205.138 30.4067 205.138 26.4139V23.0354L205.906 20.4247C206.367 19.0426 206.982 16.8926 207.136 15.8176L207.443 13.8212L208.211 12.5927C209.748 10.2892 210.516 11.2106 210.516 15.2034V18.1212L209.287 19.3497L208.058 20.7319L208.211 25.0318L208.519 29.3317L209.287 31.7888L210.055 34.246H211.899H213.589L214.972 33.171L216.355 31.9424L216.048 30.2532C215.894 29.1782 215.587 27.4889 215.28 26.2604L214.972 24.264L214.204 23.3425L213.436 22.5747V21.4997V20.4247H213.743C213.897 20.4247 214.511 19.3497 214.972 17.814L215.894 15.2034L217.892 13.207L219.89 11.2106L221.426 10.5963C222.348 10.2892 224.346 9.82844 225.729 9.67487C227.265 9.5213 228.956 9.21417 229.417 8.90703L230.492 8.44632L231.721 9.82844L232.951 11.057H236.331H239.866L241.556 10.2892L243.246 9.5213L245.244 10.2892L247.241 11.2106V11.8248C247.241 12.2856 247.702 13.3605 248.317 14.4355L249.239 16.1248V21.8068L249.393 27.3353L248.778 28.7175L248.317 29.946L248.471 37.6245L248.778 45.4565L249.239 46.3779L249.7 47.1458H250.314C250.622 47.1458 251.851 46.2244 253.234 44.9958L255.539 42.8458L255.232 31.9424C255.078 26.1068 254.924 20.2712 254.771 19.1962C254.617 18.2748 254.463 15.0498 254.31 12.2856L254.156 7.0642L253.234 5.83564L252.312 4.60709L249.7 3.68567C248.317 3.22496 246.627 2.76426 246.012 2.76426H244.783L243.553 3.68567L242.324 4.76066H240.48C239.405 4.76066 237.1 4.76066 235.409 4.91423L232.182 5.22136L230.339 4.76066L228.495 4.45352L227.88 3.22496L227.265 1.84284L225.882 1.68927L224.653 1.38213L221.272 1.68927C219.429 1.84284 216.97 1.99641 215.741 1.99641C213.282 2.14998 211.899 2.61069 211.899 3.37853C211.899 3.68567 211.592 4.14638 211.131 4.45352L210.209 5.06779L208.519 5.22136C207.597 5.22136 206.214 4.91423 205.445 4.76066L204.216 4.29995V3.5321V2.76426L203.14 1.99641L202.065 1.38213L196.84 1.07499L191.616 0.921424L191.001 1.22856ZM202.987 53.7493L206.367 54.8242L206.521 55.5921C206.675 55.8992 206.982 56.3599 207.136 56.3599H207.597L206.982 58.3563C206.828 59.4313 206.367 60.6599 206.06 60.967L205.599 61.5813H204.523H203.448L202.833 60.8134L202.372 60.1992H199.606H196.84L196.379 59.4313L195.765 58.6635H194.996C194.689 58.6635 193.921 58.5099 193.613 58.3563L192.845 58.0492L193.152 57.2814C193.46 56.5135 194.843 54.3635 196.072 52.8278L196.687 52.06L198.223 52.3671C198.992 52.5207 201.143 53.135 202.987 53.7493ZM89.5846 60.967C90.1993 61.4277 91.1212 62.3491 91.8895 62.9634C92.5042 63.7313 93.5798 64.4991 94.1945 64.8062L95.2701 65.4205L94.9628 65.8812L94.8091 66.3419L95.7311 68.6455C96.3457 69.874 97.114 71.1026 97.4214 71.5633C98.1897 72.4847 99.5726 76.9382 99.5726 78.6275V80.1632L98.8043 80.931L98.036 81.6989V84.0024V86.4595L96.653 87.0738C95.8847 87.3809 95.2701 87.6881 95.2701 87.9952C95.2701 88.6095 94.1945 89.5309 92.1969 90.4523L90.1993 91.2202L84.6675 90.7595C81.5942 90.4523 78.521 90.1452 77.599 89.838L76.2161 89.6845L75.9088 88.3023C75.7551 87.6881 75.2941 86.1524 74.9868 84.9238C74.5258 83.8488 74.2185 82.4667 74.2185 82.006V81.0846H74.6795H75.1404L76.5234 77.7061C77.4454 75.7097 78.2137 73.5597 78.3673 72.6383L78.6747 71.1026L79.5966 70.6419C80.0576 70.3347 80.8259 69.4133 81.4406 68.6455C81.9016 67.7241 83.1308 65.7277 84.2065 64.192L86.0504 61.2742L87.126 60.6599C87.8943 60.3527 88.509 60.1992 88.509 60.0456C88.6627 60.0456 89.1236 60.5063 89.5846 60.967ZM74.8331 64.9598L75.4478 65.7277L74.5258 67.4169L73.7575 69.2598H72.3745H70.9916L70.8379 67.5705L70.6843 65.8812L70.9916 64.9598L71.4526 63.8848L72.8355 64.0384L74.3721 64.192L74.8331 64.9598ZM204.216 80.0096C205.445 80.931 206.675 82.1596 206.982 82.7739L207.597 83.8488L207.289 86.4595L206.982 89.0702L204.984 89.6845C203.909 89.9916 202.372 90.6059 201.604 90.7595C200.682 91.0666 199.914 91.3737 199.76 91.6809L199.453 92.1416H197.301H195.15L193.46 90.2987L191.923 88.6095V87.5345V86.4595L193.306 84.7703L194.689 82.9274L194.689 81.6989V80.6239L197.301 79.3953L199.76 78.3203H200.836H201.911L204.216 80.0096ZM177.018 79.2418L177.94 79.7025L178.401 81.2382L179.016 82.7739L178.401 85.6917L177.786 88.6095L177.94 94.9058V101.356L178.401 101.816C178.708 102.124 179.016 102.431 179.016 102.584C179.016 102.738 177.633 102.891 176.096 103.045L173.176 103.045V97.8236V92.6023H172.562H172.101L172.562 91.988L173.176 91.5273V89.6845V87.8416L173.791 86.9202L174.406 85.9988L173.484 83.6953C172.715 81.2382 172.562 79.5489 173.023 79.0882C173.484 78.6275 176.096 78.6275 177.018 79.2418ZM121.393 97.3629L122.007 98.2843L123.544 98.4379L125.234 98.5915V99.82C125.388 100.434 125.695 101.816 126.002 102.891L126.463 104.734L127.693 105.809L128.768 107.038V107.652V108.42H128.154C127.693 108.42 126.463 108.113 125.388 107.806L123.236 107.191H121.085H118.934L117.551 108.266L116.168 109.341H114.939H113.709L112.327 108.573L111.097 107.959L110.175 108.266L109.253 108.42L108.639 107.345C108.331 106.731 107.717 105.963 107.409 105.656L106.795 105.195L106.487 103.659L106.334 102.124L108.792 100.895L111.251 99.6665L114.785 99.82L118.166 100.127L118.934 99.3593C119.395 98.8986 119.702 98.1308 119.702 97.8236C119.702 97.0558 120.163 96.4415 120.624 96.4415C120.778 96.4415 121.085 96.9022 121.393 97.3629ZM141.676 98.8986L142.598 99.3593V100.434V101.509L143.366 102.124L143.981 102.738V104.274V105.963L142.751 106.884L141.522 107.959L136.451 107.652L131.381 107.191L130.766 106.577L130.151 105.809V103.813V101.97L131.842 100.588C133.532 99.2058 134.761 98.8986 135.222 99.82L135.529 100.281H136.605H137.834L138.603 99.3593C139.525 98.2843 140.293 98.1308 141.676 98.8986ZM92.1969 100.588L93.5798 102.277L94.3481 101.97C94.8091 101.97 95.4238 101.97 95.5774 102.124C96.3457 102.738 97.114 104.427 97.4214 106.731C97.575 107.959 97.8823 109.341 98.1897 109.802C98.3433 110.263 98.6506 111.338 98.8043 112.413L99.1116 114.409L97.8823 116.252C97.2677 117.173 96.653 118.248 96.653 118.555C96.653 118.863 95.8847 120.552 94.9628 122.088C93.8871 123.623 92.6579 125.773 92.0432 127.002C91.4286 128.23 90.5066 129.612 90.0456 130.073L89.1236 130.841L86.3577 130.995L83.5918 131.302L82.6699 130.38L81.5942 129.459L80.5186 129.305L79.443 129.152L78.8283 128.23C78.521 127.616 77.9064 127.002 77.4454 126.541L76.5234 125.927L76.8307 124.698L76.9844 123.47L76.6771 122.395L76.2161 121.32L75.1404 121.013L74.0648 120.705L73.1428 121.166C72.5282 121.473 71.4526 121.934 70.5306 122.088L68.994 122.702L68.6867 122.088L68.3793 121.627L69.6086 120.552C70.3769 120.091 70.8379 119.323 70.8379 119.016C70.8379 118.709 71.1452 118.248 71.6062 118.095C71.9136 117.788 72.3745 117.327 72.5282 117.02L72.6819 116.252L72.8355 117.173V117.941L73.7575 117.481L74.6795 117.02L74.2185 115.484L73.6038 114.102L74.3721 113.181L75.1404 112.413L75.4478 108.573C75.7551 103.199 75.9088 102.124 76.5234 100.588L77.138 99.3593H77.7527C78.06 99.3593 78.6747 99.6665 79.2893 99.9736L80.2113 100.741H81.5942H83.1308L84.8211 99.82L86.5114 98.8986H88.6627L90.9676 98.7451L92.1969 100.588ZM161.345 106.27C163.957 107.038 165.493 108.113 165.493 108.881C165.493 109.188 165.954 109.956 166.569 110.723L167.645 112.106L167.798 113.948C167.952 115.023 168.259 117.481 168.567 119.63L169.181 123.623L170.103 124.545L170.872 125.466L170.564 127.309C170.411 128.384 169.95 130.073 169.489 131.148L168.874 133.145L169.335 135.448L169.796 137.752L169.642 141.591C169.489 143.741 169.335 146.352 169.335 147.427V149.423L167.798 149.576L166.262 149.73L165.801 150.651C165.647 151.266 165.032 152.034 164.571 152.341L163.649 152.801L161.806 151.266L159.962 149.884L159.347 147.427C159.04 146.044 158.579 144.662 158.271 144.355L157.81 143.741L158.118 142.359L158.425 140.977L157.81 139.287C157.349 138.519 156.888 137.445 156.735 136.984L156.581 136.062H155.813H155.044V133.759V131.302L154.583 130.995L154.122 130.841V127.923V125.005L153.661 124.238L153.2 123.47L153.047 119.477L152.739 115.331L151.971 115.023L151.203 114.563V113.181V111.952L153.969 109.188L156.735 106.424H157.349H157.964V105.963C157.964 105.349 158.579 105.349 161.345 106.27ZM137.066 114.102L139.064 115.023L141.215 115.331L143.366 115.638L144.595 116.713L145.978 117.941V119.016V120.245L144.288 120.859L142.598 121.473L137.834 121.166L133.071 120.859L131.842 120.091L130.766 119.323H129.076H127.385L127.232 119.784C127.078 120.091 124.312 121.78 123.851 121.78C123.236 121.78 123.544 120.245 124.158 119.17C124.619 118.555 124.927 117.634 125.08 117.173C125.08 116.713 125.388 115.945 125.541 115.638L126.002 115.023L127.846 115.331L129.69 115.638L130.766 114.716C131.842 113.795 132.917 113.334 134.454 113.181C134.761 113.181 135.99 113.488 137.066 114.102ZM36.4178 116.098C36.4178 116.252 37.3397 116.866 38.2617 117.173L39.952 117.941L42.7179 117.634L45.3301 117.481L45.9448 117.788L46.5594 118.248L45.9448 122.855L45.4838 127.309L46.2521 128.845C47.1741 130.687 47.1741 131.762 46.2521 133.145L45.4838 134.22H44.4082H43.1789L43.0252 132.684L42.8715 130.995L41.7959 130.841L40.7203 130.687L40.413 131.762L40.2593 132.837L39.491 132.53C39.1837 132.377 38.2617 132.223 37.6471 132.223H36.4178L36.7251 131.609L36.8787 130.841H36.2641C35.9568 130.841 35.1885 130.227 34.5738 129.612L33.4982 128.384H32.1152H30.886L30.2713 129.152L29.6567 129.766L29.964 130.687L30.2713 131.609L29.503 132.223C29.1957 132.53 28.8884 133.145 28.8884 133.452V134.22H29.3493H29.8103L30.425 135.448L30.886 136.523L29.8103 137.598L28.8884 138.519L29.1957 140.669L29.503 142.973L27.9664 142.666L26.4298 142.359V142.819C26.4298 143.127 26.7371 143.894 27.1981 144.662L27.9664 146.044L27.0444 148.194L25.9688 150.191V151.726V153.109L25.0468 154.337C24.5858 154.951 23.8175 156.18 23.3565 156.948L22.5882 158.637L22.1272 158.33L21.8199 158.023L21.5126 152.034L21.2053 146.044L20.7443 145.277L20.2833 144.355L20.898 142.512L21.3589 140.516L20.5906 138.673L19.8223 136.677L20.1296 135.602C20.2833 134.987 20.7443 134.066 21.0516 133.759L21.6663 133.145L21.6663 128.23V123.316L22.8956 122.241C23.6639 121.78 24.4322 121.32 24.7395 121.32C24.8932 121.32 25.6615 121.78 26.2761 122.241L27.3517 123.316L28.8884 123.47C29.8103 123.623 31.1933 123.623 32.1152 123.777L33.8055 123.93L34.1128 120.091C34.2665 117.941 34.5738 115.945 34.7275 115.638L35.0348 115.023L35.8031 115.331C36.1104 115.484 36.4178 115.791 36.4178 116.098ZM58.8523 117.327L59.467 117.941L61.3109 118.248C62.2329 118.402 63.3085 118.709 63.6158 119.016L64.2305 119.477V121.627C64.2305 122.855 64.2305 124.698 64.2305 125.62V127.463L62.8475 129.92L61.6182 132.53V135.141V137.752H60.6963C60.0816 137.752 59.467 137.905 59.006 137.905L58.545 138.059V139.902V141.744H58.084H57.623L57.3157 140.209L57.0084 138.519L55.7791 137.445L54.7035 136.37V135.295C54.7035 134.68 54.0888 132.53 53.3205 130.534C52.5522 128.384 51.6302 125.927 51.3229 125.005L50.8619 123.316V120.398V117.634L51.7839 117.173L52.8595 116.713H55.6254L58.2377 116.713L58.8523 117.327ZM136.298 160.173L136.451 161.555L137.373 162.169C138.449 162.937 139.525 165.394 139.986 167.544C139.986 168.466 140.293 169.694 140.293 170.308L140.447 171.23H137.988H135.376L135.068 171.844L134.607 172.458L133.532 171.998L132.61 171.383V170.462V169.694L131.842 169.08L131.227 168.466L129.69 168.619L128 168.773L126.771 167.544L125.388 166.469V165.087V163.551L126.463 162.016C127.078 161.094 127.693 160.48 127.846 160.48H128.307V159.558V158.637L128.768 158.484C129.076 158.33 130.766 158.33 132.763 158.484L136.144 158.791L136.298 160.173ZM17.8247 163.551C17.8247 163.705 17.6711 163.858 17.6711 163.858C17.5174 163.858 17.3637 163.705 17.3637 163.551C17.3637 163.398 17.5174 163.244 17.6711 163.244C17.6711 163.244 17.8247 163.398 17.8247 163.551ZM17.2101 165.087L16.9028 165.394V164.78V164.166L17.2101 164.473L17.5174 164.78L17.2101 165.087ZM130.151 217.147L131.842 218.068L131.995 221.14V224.365L130.612 226.515L129.229 228.818L125.541 228.665H121.854L120.471 227.743L119.241 226.822V226.054C119.241 225.747 118.934 224.979 118.78 224.518C118.473 223.904 118.012 223.136 117.705 222.522C117.551 222.061 117.244 221.14 117.244 220.372V219.297L118.166 218.683L119.241 218.222V217.454V216.533H123.851L128.461 216.379L130.151 217.147Z" fill="#CC0000"/>
<path d="M69.7623 1.84283L67.4574 2.14997L66.6891 3.22496C65.9208 4.14637 64.8451 4.91422 62.8475 5.9892L62.2329 6.29634L60.8499 5.52849L59.467 4.76065H55.0108L50.5546 4.76065L48.2497 3.53209L46.0984 2.45711L41.3349 2.61068L36.7251 2.91782L35.1885 3.37852L33.6519 3.83923L32.8836 3.22496L32.1152 2.61068L23.6639 2.45711C19.054 2.45711 14.7515 2.61068 14.1369 2.61068L13.0612 2.91782V3.53209L13.0612 4.14637L11.2173 4.29994H9.52701L8.60504 4.91422C7.9904 5.37493 7.22209 5.68206 6.76111 5.68206H5.68548L5.07083 6.44991C4.76351 6.91062 3.9952 8.13917 3.38056 9.06059L2.15126 10.5963L1.53662 13.9748C1.22929 15.8176 0.921972 18.5819 0.921972 19.964L0.768311 22.5747L1.38296 23.8032C1.69028 24.4175 2.45859 25.4925 2.91957 26.1068L3.84154 27.1818H4.60985H5.22449L5.83914 28.1032L6.60745 29.0246H7.68308L8.75871 29.0246L9.52701 27.796L10.2953 26.7211L9.988 25.6461L9.83434 24.5711L10.2953 23.6497L10.7563 22.7283L10.2953 22.2675L9.68068 21.6533V19.1962L9.68068 16.5855L10.1417 15.6641L10.7563 14.7427L12.2929 14.7427H13.9832L14.9052 13.3605L15.9808 11.8248H16.7491C17.2101 11.8248 17.8247 12.132 18.1321 12.4391L18.7467 12.8998L21.8199 12.5927C23.3565 12.4391 25.6615 12.2855 26.5834 12.132C27.6591 11.9784 29.042 11.6713 29.6567 11.3641L30.886 10.7499L31.1933 11.3641L31.6543 11.9784L37.3397 11.8248C40.413 11.8248 43.6399 11.6713 44.4082 11.6713C45.1765 11.5177 46.8667 10.9034 48.096 10.2891C49.479 9.67487 51.3229 8.75345 52.3986 8.29274L54.0888 7.5249L55.1645 8.29274L56.2401 9.06059H57.6231H59.006V9.36773V9.67487H63.6158C66.2281 9.5213 69.1477 9.36773 70.2233 9.21416L72.0672 9.06059L74.0648 9.5213C75.1405 9.82844 77.1381 10.2891 78.6747 10.4427L81.4406 10.9034L82.6699 9.67487C83.2845 9.06059 83.7455 8.29274 83.7455 8.13917C83.7455 7.9856 82.9772 7.06419 82.0552 6.29634L80.2113 4.76065H78.982H77.599L76.9844 3.37852L76.2161 1.9964L75.4478 1.68926C74.5258 1.22855 72.9892 1.38212 69.7623 1.84283Z" fill="#CC0000"/>
<path d="M177.786 1.84284L176.711 2.30355L175.942 3.68567C175.481 4.45351 175.174 5.5285 175.174 5.98921V6.91062L176.096 8.13918L177.172 9.5213H178.401C179.169 9.5213 180.091 9.36773 180.552 9.21416L181.321 8.90702V5.98921V3.22496L180.245 2.30355C179.63 1.84284 179.016 1.38213 179.016 1.38213C178.862 1.38213 178.247 1.68927 177.786 1.84284Z" fill="#CC0000"/>
<path d="M233.719 33.0174C232.182 33.9388 230.799 34.8602 230.492 35.1674L229.877 35.7817H228.341H226.804L226.343 36.7031L225.729 37.6245H223.885H222.041L220.35 39.1602C219.428 39.928 218.507 40.5423 218.199 40.5423C217.892 40.5423 217.124 40.8495 216.509 41.003L215.28 41.6173V45.4565V49.1422L215.741 50.0636L216.202 50.985H218.353H220.504L222.194 48.5279C222.963 47.1458 223.885 45.6101 224.038 44.9958L224.346 44.0744L226.804 42.2316L229.109 40.3887L231.107 39.7745C232.182 39.3138 233.719 38.6995 234.334 38.0852L235.717 37.1638L236.639 37.4709L237.714 37.7781V38.3923C237.714 38.6995 237.868 39.3138 238.022 39.7745L238.329 40.3887L236.639 41.6173L234.948 42.6923L235.102 44.0744L235.409 45.6101L234.948 46.9922L234.641 48.3743H232.643L230.799 48.5279L230.185 48.0672L229.57 47.6065L228.495 47.9136L227.419 48.0672L226.804 49.4493C226.497 50.2172 226.343 51.2922 226.343 52.06V53.2886L225.575 53.9028L224.807 54.5171L224.192 54.21L223.577 54.0564L222.809 54.5171L221.887 54.9778L222.041 56.5135L222.194 57.8956L221.272 59.7385C220.965 60.8135 220.504 61.8884 220.504 62.1956C220.504 62.5027 219.889 63.2706 219.275 64.0384L217.892 65.4205L218.046 70.0276L218.199 74.6347L218.66 75.5561L219.121 76.324L218.199 77.8597L217.124 79.3953V81.3917V83.5417L217.738 83.8489L218.199 84.0024L217.892 88.4559L217.585 92.9094L216.663 94.5987L215.741 96.4415L215.894 102.124C216.048 105.195 216.355 107.959 216.509 108.42L216.816 109.188L215.587 110.57L214.358 111.952L214.665 113.334C214.819 114.102 215.126 115.331 215.433 115.945L215.894 117.173L216.048 126.695L216.202 136.37L216.816 141.13L217.431 145.891L218.353 147.58C218.814 148.348 219.121 149.577 219.121 150.191V151.419L220.197 151.573C220.811 151.726 221.887 151.88 222.502 151.726L223.577 151.573L223.731 148.502V145.43L223.424 144.969C223.27 144.662 222.963 143.894 222.809 143.28L222.502 142.205L223.885 140.669L225.268 139.287L225.114 137.752L224.807 136.216L225.729 135.448L226.804 134.834V131.916V128.845L227.88 128.998C228.495 128.998 229.724 129.152 230.646 129.613L232.182 130.073L232.029 131.916L231.875 133.759H232.643C232.951 133.759 233.565 134.066 233.873 134.373L234.487 135.141H235.717H236.792V137.445V139.902L238.636 141.13L240.634 142.205L241.095 143.28L241.556 144.202L243.553 145.123L245.397 146.198V146.812V147.58L246.319 147.887L247.241 148.194V148.962C247.395 149.269 247.395 151.573 247.395 153.876L247.241 158.023H247.702C247.856 158.023 248.471 158.791 248.931 159.712C249.392 160.634 250.161 161.401 250.468 161.555L251.083 161.862V163.551V165.241L251.851 165.548L252.466 165.701L252.773 167.083C252.927 167.698 253.234 168.619 253.388 168.926L253.849 169.694L254.771 169.387L255.539 169.08L255.232 167.698C255.078 166.93 254.924 164.78 254.924 162.937V159.405L255.385 157.409L256 155.412L255.846 144.662L255.693 133.912L254.924 132.53L254.156 130.995L254.617 129.766L255.078 128.538L254.31 126.541L253.388 124.545L254.31 123.93L255.232 123.316L255.539 112.106C255.846 105.963 255.846 99.2058 255.693 97.2094C255.693 95.0594 255.385 85.0774 255.385 74.7883C255.232 64.6527 255.078 56.36 254.924 56.2064C252.158 54.21 251.083 53.4421 250.622 53.4421H250.161V60.1992V66.9562L249.546 67.7241L248.778 68.4919V71.4097C248.624 72.9454 248.778 74.7883 248.931 75.7097L249.239 77.0918L248.624 78.0132L247.856 78.9346L246.934 78.1668L246.012 77.2454H244.168L242.17 77.2454L241.248 75.7097C240.787 74.7883 240.173 74.0204 240.019 74.0204H239.712L240.019 72.1776L240.173 70.3348L239.712 69.2598C239.097 68.1848 238.483 65.267 238.636 63.7313C238.636 63.117 238.79 61.2742 238.79 59.4313L238.943 56.0528L239.712 54.8243C240.019 54.0564 241.248 51.9064 242.17 50.0636L244.014 46.5315L243.707 46.2244L243.4 45.7637L244.168 44.228L244.936 42.6923V40.5423V38.2388L244.322 37.0102L243.861 35.7817H243.246H242.478V34.8602V33.9388L240.48 32.7103L238.329 31.4817H237.407C236.946 31.4817 235.256 32.2496 233.719 33.0174ZM230.953 59.7385L232.49 61.4277V64.192C232.49 65.7277 232.643 68.0312 232.797 69.2598L233.104 71.5633L229.263 71.4097H225.575V68.9526V66.4955L224.96 65.267L224.346 63.8848L224.653 63.2706C225.268 62.1956 227.88 58.9706 228.495 58.5099C228.648 58.3564 228.956 58.2028 229.109 58.2028C229.263 58.2028 230.185 58.9706 230.953 59.7385ZM227.88 79.2418L229.724 79.8561L230.492 79.3953L231.414 78.7811L232.182 79.2418L232.951 79.7025V80.3168C232.951 81.0846 234.641 82.6203 235.563 82.6203H236.331L237.1 81.0846C237.407 80.3168 238.022 79.7025 238.175 79.7025H238.636L238.943 81.5453L239.251 83.5417L238.636 84.7703L238.022 86.1524L232.336 86.306L226.804 86.4595V85.9988V85.5381L224.96 85.0774L223.116 84.7703L222.809 84.3096C222.655 84.0024 222.502 83.081 222.502 82.3132V80.7775L223.731 79.7025C224.499 79.2418 225.268 78.7811 225.575 78.7811C225.729 78.7811 226.804 78.9346 227.88 79.2418ZM247.241 87.0738L249.392 87.9952L250.314 89.8381L251.236 91.6809L252.158 92.1416L253.08 92.6023V94.5987V96.4415L252.619 97.363L252.158 98.2844L249.085 97.9772L246.166 97.6701L245.705 97.363L245.244 96.9022H243.707L242.324 96.9022L241.095 96.1344L240.019 95.3666L240.173 93.3702C240.326 90.7595 240.173 90.4523 239.404 89.5309L238.636 88.9166L238.943 88.1488C239.097 87.8417 239.865 87.2274 240.787 86.7667L242.324 85.9988L243.707 85.9988H245.09L247.241 87.0738ZM229.263 92.6023L231.414 93.3702L232.182 94.5987L232.951 95.8273L234.641 96.4415L236.331 97.0558V97.9772V98.7451L235.409 99.3594L234.334 99.9736V101.509V103.045L231.107 102.891C229.416 102.738 227.726 102.738 227.419 102.738L226.804 102.584V101.816V101.049L226.036 100.127C225.575 99.6665 224.96 99.3594 224.499 99.3594H223.885L222.655 97.9772L221.426 96.7487V95.8273C221.426 95.3666 221.887 94.2916 222.348 93.3702L223.116 91.6809H225.114H227.112L229.263 92.6023ZM244.014 103.659L244.936 104.581H246.934H248.931L250.314 105.809L251.544 107.038L251.083 108.113C250.775 108.574 250.161 109.341 249.7 109.802C249.239 110.263 248.471 111.184 248.163 111.952C247.702 112.72 247.088 113.795 246.627 114.102L245.858 114.716L243.092 113.027C241.556 112.106 239.712 111.184 239.097 111.184L238.022 111.031V109.034C238.175 107.191 238.636 104.427 238.943 103.199L239.097 102.584H241.095H242.939L244.014 103.659ZM224.346 107.652L224.96 108.266L227.112 108.574L229.263 109.034L229.57 110.109L230.031 111.031L230.799 111.338L231.414 111.645L231.721 113.948C231.875 115.177 232.029 117.481 232.182 118.863V121.627L231.568 122.702L230.953 123.777L229.724 123.623C228.956 123.47 227.573 123.623 226.651 123.93L224.807 124.238L223.731 123.163L222.655 122.241H221.58H220.658L220.35 121.78L220.043 121.166L220.811 120.091L221.58 118.863L221.426 117.327L221.272 115.791L220.197 115.331L219.121 114.87V113.334V111.645L220.965 109.956L222.963 108.266L222.963 107.652V106.884H223.424C223.577 106.884 224.038 107.191 224.346 107.652ZM241.095 117.634L241.709 118.556L241.248 119.016L240.634 119.477L240.941 120.091L241.248 120.705L242.17 120.245L243.092 119.631L244.168 120.245C244.783 120.705 246.012 121.473 247.088 122.241L248.778 123.316L248.624 125.466C248.471 126.695 248.163 128.845 247.856 130.073L247.241 132.377L246.473 133.298C246.012 133.759 245.551 134.22 245.244 134.22C245.09 134.22 243.707 133.452 242.324 132.53L239.712 130.687L239.404 129.766C239.251 129.152 238.943 128.384 238.943 127.923C238.943 127.463 238.483 126.234 238.022 125.159L237.1 123.163H236.331C235.87 123.163 235.256 123.009 234.948 122.702L234.334 122.395L235.102 121.166C235.717 120.398 236.331 119.784 236.639 119.784H237.1L237.561 118.709C237.868 118.095 238.329 117.327 238.329 116.866L238.636 116.098L239.712 116.406L240.634 116.559L241.095 117.634Z" fill="#CC0000"/>
<path d="M200.989 109.802L200.221 110.263L199.606 112.566L199.145 114.87L199.299 115.791C199.452 116.252 199.913 117.173 200.374 117.634L201.143 118.402V120.245L201.296 121.934L202.526 124.391L203.755 126.695V127.923V129.305L204.37 129.459L204.984 129.766L203.909 130.995L202.679 132.223L202.372 135.448C202.065 137.291 201.757 140.823 201.45 143.28C201.143 145.737 200.835 148.501 200.682 149.269C200.528 150.037 200.221 153.109 200.067 156.18L199.606 161.708L200.221 163.091C200.528 163.858 201.296 165.087 201.757 165.855L202.679 167.237L200.989 170.308C200.067 171.998 199.145 173.38 198.992 173.38H198.531V175.376C198.531 177.526 199.606 186.126 200.374 190.272C200.682 191.654 200.835 193.804 200.989 195.033V197.49L201.604 199.794C202.065 201.176 202.372 202.404 202.218 202.711C202.065 203.019 202.218 204.708 202.679 206.244L203.294 209.315L202.987 210.851L202.679 212.386L203.755 214.229L204.831 216.072V217.147C204.831 217.608 205.292 219.143 205.906 220.525C206.675 221.908 207.136 223.29 207.136 223.75C207.136 224.058 207.289 224.518 207.597 224.672C207.904 224.825 208.365 225.747 208.519 226.822L209.133 228.665L211.131 232.043L213.128 235.422H214.204H215.28L216.97 233.732L218.66 231.89V230.354V228.818H218.199C217.738 228.818 216.202 226.054 216.202 225.133C216.202 224.518 215.28 222.215 213.128 218.068C212.514 216.84 211.899 215.458 211.899 214.997V214.076L211.438 213.768L210.977 213.461V211.926C210.977 211.004 210.67 209.468 210.209 208.24L209.594 206.244L210.055 204.401L210.67 202.404L209.594 201.022L208.519 199.486L208.365 195.954C208.365 193.804 208.058 191.194 207.75 189.965L207.136 187.662L206.982 180.444C206.828 176.451 206.521 170.615 206.367 167.544L206.214 162.016L206.675 160.633L207.289 159.251L207.136 156.18V153.109L207.904 150.959L208.672 148.962L208.519 144.509L208.211 139.902L208.826 139.134L209.44 138.212L209.594 135.755V133.298L210.516 131.609C210.977 130.841 211.438 129.766 211.438 129.305C211.438 128.845 211.131 127.923 210.67 127.155L210.055 125.773V123.623V121.473L209.133 120.245L208.365 119.17V117.788L208.211 116.405L207.443 115.484C206.982 115.023 206.214 114.563 205.906 114.563H205.292L204.984 113.334C204.831 112.72 204.523 112.259 204.216 112.259H203.909L203.755 110.877L203.601 109.495H202.679L201.604 109.341L200.989 109.802Z" fill="#CC0000"/>
<path d="M245.858 180.598L245.244 181.673V183.822V185.972L246.012 188.122L246.78 190.426L246.627 196.108C246.473 199.179 246.319 204.708 246.166 208.24L245.858 214.69L246.473 217.608L246.934 220.526L245.244 223.136C244.322 224.672 243.4 225.9 243.092 226.054L242.478 226.361V228.511V230.661L243.707 231.122L244.936 231.583L244.629 233.732C244.322 236.036 243.861 236.804 241.863 239.875L240.326 242.179H238.329H236.485L236.178 240.95L235.87 239.722H235.102C234.795 239.722 234.026 240.182 233.258 240.797L232.029 241.718L230.185 242.025L228.341 242.332L227.265 241.257L226.19 240.336L225.729 240.49C225.575 240.643 225.268 241.104 225.268 241.411V242.179H224.192H222.963L222.655 242.64C222.502 242.793 221.733 243.254 220.658 243.561L218.967 244.175L218.66 243.561L218.199 242.947L216.355 243.714L214.511 244.636L212.975 243.868L211.592 243.1L209.287 243.714L206.828 244.329L204.677 243.714L202.679 243.1L195.457 243.714L188.235 244.175L186.852 245.557L185.469 247.093L183.779 247.554C182.857 247.707 181.628 248.322 181.167 248.782L180.398 249.397V251.086V252.622L181.781 253.543L183.164 254.618L196.226 254.311C203.448 254.157 209.748 254.004 210.209 254.004C210.823 254.004 214.972 254.157 219.582 254.311L227.88 254.618L230.646 254.157L233.258 253.697L235.409 254.004L237.714 254.464L239.712 254.004C240.941 253.85 243.707 253.389 245.858 252.929C248.163 252.468 250.007 252.161 250.007 252.161C250.007 252.161 250.775 251.086 251.544 249.704C252.312 248.475 253.08 246.939 253.08 246.632C253.08 246.172 253.541 244.329 254.156 242.486L255.385 239.107L255.539 234.5L255.846 230.047L254.156 228.05L252.619 226.208V225.44V224.825L254.002 223.136L255.539 221.601L255.232 220.372L254.924 219.143H254.156H253.541V218.376V217.454L254.771 215.611L255.846 213.922V208.086C255.846 204.861 255.539 198.412 255.232 193.804L254.771 185.358L254.002 184.437C253.541 183.976 252.927 183.055 252.619 182.287L252.158 181.058H250.622H249.239V180.29V179.523H247.856H246.319L245.858 180.598Z" fill="#CC0000"/>
<path d="M146.132 187.047L145.517 187.508L145.364 189.812C145.21 191.194 144.903 193.037 144.749 193.958L144.442 195.801H145.21H145.825L146.132 198.258C146.286 199.64 146.593 202.097 146.747 203.786L147.054 206.858L146.439 207.472L145.825 208.24L146.132 210.236L146.439 212.233L147.208 213.308L147.976 214.536L148.437 219.297C148.591 222.061 149.051 225.593 149.051 227.129L149.359 229.893L149.973 231.275C150.434 232.043 150.895 233.886 151.203 235.422L151.664 238.186L151.51 240.336L151.356 242.332H150.434H149.512L148.898 243.561C148.591 244.175 148.437 245.404 148.283 246.018V247.247L147.669 247.861L146.9 248.475L145.978 248.014L145.21 247.554L144.442 247.861L143.827 248.321L141.676 248.168H139.524L139.371 246.632L139.217 245.097L138.603 244.482L137.834 244.022L136.912 244.482C136.451 244.789 135.376 244.943 134.607 244.943H133.071L132.763 245.557L132.456 246.018H131.227H129.844L129.229 246.632L128.615 247.4H125.388H122.161L120.931 246.786L119.702 246.172L115.246 246.325C112.787 246.479 110.175 246.632 109.407 246.939L108.024 247.247L107.87 248.014L107.717 248.782L108.639 249.857L109.714 250.932H114.478L119.241 250.779V251.393V252.007L120.009 252.468C121.239 252.929 124.927 253.543 130.151 254.004L134.761 254.464L142.29 254.157L149.973 253.85L150.895 254.464L151.817 255.232L159.347 254.925C163.496 254.771 167.184 254.464 167.645 254.311L168.259 254.004L170.103 251.239C171.179 249.857 172.101 248.475 172.408 248.475L172.715 248.321V246.786V245.097L171.793 244.329L171.025 243.561H169.642L168.413 243.561L167.337 242.947C166.723 242.486 165.493 242.179 164.571 242.025L162.881 241.718L161.959 240.797L161.191 239.875L159.961 239.568C159.193 239.414 158.425 238.954 157.964 238.647L157.503 238.186V236.804V235.268L156.735 234.5C156.427 234.193 155.966 232.965 155.659 231.89L155.044 229.893V227.59V225.44L154.122 223.136L153.2 220.679L152.586 214.843C152.278 211.618 151.971 207.011 151.971 204.554L151.817 200.254L151.203 199.179L150.742 198.258L151.203 197.336C152.125 195.494 151.817 193.651 150.127 190.733C149.205 189.044 147.361 186.74 146.9 186.74C146.747 186.74 146.439 186.894 146.132 187.047Z" fill="#CC0000"/>
</svg>
