<svg width="256" height="256" viewBox="0 0 256 256" fill="none" xmlns="http://www.w3.org/2000/svg">
<path d="M76.1448 1.58863L74.5631 3.17729V2.26948V1.58863H73.2074H71.8517L71.3998 2.26948L70.9479 2.95033L69.3663 1.81558L67.5587 0.680831L65.9771 1.58863L64.3954 2.49643L63.0397 2.26948L61.91 2.04253V3.40424C61.4581 7.48934 62.5878 10.2127 64.1695 9.9858C64.6214 9.75885 66.203 10.2127 67.3328 10.8936L69.8182 11.8014L72.5296 11.3475C74.1112 11.1205 75.9188 10.8936 76.5967 11.1205L77.7264 11.5744L77.5004 15.2057L77.2745 18.8369L78.6302 19.7447L79.7599 20.6525H78.8561H77.9523V22.2411V23.8298L76.3707 24.7376L74.7891 25.6454L73.8853 27.461L72.9815 29.2766L74.1112 30.8652C74.7891 31.773 75.4669 32.6808 75.9188 32.6808C76.3707 32.6808 76.8226 33.1347 77.2745 33.8156L77.9523 34.9503L77.5004 39.9432L76.8226 44.9362L78.1783 46.0709L79.534 47.4326H81.1156H82.9232V48.1135C82.9232 49.9291 81.3416 54.922 80.2118 56.0567L79.0821 57.4184L80.2118 57.8723L81.1156 58.5532L79.9859 60.3688C79.308 61.2766 78.8561 62.4113 78.8561 62.4113C78.8561 62.6383 79.308 62.8652 79.9859 63.0922L81.3416 63.5461V68.539L81.5675 73.7589L80.4378 72.8511L79.308 71.9432L77.9523 73.5319L76.8226 75.3475L78.8561 75.5745L80.8897 75.8014V77.3901L81.1156 78.7518L80.2118 80.7943L79.308 82.6099V87.1489C79.308 89.6454 79.534 93.5035 79.7599 95.773L80.2118 99.8581L79.534 100.539L78.8561 101.447V103.716V106.213L79.9859 106.44L81.3416 106.894L79.9859 109.617L78.4042 112.567L78.6302 118.468V124.369L79.7599 126.184L80.8897 128H82.2454H83.6011V128.681L83.3751 129.362L84.5049 130.269L85.6346 130.95L86.7643 130.496L87.6681 130.043L88.5719 126.411L89.2498 122.78L87.8941 120.511L86.3125 118.014L86.7643 115.972L87.2162 113.929L86.5384 113.475L85.8606 113.021V108.709V104.624H86.5384H86.9903L87.6681 102.355L88.12 100.312L87.2162 99.4042L86.5384 98.7234V96.2269V93.9574L87.4422 92.8227L88.5719 91.6879V89.1915C88.5719 87.8298 88.346 82.383 87.8941 77.3901L87.4422 68.312L88.5719 66.9503L89.7017 65.5886V57.8723C89.7017 53.5603 90.1536 49.0213 90.3795 47.8865L90.8314 45.3901L88.346 42.6667C86.9903 41.078 85.8606 39.4893 85.8606 39.0354V38.1276H84.053H82.4713L81.3416 34.7234C80.6637 32.6808 80.2118 30.1844 80.2118 29.5035V27.9149L81.5675 26.5532L82.9232 25.1915V23.8298V22.2411L84.7308 21.1064C85.6346 20.4255 86.5384 19.5177 86.5384 19.2908C86.5384 18.156 90.8314 13.844 93.3169 12.4823C94.6726 11.5744 95.5764 10.8936 95.5764 10.4397V9.9858H97.8358C100.547 9.9858 103.033 9.75885 104.84 8.85104L105.97 8.39714L106.422 9.9858L107.1 11.5744L108.907 11.3475C109.811 11.1205 111.167 10.6666 111.845 10.2127L112.974 9.30495L117.041 13.1631C119.075 15.4326 120.883 17.4752 120.883 17.7021C120.883 19.0638 116.816 22.0142 115.008 22.0142C114.33 22.0142 113.878 22.2411 113.878 22.4681C113.878 22.922 113.652 23.6028 113.2 24.0567L112.523 25.1915L111.167 23.3759L109.811 21.7872L108.455 22.2411C107.778 22.695 105.97 22.922 104.614 22.922L101.903 23.1489L100.773 24.2837L99.4175 25.6454L100.999 28.1418L102.355 30.8652H104.84C106.196 31.0922 108.681 31.5461 110.263 31.773L113.426 32.6808L114.782 32.2269C115.46 32 117.719 31.773 119.979 31.5461L123.82 31.3191L124.724 30.4113L125.628 29.7305L126.079 31.0922L126.305 32.4539L125.176 32.9078L123.82 33.1347V35.1773V37.2198L125.853 38.1276L128.113 38.8085L129.017 38.5815C129.469 38.3546 130.147 37.6737 130.372 36.9929L130.824 36.0851L129.243 34.4964L127.661 32.9078L131.502 32.6808C133.536 32.6808 136.925 32.4539 139.184 32.2269L142.8 32L144.381 32.6808L145.737 33.3617L152.064 33.5886H158.39L159.746 32.6808L161.102 31.773L162.683 32.2269L164.265 32.4539L165.169 35.4042L165.846 38.1276L166.976 38.8085L167.88 39.7163L166.976 42.6667L165.846 45.617L163.135 47.6596L160.424 49.7021L159.972 51.5177C159.972 52.6525 159.52 56.2837 159.294 59.6879L158.616 66.0425L158.164 66.7234L157.712 67.6312V69.6737C157.938 70.8085 158.164 72.3972 158.39 73.305L159.068 74.8936L157.938 76.0284L156.808 77.1631L157.26 78.2979C157.938 79.8865 157.938 82.8369 157.26 97.3617L156.808 108.936L156.131 109.844L155.227 110.979L155.679 112.794L156.131 114.61L154.775 113.702C153.871 113.475 152.741 113.021 152.064 113.021H150.708L149.804 114.156L148.9 115.291L150.03 117.787L151.16 120.057L152.064 120.284C152.515 120.284 153.419 120.284 154.097 120.284L155.227 120.057L157.034 121.645L158.842 123.234V125.05V127.092L159.972 128.227L161.102 129.135V132.085V134.809L159.52 135.943C158.616 136.624 157.26 137.078 156.583 137.078H155.453L154.549 138.44C154.097 139.348 153.193 139.801 152.741 139.801H152.064L151.612 142.071L151.16 144.113L152.289 146.61L153.193 149.106H151.838H150.482V151.603V154.099L153.193 155.915L156.131 157.73L157.712 157.277L159.294 156.823L160.876 158.865L162.231 160.681L163.135 160L163.813 159.092L164.265 156.142L164.717 153.418H163.813H163.135V148.879C163.135 146.383 162.683 143.887 162.457 142.979L162.005 141.617L162.909 139.574L163.813 137.305V134.809V132.539L162.909 130.95L162.231 129.362L162.909 128.454L163.813 127.546L163.361 125.73C163.135 124.823 162.457 123.234 161.779 122.326L160.65 120.738L162.005 120.057L163.135 119.376V117.787V115.972L162.005 115.291L161.102 114.383L161.327 106.667C161.553 102.355 161.779 98.4964 162.005 98.2695L162.457 97.5886L161.553 97.1347L160.876 96.6808L161.327 86.0142L161.779 75.3475L162.909 72.8511L164.265 70.5815L162.909 69.6737L161.553 68.539L162.231 66.7234L163.135 64.9078L164.265 64.6808C164.943 64.2269 166.072 63.773 166.75 63.0922L167.88 62.1844H171.947C174.207 62.4113 179.403 62.4113 183.244 62.4113H190.475L190.927 63.773C190.927 64.6808 191.379 67.4042 191.605 69.6737C191.605 71.9432 192.056 75.3475 192.508 77.1631C192.96 78.7518 193.186 82.383 193.412 84.8794V89.6454L194.768 90.7801L196.124 92.1418L195.898 93.5035C195.672 94.4113 195.22 100.085 194.994 106.44L194.768 117.56L194.09 118.241C193.412 119.376 192.508 127.092 192.508 133.674V139.121L193.412 140.482C193.864 141.39 194.316 143.433 194.542 145.021L195.22 147.972L196.35 148.199L197.479 148.426L197.931 145.702C198.157 144.34 198.609 139.574 199.061 135.262L199.739 127.319L199.287 118.695L198.609 110.298L199.061 109.617L199.739 109.163L198.835 107.121L197.931 105.305L199.287 102.582L200.417 99.8581L199.513 97.8156L198.383 95.5461L198.835 95.0922C199.513 94.4113 199.739 88.0567 199.287 82.8369L198.835 77.844L197.931 76.9362L197.253 76.0284V72.3972C197.253 70.5815 197.479 68.312 197.931 67.4042L198.383 65.8156L197.479 65.3617L196.801 64.9078L197.253 64.2269L197.705 63.5461L196.801 62.4113C196.35 61.7305 196.124 61.5035 196.575 61.7305L197.027 62.1844L198.383 61.0496L199.739 59.9149V58.7801V57.4184L198.609 56.5106L197.479 55.6028L198.157 54.922C198.609 54.4681 199.061 54.0142 199.061 53.7872C199.061 53.3333 197.931 52.4255 196.575 51.5177L194.09 50.156L192.282 50.6099L190.475 50.8369L189.571 53.3333C188.893 54.4681 187.538 56.7376 186.408 57.8723L184.6 60.3688L182.341 56.9645L180.307 53.5603L178.726 53.1064L177.144 52.4255V51.0638V49.9291L173.981 47.4326C172.173 46.0709 171.043 44.9362 171.043 44.7092C171.269 44.7092 171.043 43.5745 170.817 42.2128L170.139 40.1702L170.817 38.8085L171.495 37.4468L170.591 36.0851L169.914 34.7234L170.591 33.8156L171.495 33.1347L172.399 33.8156L173.303 34.4964L176.918 34.2695C178.726 34.2695 181.437 34.2695 182.567 34.0425H184.826L186.86 32.2269L188.893 30.4113L190.927 31.0922C192.96 32 196.575 32 201.32 31.3191L204.71 30.8652L205.387 29.5035C205.613 28.5957 206.517 27.461 207.421 26.7801L208.777 25.6454V24.5106V23.6028L207.873 23.3759C206.969 22.922 199.965 23.1489 192.056 23.3759L187.763 23.6028L186.86 24.5106L186.182 25.6454L185.052 24.5106L183.696 23.3759L181.211 23.8298L178.5 24.2837V24.9645V25.4184H176.918H175.336L173.529 24.0567L171.721 22.695L169.462 22.4681L166.976 22.2411L166.524 19.5177L166.072 16.7943L166.976 15.4326L167.654 14.0709L166.524 13.1631L165.169 12.2553L166.976 12.0284L168.784 11.5744L169.01 12.2553L169.462 12.7092L172.625 12.4823L175.788 12.2553L177.144 11.1205L178.5 9.9858L178.951 10.6666L179.403 11.3475L180.759 11.1205L182.115 10.6666V11.3475V12.0284H188.215H194.316L195.446 11.3475L196.35 10.6666L197.253 11.5744L198.157 12.2553L200.643 11.1205L203.128 9.75885L206.517 10.6666C214.877 12.4823 217.137 12.9362 220.3 13.3901L223.463 13.617L225.271 11.8014C226.401 10.8936 227.53 9.9858 227.982 9.9858C228.208 9.9858 229.564 9.30495 230.468 8.62409L232.501 7.26239L234.535 8.62409L236.568 9.9858H238.15H239.506L239.958 11.1205C240.184 11.8014 240.41 12.7092 240.41 13.3901V14.7518L241.991 15.6596L243.799 16.5674L244.929 21.1064L246.058 25.8723L244.929 27.0071L243.799 28.3688L244.251 31.0922L244.703 34.0425L244.025 34.9503C243.799 35.4042 243.121 36.9929 242.895 38.5815L242.443 41.3049L241.539 42.6667L240.635 44.0284L237.924 43.1206L235.439 42.4397L234.309 43.1206L233.405 44.0284L233.631 44.9362L234.083 46.0709H232.727H231.372L229.564 48.3404L227.756 50.8369L225.949 51.0638L223.915 51.2908L222.56 50.6099L221.204 49.7021L217.137 49.2482L213.07 48.7943L211.94 49.9291L210.81 51.2908L211.262 54.695L211.94 58.3262L211.714 64.9078V71.4893H212.166H212.844L212.392 73.9858L212.166 76.7092L211.036 78.2979L210.132 79.6596L210.584 81.7021C210.81 82.8369 211.488 83.9716 211.94 84.1986L212.618 84.6525L211.488 87.8298L210.358 90.7801L210.584 97.8156C210.81 101.674 210.81 107.121 210.81 109.617L211.036 114.383L211.94 116.426L213.07 118.468V122.78V127.092H211.94H211.036L210.584 128.454C210.358 130.043 210.584 134.582 211.262 135.489L211.714 136.397H213.07H214.199L215.103 135.489C215.329 135.035 215.781 133.901 215.781 133.22C215.781 131.631 215.781 131.631 215.555 120.511V113.021L216.233 112.34L216.911 111.66L216.685 109.39L216.459 107.121L215.329 106.213L214.199 105.305H214.877H215.555L216.233 101.22C216.459 98.9503 216.685 95.0922 216.911 92.3688L217.137 87.6028L217.815 86.4681L218.492 85.3333L217.815 83.5177L217.137 81.7021L217.589 78.0709C218.041 76.2553 218.267 74.4397 218.267 74.2128C218.267 73.9858 218.718 72.6241 218.944 71.0354L219.396 68.0851L218.718 66.4964L218.041 65.1347L220.526 64.9078L223.237 64.6808L224.593 61.9574L225.723 59.461H226.853H227.756V58.7801V58.0993H231.372L235.213 58.3262L237.472 60.5957L239.732 63.0922L241.087 62.6383L242.443 62.1844L243.347 64L244.025 66.0425V70.3546C244.025 72.6241 244.251 76.7092 244.703 79.2057L245.606 83.7447L246.51 84.4255L247.414 85.3333L247.188 87.3759V89.4184L248.996 89.6454L250.803 89.8723L252.385 87.8298L253.741 86.0142L253.289 84.6525C253.063 83.7447 252.837 81.0213 252.837 78.5248C252.611 76.0284 252.385 73.305 251.933 72.6241L251.481 71.2624L252.159 70.8085L252.837 70.3546V64.2269V58.3262L250.351 54.922L247.866 51.7447L245.832 50.6099L244.025 49.4752L243.121 49.9291L242.443 50.383L241.087 48.7943C240.41 47.8865 239.732 46.5248 239.732 45.844V44.7092L240.861 44.2553L241.765 44.0284L245.154 44.2553L248.544 44.7092L250.577 42.8936L252.611 41.078V37.6737C252.611 32.2269 251.707 23.3759 250.577 17.7021L249.447 12.4823L247.188 10.2127L245.154 7.94324L242.895 7.03544C241.765 6.58154 240.184 5.90069 239.732 5.21984L238.602 4.31204L230.468 3.63119L222.56 2.95033L216.459 3.40424C213.296 3.40424 209.906 3.63119 208.777 3.63119L207.195 3.85814L205.613 5.21984C204.936 5.90069 203.58 6.80849 203.128 7.26239L201.772 7.94324L200.643 5.67374L199.739 3.63119L197.705 2.72338L195.898 1.81558L191.605 1.58863C189.345 1.36168 184.6 1.36168 181.211 1.36168H175.11L171.495 2.26948L168.106 2.95033L166.524 1.81558L164.943 0.907782H163.135H161.102L159.294 2.26948L157.486 3.63119V4.99289V6.35459L155.453 7.03544L153.193 7.71629L152.741 4.99289L152.289 2.26948L151.386 1.81558C150.708 1.58863 147.319 1.36168 143.477 1.13473L136.699 0.680831L135.569 2.04253C134.891 2.72338 133.084 4.76594 131.502 6.35459L128.791 9.5319L128.565 11.1205L128.113 12.9362L128.791 13.1631L129.469 13.617L131.728 13.1631C132.858 12.9362 135.343 12.2553 136.925 11.8014L140.088 11.1205L140.766 9.9858L141.444 8.85104L143.026 9.078C143.703 9.30495 144.833 9.9858 145.511 10.6666L146.867 12.0284L152.289 12.4823C155.453 12.7092 158.164 12.9362 158.616 13.1631C159.068 13.3901 159.972 14.5248 160.65 15.6596L161.779 17.9291L160.876 18.8369C160.198 19.0638 159.294 20.4255 158.616 21.5603L157.486 23.3759L156.131 23.8298C155.453 24.0567 154.549 24.9645 153.871 25.6454L152.741 27.0071L151.386 26.3262L150.03 25.6454L146.641 25.8723H143.026L142.122 25.1915L140.992 24.2837L135.569 23.8298L130.147 23.3759L129.695 24.0567L129.243 24.7376H128.113H126.757L125.853 23.8298L124.95 22.695L126.305 21.3333L127.435 19.9716L126.305 18.156L125.176 16.3404L125.628 15.2057L126.305 14.0709L125.402 10.2127L124.498 6.35459L124.724 5.67374L125.176 4.99289L124.272 3.40424L123.142 1.58863L119.075 1.58863C116.816 1.58863 113.878 1.36168 112.297 1.13473L109.811 0.680831L108.907 2.26948L108.229 3.63119L107.326 2.95033L106.422 2.26948L105.97 2.72338L105.292 3.17729L104.614 2.04253L103.936 0.907782H101.225H98.5137L96.2542 1.81558L93.9947 2.72338L90.8314 2.04253C89.0238 1.81558 87.2162 1.13473 86.9903 0.907782L86.3125 -1.9908e-05H82.0194H77.7264L76.1448 1.58863Z" fill="#CC0000"/>
<path d="M47.2233 1.81557C46.3196 2.49642 45.4158 3.85812 44.9639 4.53897L44.512 6.12763L45.8677 7.71628L47.4493 9.30493L49.9347 9.30493H52.6461L54.4537 7.48933C55.5835 6.58153 56.7132 5.67373 56.9391 5.67373C57.391 5.67373 57.8429 5.44678 58.0689 4.99288L58.5208 4.31202L57.617 3.17727L56.7132 2.26947L56.0354 2.72337L55.3575 3.17727L54.9056 2.26947L54.4537 1.36167L51.5164 1.13472L48.805 0.680818L47.2233 1.81557Z" fill="#CC0000"/>
<path d="M17.624 2.04255C16.7202 2.2695 15.5905 2.7234 15.1386 2.95035L14.4607 3.6312H12.4272H10.3936L7.90821 5.67375L5.19682 7.94326L3.61518 12.4823L2.03354 17.0213L2.48544 18.8369L2.93733 20.6525L2.03354 22.0142L1.35569 23.3759L1.35569 26.0993C1.35569 27.461 1.35569 32.6808 1.35569 37.6738L1.35569 46.7518L0.677846 51.5177C0.225949 54.0142 0 58.3262 0 61.0496L0 65.8156L0.451898 66.4965L1.12974 67.1773L3.38923 64.9078L5.64872 62.6383L5.87467 53.1064C6.10062 47.8865 6.32657 40.8511 6.55251 37.6738L6.77846 32L7.68226 30.8652L8.58605 29.9574L8.3601 22.695L8.3601 15.4326L10.1677 13.844L11.9753 12.0284H13.7829L15.3645 12.0284L15.8164 10.6667L16.2683 9.53191L18.0759 9.07801L20.1094 8.62411L21.2392 9.75886L22.5949 10.8936L23.4987 9.98581L24.6284 9.07801L26.662 9.53191L28.6955 9.98581L30.0512 8.85106C30.955 8.17021 31.6328 7.48936 31.6328 7.03546C31.6328 6.58156 30.955 5.4468 30.2771 4.31205L28.6955 2.2695H26.436C25.3063 2.2695 23.2727 2.04255 21.917 2.04255C20.5613 1.8156 18.5278 1.8156 17.624 2.04255Z" fill="#CC0000"/>
<path d="M36.8296 21.3333L35.248 22.0142L29.5992 21.7872L23.9505 21.7872L22.5948 22.922L21.0132 24.2837L21.0132 26.7801V29.0496L22.1429 30.8652L23.2727 32.6808H24.6284H25.7581L26.6619 33.5886L27.5657 34.4964L27.3397 36.539L27.1138 38.5815L29.8252 39.0355L32.5366 39.2624L33.2144 41.5319L33.8923 43.8014H34.5701H35.4739L36.3777 45.3901L37.2815 46.7518H39.315H41.1226L42.0264 47.4326L42.7043 48.1135L46.5454 46.5248L50.3865 44.7092L51.5163 42.6667L52.872 40.3972L56.0352 39.9433L59.1985 39.4894L62.3618 36.312L65.2991 32.9078V31.5461C65.2991 30.8652 65.2991 29.5035 64.8472 28.5957L64.6213 27.0071H63.2656H61.9099V26.0993C61.684 25.6454 61.684 24.7376 61.458 24.5106C61.458 24.0567 61.458 23.3759 61.2321 22.695V21.7872L58.2947 22.2411C56.4871 22.695 54.2277 22.922 53.0979 22.922H51.2903L50.6125 22.0142L50.1606 21.1064L47.9011 21.5603L45.6416 22.0142L44.9638 21.5603C44.2859 21.3333 42.7043 20.8794 41.1226 20.8794L38.4112 20.6525L36.8296 21.3333Z" fill="#CC0000"/>
<path d="M219.396 22.0142C215.781 22.4681 212.392 22.922 211.714 22.922L210.81 23.3759V24.7376V26.3262H211.488H212.166L212.392 28.5957L212.618 30.8652L215.555 31.3191L218.266 32L221.43 31.5461L224.593 31.0922L226.626 29.2766L228.66 27.234H230.016L231.597 27.234L231.823 25.4184L232.049 23.3759L230.468 22.695C227.304 21.5603 225.949 21.5603 219.396 22.0142Z" fill="#CC0000"/>
<path d="M123.594 40.3971L122.238 41.078L122.464 47.2056L122.69 53.1063L124.272 52.8794L126.079 52.6524L126.757 50.156L127.661 47.6595V43.8014V39.9432L126.305 39.7163H124.724L123.594 40.3971Z" fill="#CC0000"/>
<path d="M102.807 46.0709L101.225 46.5248L100.095 48.3404L98.9656 50.156L99.6434 53.1064L100.321 55.8298L100.095 57.1915L99.8694 58.3262L100.999 59.461C101.677 60.1418 102.807 60.8227 103.711 60.8227L104.84 61.2766L105.066 64.6808L105.292 68.312L103.259 70.8085L100.999 73.5319L101.677 74.2127C101.903 74.6666 102.581 74.8936 103.033 74.8936H104.162L103.936 75.8014C103.711 76.2553 103.259 77.39 103.033 78.2978L102.581 79.6595L103.711 80.5673L104.84 81.4751L103.936 82.8369L103.259 84.1986H102.355H101.451L100.547 86.4681L99.8694 88.9645L100.547 90.5532L101.225 91.9149H103.033H104.84L104.614 92.3688C103.711 94.1844 102.807 96.9078 102.129 98.9503L101.225 101.447L101.451 113.248L101.451 125.05L102.129 125.504L102.581 125.957L101.903 127.092C101.677 128 101.225 129.362 101.225 130.269V131.858L102.129 132.766L102.807 133.447L101.903 134.582L100.999 135.716L101.451 140.482C101.903 142.979 101.903 146.156 101.903 147.291V149.333L102.581 150.241L103.485 151.149L103.936 156.369C104.162 159.092 104.162 163.177 104.162 165.22L103.936 169.305L104.84 171.801L105.744 174.525L104.84 176.113L103.936 177.702V186.326L103.711 195.177L104.614 196.539L105.518 197.901H106.648H107.552V198.808V199.943H108.229C108.681 199.943 109.585 199.035 110.489 197.901L111.845 196.085L111.393 191.546C110.941 186.553 110.941 186.326 111.167 180.426V176.794L110.489 175.433L109.811 174.071L110.489 173.39L111.167 172.709L111.393 165.674C111.619 161.816 111.845 156.596 112.071 154.326L112.748 150.014L111.845 149.56L111.167 149.106L112.071 146.837L112.974 144.567L112.071 142.071C111.619 140.709 111.167 139.121 111.167 138.213V136.624L110.037 135.716L108.907 134.808L109.359 132.993L109.811 131.404L108.681 128.454C108.004 126.865 107.1 124.823 106.648 123.915L105.97 122.326L106.648 121.418L107.326 120.511L107.326 114.61L107.552 108.709L108.229 103.943C108.681 101.447 109.359 98.7234 109.585 98.2695L110.263 97.1347V91.234C110.489 88.0567 110.489 85.1064 110.715 84.8794C110.941 84.4255 111.167 82.156 111.393 79.4326L111.845 74.6666L110.715 73.5319L109.585 72.1702L110.489 71.7163C110.715 71.4893 111.393 70.5815 111.845 69.4468L112.523 67.8581L111.845 64.9078L111.167 61.9574L110.263 61.5035L109.359 60.8227L110.263 60.1418L111.393 59.461L112.297 56.7376C112.748 55.3759 113.2 53.3333 113.2 52.1986L113.2 50.6099L110.941 48.7943C109.585 47.8865 108.455 46.7517 108.004 46.2978L107.552 45.39H105.97C105.066 45.39 103.711 45.617 102.807 46.0709Z" fill="#CC0000"/>
<path d="M62.136 48.3404C61.4581 48.7943 61.2322 49.2482 61.2322 49.4752C61.2322 49.7021 59.1986 52.1986 56.4872 54.695L51.9683 59.234L52.4202 63.3191L52.8721 67.6312L54.2277 69.6737C54.6796 71.0354 55.8094 72.3971 56.4872 73.078L57.617 74.4397L58.9727 73.9858C59.6505 73.7588 61.2322 72.3971 62.8138 71.2624L65.2992 68.9929L66.203 62.8652L67.1068 56.7376L66.6549 55.8298C66.429 55.3759 65.5252 54.0142 65.0733 53.3333L63.9435 51.7447L65.2992 50.383L66.6549 49.2482L65.9771 48.3404L65.2992 47.4326H63.9435C63.4916 47.4326 62.5879 47.8865 62.136 48.3404Z" fill="#CC0000"/>
<path d="M143.703 49.4752L142.348 50.6099L141.444 53.3334L140.54 56.2837L140.314 62.8653C139.636 71.9433 139.636 73.5319 140.54 82.383L141.444 90.0993L140.766 91.688C140.314 92.5958 139.862 94.1844 139.862 95.3192V97.3617L141.218 98.4965L142.574 99.6312L143.703 99.1773L144.833 98.7234L145.285 97.1348L145.737 95.5461L144.833 91.688L143.929 87.6029L144.607 86.6951L145.059 86.0142L145.285 76.9362L145.511 67.8582L146.641 61.7305L147.771 55.8298L146.867 54.922L146.189 54.0142L147.093 52.1986L147.771 50.383L146.867 49.2482C146.415 48.5674 145.963 48.1135 145.737 48.1135C145.285 48.1135 144.607 48.7943 143.703 49.4752Z" fill="#CC0000"/>
<path d="M18.9797 54.695L18.0759 56.5106L18.7538 64.4539L19.6576 72.3972L20.7873 74.6667L22.143 77.1631H23.2728C23.9506 77.1631 24.8544 77.3901 25.0803 77.844L25.5322 78.5248L25.9841 78.0709L26.662 77.617V78.9787V80.3404L27.7917 80.7943L28.6955 81.2482L30.5031 79.4326L32.3107 77.617V75.3475V72.8511L31.6329 72.3972L30.955 71.9433L32.0848 70.5816L32.9885 68.9929V67.4043V66.0426L34.7961 64.4539L36.6037 62.6383V61.5036V60.3688L35.474 59.461L34.3442 58.5532L32.5367 59.234L30.7291 60.1418L29.8253 59.234C29.3734 59.0071 28.9215 58.0993 28.9215 57.6454C28.9215 57.1915 28.2436 56.0567 27.5658 55.3759L26.436 53.7872L23.0468 53.3333L19.6576 52.8794L18.9797 54.695Z" fill="#CC0000"/>
<path d="M122.238 54.4681L120.883 55.149L120.883 58.7802V62.1844H122.012H123.142V63.3192C123.142 63.7731 122.464 64.6809 122.012 65.1348L120.883 65.8156L121.334 70.3546C121.56 72.6241 121.786 78.2979 121.786 83.0638L122.012 91.461L121.56 93.2766L120.883 95.0922L121.786 101.22L122.69 107.574L123.594 108.482L124.498 109.39L122.69 112.794L120.883 115.972L121.56 122.78L122.238 129.589L123.82 130.723L125.402 131.858L124.95 134.582C124.498 136.17 124.272 139.121 124.272 140.936C124.046 142.979 123.82 145.021 123.368 145.702L122.916 147.064H123.594H124.046V155.007L123.82 162.95L124.95 165.674L125.853 168.397L125.176 169.078L124.498 169.759L124.498 171.801V173.617L125.402 174.752L126.531 175.66L125.853 178.156C125.402 179.518 125.176 181.333 125.176 182.241V184.057L126.305 186.099L127.435 188.369V194.27L127.661 200.17L128.565 200.397L129.469 200.851L130.372 199.943L131.502 199.035L130.372 196.993L129.243 194.723L129.695 188.369L130.146 182.014L130.824 180.879L131.502 179.518L130.824 177.702C130.372 176.567 130.146 174.525 130.146 173.163V170.44L129.243 169.759L128.565 169.078L130.146 166.809L131.728 164.766L131.276 162.95L130.824 161.135H129.469C128.791 161.135 127.887 160.908 127.661 160.681L127.209 160.227L128.339 158.638C129.017 157.957 129.469 156.596 129.469 155.915V154.78L130.824 154.099C132.406 153.192 132.406 152.965 133.536 155.234L134.439 156.823H136.021H137.603L138.507 155.915L139.184 154.78L138.958 149.106L138.507 143.206L137.377 142.071L136.473 140.709L136.699 139.801L137.151 138.667L136.247 137.986C135.795 137.532 134.214 137.078 132.632 136.851L130.146 136.397V137.078V137.759L127.887 136.851L125.627 135.943L126.079 130.27C126.305 127.319 126.757 124.142 126.983 123.461L127.435 122.326H128.791H129.921L132.406 120.057L134.891 117.787V115.064V112.34L133.31 111.66L131.728 111.206L129.921 111.887L127.887 112.567L127.209 111.887L126.305 110.979L126.079 104.397C125.853 100.766 125.853 97.3617 125.627 96.9078C125.627 96.227 126.079 94.1844 126.531 91.9149L127.209 88.2837L126.757 86.4681C126.531 85.3333 126.305 81.0213 126.305 76.7092V68.9929L127.209 68.766L127.887 68.539V67.4043C127.887 66.7234 127.435 65.1348 126.983 64L125.853 62.1844V59.2341V56.5107L125.176 55.149C124.272 53.5603 123.82 53.5603 122.238 54.4681Z" fill="#CC0000"/>
<path d="M228.66 75.3475L228.434 76.4823L229.112 77.3901L230.016 78.2979L229.112 78.7518L228.434 79.2057V81.4752V83.5177L229.564 83.7447L230.468 84.1986L229.338 85.5603L227.982 86.695L228.208 89.6454C228.208 91.234 228.434 93.9575 228.886 96L229.338 99.4043L228.208 99.8582L227.079 100.312V101.674C227.079 102.582 227.305 103.262 227.756 103.489L228.434 103.943L227.982 105.305L227.531 106.894L228.66 107.801L229.79 108.482V111.433C230.016 112.794 229.79 118.241 229.564 123.234L229.338 132.085L228.66 133.22L227.756 134.128L228.208 137.078L228.66 139.801L230.016 140.255L231.372 140.709V142.979V145.475L230.016 147.518L228.886 149.787L229.564 151.83L230.468 153.872L229.79 154.78C228.886 156.142 229.112 159.546 230.016 161.135L230.694 162.496L229.79 166.809C229.338 169.305 228.886 173.39 228.886 176.113L228.66 180.879L229.338 181.333L229.79 181.56L228.886 183.376L227.756 184.965L228.886 187.007C229.564 188.142 230.468 189.277 230.92 189.504L231.598 189.957V196.085L231.824 202.213L232.727 202.894L233.405 203.801V210.156V216.738L234.083 218.78C234.535 219.915 235.665 221.504 236.343 222.411L237.698 223.773L239.958 224.227C242.895 224.908 245.38 226.27 246.51 228.085L247.64 229.674H249.222H250.803L251.707 228.539L252.611 227.404L253.515 219.461C253.967 215.149 254.418 209.475 254.418 206.752V202.213L253.289 201.078C252.159 199.716 250.803 199.716 248.996 200.624C248.318 200.851 246.962 201.532 246.058 201.986L244.025 202.894L242.669 202.213L241.313 201.305L239.054 197.901L237.02 194.723L237.472 192C237.924 190.638 238.376 189.277 238.602 188.823L239.054 188.142L238.828 181.106C238.828 169.532 238.602 166.355 238.15 165.22C237.924 164.766 237.246 162.496 236.794 160.454L235.891 156.596V150.468C235.665 147.291 235.439 139.348 235.213 132.766C234.761 126.411 234.535 119.603 234.535 117.56C234.535 115.745 234.309 113.702 233.857 113.248L233.405 112.567L234.083 110.298L234.761 107.801L234.083 107.121C233.631 106.213 232.501 100.539 232.501 97.5887C232.501 96.6809 232.953 93.5035 233.405 90.7801C234.083 86.4681 234.309 84.8794 234.083 81.9291C234.083 81.2482 234.309 79.8865 234.535 78.5248L234.987 76.2553L233.405 75.8014C232.727 75.5745 232.049 75.1206 232.049 74.8936V74.2128H230.468H229.112L228.66 75.3475Z" fill="#CC0000"/>
<path d="M175.788 76.7092L174.884 77.617V80.5674L174.658 83.7447L175.562 83.9717L176.466 84.1986L175.11 86.2412L173.981 88.2837L174.884 91.461L175.788 94.8653L175.11 97.5887L174.207 100.539L175.11 108.028C175.336 112.113 176.014 115.518 176.014 115.745C176.24 115.972 175.788 117.333 175.11 118.922L173.981 121.872L174.207 131.858C174.207 137.305 174.432 143.66 174.658 146.156L175.11 150.468L176.466 151.376C177.144 151.83 177.822 152.965 178.048 153.872L178.725 155.234L176.466 157.504L174.207 159.773L174.658 161.589L175.11 163.404L176.24 164.312L177.37 164.993L176.918 166.809L176.24 168.397L175.788 167.489L175.11 166.582L173.529 167.035L171.721 167.489L170.817 166.355L169.913 165.22H168.784H167.428L167.202 163.858L166.75 162.496H165.62H164.491L164.943 165.901C165.169 167.716 165.62 169.532 166.072 169.759L166.524 170.44L166.072 172.482L165.846 174.525L166.976 174.979L168.106 175.433L166.976 176.34L165.846 177.475V179.518V181.56L166.75 182.014C167.202 182.241 167.88 182.695 168.106 182.695C169.688 182.922 169.688 183.149 168.106 183.603L166.298 184.057L166.072 188.596L165.846 193.135L166.524 196.085L166.976 198.809L168.558 199.035L170.139 199.262L170.365 201.532L170.591 203.574L173.755 204.709L177.144 205.617L178.5 208.34C179.177 209.702 180.533 211.518 181.211 212.199L182.793 213.56L183.47 211.518L184.374 209.475L183.696 199.262C183.47 193.589 183.244 187.234 183.244 185.192L183.47 181.333L182.567 179.745L181.437 178.156V174.979L181.663 171.801L182.567 170.894L183.47 170.213L183.244 159.319L182.793 148.653L182.115 144.567C181.663 142.298 181.211 136.851 180.985 132.539L180.533 124.596L181.211 124.142L182.115 123.688V121.645C182.115 120.511 181.889 119.376 181.663 119.149C181.437 118.922 181.211 117.56 181.211 115.972V113.475L180.533 112.113L179.855 110.752L180.985 108.482L182.115 105.986L181.663 104.397L181.211 102.809V98.0426L181.437 93.2766L180.985 92.3688C180.759 92.1419 180.533 90.3263 180.307 88.5107V85.1064L180.759 83.9717L181.437 82.8369L180.307 81.4752C179.855 80.7943 179.403 79.8865 179.403 79.4326L179.177 78.5248L180.081 78.7518H180.759L181.211 77.844L181.437 77.1631H180.307H179.177V76.2553V75.5745H178.048H176.692L175.788 76.7092Z" fill="#CC0000"/>
<path d="M41.8004 78.0709C41.3485 78.9787 40.6706 80.5674 40.4447 81.4752C40.2187 82.383 39.7668 83.7447 39.5409 84.6525L39.3149 86.2412L40.4447 88.7376L41.5744 91.0071L42.7042 91.461C43.1561 91.688 44.0599 91.9149 44.5118 91.9149H45.4156L47.2231 89.1915L49.0307 86.6951V84.1986C48.8048 82.8369 48.5788 81.2483 48.3529 80.7944L47.675 79.8865L46.3194 80.3405L44.9637 80.7944L45.1896 78.7518L45.4156 76.7092L44.2858 76.4823L42.9301 76.2553L41.8004 78.0709Z" fill="#CC0000"/>
<path d="M2.03354 83.5178L1.35569 84.8795L1.58164 86.6951L2.03354 88.2837L0.903795 89.6454L0 90.7802L0 93.0497L0 95.3192H1.12974H2.03354L2.25949 96.227C2.25949 96.6809 2.48544 97.8157 2.48544 98.4965L2.48544 100.085L4.06708 100.312L5.64872 100.539V99.6313C5.64872 98.9504 5.64872 96.454 5.64872 93.7306L5.64872 88.7376L4.97087 88.0568L4.29303 87.6029L4.97087 85.3334L5.64872 83.2908L5.19682 82.61C4.97087 82.383 4.51898 81.9291 3.84113 81.9291H2.93733L2.03354 83.5178Z" fill="#CC0000"/>
<path d="M63.0398 88.2837L61.6841 89.6454L61.91 91.9149L62.136 94.4113L63.4917 94.6383L64.6214 94.8652L65.5252 93.2766L66.655 91.461L66.2031 89.1915L65.9771 86.922H65.0733C64.6214 86.922 63.7176 87.6028 63.0398 88.2837Z" fill="#CC0000"/>
<path d="M20.1095 94.6383L18.9797 96L19.2057 97.3617L19.4316 98.4964L20.7873 98.7234L22.369 98.9503L23.2728 97.5886L23.9506 96L23.4987 94.6383L23.0468 93.2766H22.143C21.6911 93.2766 20.7873 93.9574 20.1095 94.6383Z" fill="#CC0000"/>
<path d="M57.617 102.808L56.4873 103.489L55.5835 106.667L54.6797 109.617L55.1316 110.071C55.3575 110.298 56.7132 110.525 58.0689 110.525H60.7803L61.2322 112.567L61.91 114.61L62.8138 115.291C63.2657 115.518 64.1695 115.972 64.6214 115.972H65.5252L65.2993 112.567L64.8474 109.163L64.1695 108.936L63.2657 108.709V107.801C63.2657 106.44 60.3284 101.901 59.4246 101.901C58.9727 101.901 58.2949 102.128 57.617 102.808Z" fill="#CC0000"/>
<path d="M33.4403 104.397C32.9884 105.305 32.3106 106.213 32.3106 106.667C32.3106 107.121 31.6327 108.709 30.9549 110.071L29.3732 112.34L29.8251 113.475L30.277 114.61L28.4695 115.291L26.6619 115.972V117.106V118.468L25.0802 120.057C24.1764 120.965 22.3688 122.78 20.7872 124.142L18.3018 126.638L18.7537 131.631L19.2056 136.624L19.8834 137.305L20.7872 137.759L23.2726 135.035C24.6283 133.447 26.21 132.085 26.4359 132.085C26.6619 132.085 28.2435 130.723 30.0511 128.681C34.5701 123.915 35.022 123.461 35.4739 121.645L35.9258 120.057H36.6036H37.2815V118.014L37.2815 115.972L39.089 114.837L40.8966 113.475L41.5745 111.887L42.2523 110.298L41.8004 108.028L41.3485 105.986L40.2188 105.532C39.5409 105.305 38.1853 104.851 37.2815 104.397C36.3777 103.943 35.2479 103.489 35.022 103.489C34.796 103.262 34.1182 103.716 33.4403 104.397ZM21.0131 128.908C21.0131 129.135 21.0131 129.362 20.7872 129.362C20.5612 129.362 20.3353 129.135 20.3353 128.908C20.3353 128.681 20.5612 128.681 20.7872 128.681C21.0131 128.681 21.0131 128.681 21.0131 128.908Z" fill="#CC0000"/>
<path d="M248.995 109.39L247.64 109.617L247.188 110.752L246.736 111.66L247.414 113.248L248.092 114.837L246.962 117.56L246.058 120.511L246.51 122.099L246.962 123.688L248.318 124.142L249.447 124.369L251.029 123.688C251.707 123.234 252.837 122.099 253.514 121.191L254.644 119.376L253.966 118.695L253.514 117.787L253.74 114.61L253.966 111.433L252.611 110.298C251.933 109.39 251.255 108.936 251.029 108.936C250.803 108.936 249.899 109.163 248.995 109.39Z" fill="#CC0000"/>
<path d="M49.257 120.738L48.5791 122.099V124.596V127.092H49.257H49.9348V130.269C49.9348 131.858 49.9348 135.489 49.9348 138.213C49.9348 140.936 49.9348 143.433 49.9348 143.887C49.9348 144.113 50.1608 147.064 50.3867 150.241L50.8386 155.915L49.9348 157.73L48.8051 159.319V167.716C48.5791 172.482 48.5791 179.291 48.5791 182.922V189.73L49.257 190.411L49.7089 191.092V194.496V197.901L50.8386 199.489L51.7424 201.078L51.5164 203.348L51.2905 205.617L51.9683 206.525L52.6462 207.433L53.0981 213.106C53.324 216.511 53.55 219.234 53.7759 219.688L54.2278 220.369H55.8095H57.3911L57.843 221.73L58.2949 223.092L60.7803 224.227L63.4917 225.589L64.1696 226.95L65.0734 228.085H66.2031H67.1069V222.411C66.881 219.234 66.881 212.879 66.881 208.567V200.851L65.7512 199.716L64.6215 198.355L65.5253 196.312L66.2031 194.27L67.5588 193.589L68.9145 192.681L70.0442 193.589L70.948 194.27L73.8854 194.043L77.0487 193.816L76.8227 196.085L76.5968 198.355L77.5006 200.17C78.4044 201.759 78.6303 203.348 78.6303 210.383L78.8563 214.695L79.5341 216.284C80.2119 217.191 80.8898 218.326 81.3417 219.007L82.2455 220.142L81.3417 220.596L80.2119 221.05V223.319C80.2119 224.681 80.2119 228.085 79.986 231.035C79.76 233.986 79.5341 238.071 79.5341 240.34V244.426L77.7265 245.56L75.9189 246.695H67.5588H58.9728L57.3911 248.057L55.5835 249.418L54.6797 248.965C54.2278 248.511 52.1943 248.057 50.1608 247.603L46.7715 246.922L43.6082 247.376L40.445 247.83L39.5412 247.149L38.6374 246.468L36.6038 246.922L34.5703 247.376L33.8924 248.511L33.2146 249.645L33.6665 251.915L34.1184 253.957H42.4785L50.8386 254.184L53.0981 252.823L55.1316 251.688L57.3911 252.823L59.4247 254.184L63.9436 254.411L68.4626 254.865L70.4961 254.184L72.5297 253.73L74.3373 254.865L76.3708 256L78.8563 254.638C80.2119 253.957 82.4714 253.277 84.279 252.823L87.2164 252.369L90.1537 253.277L93.091 254.411L94.8986 253.05L96.9322 251.461L98.0619 252.823L99.4176 254.184L100.321 253.504C100.773 253.05 102.129 251.007 103.033 248.965C103.937 246.922 105.292 244.879 105.97 244.426L106.874 243.518L107.552 244.426L108.23 245.56L108.004 246.468L107.552 247.376L108.681 249.418C109.359 250.553 110.263 252.142 111.167 252.823L112.523 254.184L114.33 253.504L116.138 252.596L117.042 250.553C120.431 242.156 122.464 238.298 122.916 238.298L123.594 238.071L124.046 239.66L124.498 241.475L126.305 241.929L128.339 242.156L129.695 244.426L131.05 246.695L132.858 247.603C133.762 248.057 135.569 248.738 136.699 248.965L138.733 249.418L140.088 251.007C140.992 251.915 142.348 253.05 143.252 253.504L144.833 254.411H149.578L154.323 254.638L156.357 253.504L158.616 252.596L159.746 250.099C160.424 248.738 161.328 246.695 161.779 245.56L162.683 243.518L160.65 241.929C159.52 241.021 157.712 239.887 156.583 239.433L154.549 238.525L153.193 239.433C152.29 239.887 151.612 240.113 151.612 240.113C150.708 238.979 149.804 236.482 149.804 235.121V233.532L151.838 231.035L153.645 228.766L156.131 228.539L158.616 228.085L158.842 227.404L159.068 226.723H161.328H163.813L164.717 225.589C165.395 225.135 166.072 224.681 166.524 224.681H167.428V223.773V222.865L169.236 224.681C170.366 225.816 172.173 227.177 173.529 227.858L175.788 228.993L177.37 228.085C179.403 226.95 183.245 222.411 183.922 220.369L184.374 218.78L183.471 218.099C183.245 217.645 182.793 216.738 182.793 216.057V214.922L181.663 214.468L180.533 214.014L179.178 215.149L177.596 216.057L172.851 216.511L168.106 216.965V217.872L167.88 218.553L167.202 217.418L166.524 216.057H164.491H162.457L162.005 217.191L161.553 218.099L160.65 217.872L159.52 217.418L158.616 218.78C157.938 219.461 157.035 221.05 156.357 222.411L155.227 224.681L152.29 224.227L149.126 223.773L146.867 225.362L144.607 226.95L143.252 226.043C142.574 225.816 141.444 225.362 140.766 225.362H139.636L138.055 224C137.151 223.319 136.473 222.411 136.473 222.184C136.473 221.957 135.795 220.823 134.892 219.915L133.536 218.099V215.376V212.652H133.084H132.406L132.632 210.156L133.084 207.887L131.954 205.617L130.824 203.348H129.469H128.113L126.531 205.617L124.95 207.887L125.402 214.922L125.628 222.184L124.95 223.773L124.272 225.362L125.176 226.043L126.305 226.723L124.724 227.858L123.142 228.766L122.238 231.943L121.561 235.121H120.883C120.657 235.121 120.205 234.894 119.979 234.44L119.527 233.759H117.719H116.138L116.364 231.716L116.816 229.674L116.138 226.043C115.686 223.773 115.234 220.596 115.234 218.553L115.008 215.149L112.071 212.199L109.133 209.021H107.778H106.422L105.066 212.199L103.937 215.376L104.163 219.461V223.546L103.259 229.674C102.807 232.851 102.129 237.163 101.451 238.979C100.999 240.794 100.547 242.61 100.547 243.291V244.426L97.384 242.61C95.5765 241.702 93.5429 240.567 93.091 240.113L92.1872 239.206V236.936V234.667L91.0575 233.532L89.9277 232.397L90.8315 228.766C91.2834 226.723 91.9613 224.681 92.4132 224L93.091 223.092L93.317 215.149L93.5429 206.979L92.8651 206.525L92.1872 206.298V204.255C92.1872 203.121 91.7353 201.305 91.5094 200.397L90.8315 198.582L91.2834 196.766L91.9613 194.95L90.3796 188.142L88.572 181.106L89.0239 171.574L89.4758 162.043L87.8942 158.184L86.5385 154.326L87.2164 153.645L87.8942 152.965V151.149V149.333L86.5385 147.745C85.8607 147.064 84.9569 146.156 84.505 146.156C84.0531 146.156 83.3752 145.702 83.1493 145.021L82.4714 143.887L80.2119 144.567L77.9525 145.021V145.702C77.9525 146.156 77.9525 149.333 77.9525 152.511L78.1784 158.638L79.0822 159.319L79.76 160L79.5341 166.809L79.0822 173.39L77.9525 176.113C77.2746 177.475 76.5968 179.291 76.5968 179.745V180.879L74.1113 183.376L71.6259 185.872L70.7221 185.645C70.0442 185.418 68.9145 183.83 67.7848 182.241L65.9772 179.518H65.2993H64.3955L64.6215 174.298C64.6215 171.574 64.8474 168.17 65.0734 167.035C65.2993 165.901 65.7512 162.723 65.9772 160L66.655 155.007L65.7512 151.376L64.8474 147.518L63.9436 146.837L63.0398 146.383L61.9101 146.61C61.4582 146.837 60.3285 146.837 59.4247 146.61L57.843 146.156L57.3911 144.567L56.9392 143.206L57.6171 142.525L58.2949 141.844V139.121V136.624L59.8766 135.489L61.2322 134.355V132.766C61.2322 132.085 60.7803 130.723 60.3285 130.043L59.6506 128.454L58.2949 128.908L56.9392 129.362L56.4873 126.865L56.0354 124.369L54.6797 123.688L53.55 123.007V121.191V119.376H51.7424H49.9348L49.257 120.738Z" fill="#CC0000"/>
<path d="M3.84128 123.688L2.71154 126.638L3.16344 134.128L3.61533 141.844L2.93749 142.298L2.03369 142.752L2.03369 145.021C2.03369 146.156 2.48559 147.745 2.93749 148.426L3.61533 149.787L4.06723 173.617C4.06723 186.78 4.51913 201.532 4.97103 206.752L5.42292 216.057L6.55267 217.872L7.45646 219.688L9.49 216.965L11.2976 214.241V212.426C11.0716 211.518 11.2976 210.156 11.5235 209.248L11.9754 207.887L13.1052 207.433L14.009 206.979L17.6242 209.475C19.6577 210.837 21.4653 211.972 21.9172 211.972H22.595V215.149C22.595 216.965 22.1431 220.369 21.6912 222.638L20.7874 226.496L22.1431 228.539L23.2729 230.355H25.7583H28.0178L29.1475 228.766L30.2773 227.177V225.135V223.319L31.633 222.865L33.2146 222.411L32.9887 220.823L32.5368 219.007L34.5703 219.234H36.6039L38.4114 217.418L40.219 215.83L39.7671 212.652C39.5412 210.837 39.0893 205.39 38.8633 200.397L38.6374 191.319L37.5076 189.05L36.6039 186.553L35.0222 186.099L33.6665 185.645L30.5032 186.553L27.5659 187.234L26.2102 186.553L24.6286 185.872L22.821 186.099L21.2393 186.553L20.3355 189.277C19.8836 190.638 19.2058 192.227 18.9798 192.454C18.7539 192.908 18.302 194.723 18.0761 196.539L17.6242 199.943H16.2685C15.5906 199.943 14.4609 199.716 13.783 199.489L12.6533 199.035V198.128L12.6533 196.993L11.5235 196.539L10.6197 196.312V195.177C10.6197 194.723 10.1678 193.589 9.49 192.681L8.58621 191.092L8.36026 176.567L8.13431 162.27L7.23051 159.773L6.32672 157.277L6.32672 139.121L6.55267 120.738H5.87482C5.42292 120.738 4.74508 122.099 3.84128 123.688Z" fill="#CC0000"/>
<path d="M247.414 137.305V142.752L248.092 144.114L248.996 145.475H248.092H247.414V147.745C247.414 149.106 247.64 150.922 247.866 151.83L248.318 153.418H249.448H250.351L250.125 156.142L249.674 158.865L250.803 159.773L251.707 160.454V162.27V163.858L252.385 164.312C252.837 164.539 253.063 164.993 253.063 165.22V165.901L251.707 165.447L250.351 165.22L250.125 165.901C249.899 166.128 249.448 167.716 249.222 169.305L248.77 172.255L250.351 174.071L252.159 175.66L251.933 177.248C251.707 178.156 251.255 179.291 251.029 179.745L250.351 180.653L250.577 182.241C250.803 183.376 250.803 184.284 251.029 184.511V185.192H252.837H254.418L255.322 183.149L256 181.333L255.548 168.851C255.322 162.043 255.096 151.83 255.096 145.929L254.87 135.489L253.289 134.128L251.707 132.993L250.577 133.22L249.448 133.674L248.544 132.766L247.414 131.858V137.305Z" fill="#CC0000"/>
<path d="M34.3441 140.255L33.4403 142.071H32.0847H30.729L27.7916 145.021C26.21 146.837 24.1764 148.653 23.0467 149.333L21.2391 150.695L20.3353 153.645L19.6575 156.369L20.1094 159.773C20.3353 161.362 20.5613 163.404 20.5613 164.312C20.5613 164.993 20.3353 169.759 20.3353 174.752L20.3353 183.83L21.0132 184.738L21.691 185.418L24.4024 184.057L27.1138 182.468L27.3397 181.106L27.7916 179.518L30.503 177.248C32.0847 175.887 34.3441 174.298 35.2479 173.617L37.0555 172.482L37.5074 169.078L37.9593 165.674L37.0555 164.766L36.3777 163.858L36.8296 155.007C37.0555 150.014 37.5074 144.34 37.7334 142.752L38.1853 139.348L36.6036 138.894L35.022 138.667L34.3441 140.255Z" fill="#CC0000"/>
<path d="M194.542 150.922C194.542 151.603 194.542 153.191 194.316 154.553C194.316 155.688 193.864 157.277 193.412 158.184C192.96 158.865 192.734 160 192.734 160.454V161.362L194.768 162.723L196.801 163.858L197.479 162.496C198.383 160.681 198.383 158.638 197.479 153.872L196.576 149.787H195.672H194.768L194.542 150.922Z" fill="#CC0000"/>
<path d="M213.295 154.78C212.392 155.007 211.488 155.688 211.488 155.915C211.488 156.142 211.262 160.681 211.262 165.674L210.81 174.752L212.392 177.929L213.973 180.879L212.618 181.787L211.262 182.922L211.488 186.78C211.488 188.823 211.714 191.092 211.94 191.319C212.166 191.773 213.295 192.681 214.425 193.362L216.685 194.27L217.137 194.043C217.363 193.816 217.589 191.092 217.589 188.142L217.814 182.695L216.685 181.333L215.555 180.199L216.459 179.064L217.363 178.156L216.911 176.794L216.233 175.66V165.447V155.461L215.555 154.78L214.877 154.099L213.295 154.78Z" fill="#CC0000"/>
<path d="M195.22 165.901C194.768 166.128 194.316 166.355 193.864 166.355H193.186L192.508 168.397L191.831 170.44L192.96 171.348L194.09 172.255V179.972V187.915L195.22 188.596L196.124 189.504L197.705 189.277L199.287 189.05L199.513 187.688L199.739 186.326L198.609 185.418L197.253 184.511L198.157 183.376L199.287 182.241L198.383 181.333L197.479 180.652V178.61V176.794L198.383 176.34L199.061 175.887L198.609 174.298C198.157 173.39 197.931 171.121 197.931 169.305V165.674L196.801 165.447C196.124 165.447 195.446 165.447 195.22 165.901Z" fill="#CC0000"/>
<path d="M144.155 171.348L143.251 172.482V175.433L143.477 178.383L144.607 179.518L145.511 180.652L144.607 185.872L143.703 191.092L143.929 196.312C143.929 199.262 144.155 202.667 144.381 204.028L144.833 206.298L146.641 207.433L148.448 208.567L150.482 207.66L152.515 206.752L152.967 205.163L153.419 203.348L152.967 200.851C152.741 199.262 152.289 197.22 152.063 196.085C152.063 194.95 151.612 191.773 151.386 189.05L150.708 184.284L151.386 183.376L151.838 182.241L151.16 179.064C150.708 177.021 150.256 174.979 149.804 174.071C149.352 173.39 148.9 172.255 148.674 171.574L148.448 170.213H146.641H145.059L144.155 171.348Z" fill="#CC0000"/>
<path d="M213.296 197.901L211.262 201.078L211.488 206.525L211.714 212.199L213.747 214.014L215.781 215.83V217.418V219.007L213.973 221.73L212.392 224.681V226.496V228.539L214.425 230.128L216.459 231.716L216.007 235.347C215.781 237.39 215.329 239.433 215.103 239.886C214.651 240.113 214.425 241.021 214.425 241.475V242.61L213.07 243.518L211.714 244.426L211.488 242.837L211.036 241.475L209.906 241.702L208.777 242.156V238.752V235.347L207.873 234.667C207.195 234.213 206.743 233.078 206.291 231.943L206.065 230.355H205.161H204.484V228.993C204.484 228.312 204.032 227.177 203.58 226.496L202.45 225.135L203.128 223.773C203.58 223.092 203.806 221.73 203.806 220.823V219.007L202.902 218.553L201.998 218.099L202.224 216.738L202.676 215.376L201.546 214.241C201.094 213.56 200.417 212.426 200.191 211.745C199.965 211.064 199.513 210.61 199.061 210.61C198.157 210.61 197.479 212.426 197.027 216.965C195.898 229.447 194.994 234.667 193.186 238.525C192.508 240.113 191.83 241.702 191.83 242.156V242.837L190.023 243.291L187.989 243.518L186.86 242.837L185.73 242.383L184.148 242.837L182.341 243.518L180.533 242.383L178.725 241.475L174.884 241.929L170.817 242.383V243.064C170.817 243.291 170.139 243.745 169.236 243.972L167.88 244.426L168.784 245.333L169.687 246.468H171.269H172.851L173.755 247.603C174.206 248.284 175.788 249.191 177.144 249.872L179.403 250.78L185.73 251.234L192.282 251.688L193.638 252.596L194.994 253.504L197.479 253.05C198.835 252.823 200.417 252.369 200.642 252.142C201.094 251.688 201.998 251.461 202.676 251.461H204.032L205.839 248.284L207.647 245.106L208.325 245.333C208.777 245.56 209.454 246.241 209.906 246.922C210.81 248.738 211.714 249.872 213.747 251.915L215.555 253.73L225.497 253.277L235.439 252.823L238.15 251.688L240.861 250.326L245.606 244.426C248.092 241.021 250.351 238.071 250.351 237.844C250.351 237.617 249.899 237.39 249.221 237.39H248.092L247.64 238.525C247.414 239.206 246.51 240.794 245.606 242.156L243.799 244.426H241.765H239.732L239.28 245.106L239.054 245.787H237.02H234.987L234.535 244.652L234.083 243.745H232.727H231.371L231.146 241.702L230.92 239.886L227.982 239.886L225.045 240.113L224.819 238.752L224.367 237.39H225.045H225.723V236.255C225.723 235.574 225.045 234.213 224.141 233.078L222.559 231.035L222.334 228.085L222.108 224.908L220.978 223.319L220.074 221.73L220.752 219.234L221.43 216.965L220.978 215.376C220.752 214.695 220.3 214.014 220.074 214.014H219.622L219.17 210.61L218.718 207.433L218.041 207.206L217.137 206.752L217.589 206.071L218.041 205.39L217.137 203.574L216.459 201.532L217.137 199.943L218.041 198.355L217.589 196.766L217.137 194.95H216.233H215.103L213.296 197.901Z" fill="#CC0000"/>
<path d="M7.00426 224.908L5.87451 226.723L6.77831 236.028L7.45615 245.333L9.48969 246.922C10.3935 247.83 11.7492 248.738 11.9751 248.738C12.427 248.738 12.8789 248.057 13.3308 247.376L14.0087 246.014L13.3308 244.199L12.8789 242.383L11.5232 241.929L10.3935 241.475L10.8454 240.794L11.2973 240.113L10.3935 236.028C9.71564 233.986 9.0378 229.901 8.5859 227.404L8.134 222.865L7.00426 224.908Z" fill="#CC0000"/>
<path d="M42.9303 228.993L42.0266 231.489L39.993 232.624L37.9595 233.759V235.121V236.482L39.0892 237.39L39.993 238.298L43.1563 237.39L46.0936 236.709L48.5791 237.163L51.0645 237.617L52.1942 238.525L53.324 239.66L54.4537 239.206L55.5835 238.752L56.2613 237.163L56.7132 235.574L55.8094 233.532L54.9056 231.489L53.098 230.808C51.9683 230.355 50.6126 229.674 50.1607 229.447L49.2569 228.766L48.805 229.22L48.3531 229.674L47.2234 228.085L46.3196 226.723H44.9639H43.6082L42.9303 228.993Z" fill="#CC0000"/>
<path d="M17.624 246.695C17.624 247.149 18.0759 248.284 18.5278 248.965L19.6576 250.326V249.645C19.6576 249.418 19.4316 248.284 19.2057 247.376C18.7538 245.787 17.624 245.106 17.624 246.695Z" fill="#CC0000"/>
</svg>
