<svg width="1958" height="1952" viewBox="0 0 1958 1952" fill="none" xmlns="http://www.w3.org/2000/svg">
<g clip-path="url(#clip0_11_197)">
<path d="M1564.72 0.677002C1564.08 1.31201 1559.64 2.20081 1554.69 2.45483C1548.21 2.96277 1545.8 3.72461 1545.55 5.12146C1544.78 9.43896 1547.2 10.4548 1559.89 10.9628C1566.88 11.2167 1578.82 12.8676 1586.56 14.5183C1603.83 18.4548 1608.15 18.4548 1613.1 14.7722C1618.81 10.5818 1621.61 10.8358 1620.59 15.6611C1619.83 19.0897 1620.47 20.2325 1626.05 25.058C1630.12 28.4866 1633.8 30.5183 1636.08 30.5183C1638.37 30.5183 1640.78 31.9152 1642.94 34.4548C1644.85 36.7405 1646.88 38.5183 1647.51 38.5183C1649.55 38.5183 1659.83 50.9628 1660.72 54.3912C1661.99 59.3436 1657.16 62.5183 1648.66 62.5183C1641.67 62.5183 1627.2 65.1849 1621.23 67.5977C1616.15 69.5023 1598.75 69.2484 1590.24 67.0897C1586.05 66.0739 1578.69 65.1849 1573.99 65.3119C1567.64 65.4388 1564.21 64.9309 1561.67 63.1532C1557.99 60.7405 1554.43 60.7405 1527.89 63.6611C1521.93 64.296 1516.21 64.1691 1514.05 63.4071C1511.51 62.6453 1508.59 62.6453 1505.04 63.7881C1500.97 64.9309 1499.2 64.9309 1496.78 63.5342C1493.61 61.7563 1476.59 59.7246 1465.93 59.8516C1461.61 59.8516 1457.04 60.9945 1452.34 63.4071C1445.61 66.8357 1445.1 66.8357 1442.82 64.804C1440.15 62.3912 1430.62 61.6294 1428.47 63.7881C1426.82 65.3119 1411.58 67.3436 1404.09 67.0897C1400.78 66.9626 1397.74 66.2008 1397.23 65.3119C1395.58 62.6453 1385.55 65.9468 1383.01 69.8833C1380.59 73.5659 1377.67 74.0739 1374.5 71.2802C1372.34 69.2484 1350.37 68.6135 1316.47 69.5023C1301.1 69.8833 1300.97 70.0103 1284.59 79.5341C1280.53 81.9468 1274.31 81.5658 1269.86 78.5182C1264.78 75.2167 1260.97 75.2167 1249.8 78.6453C1239.89 81.6929 1230.88 82.2008 1226.69 79.915C1222.5 77.7563 1214.75 78.2643 1204.47 81.3119C1197.23 83.5977 1189.99 84.3595 1171.83 84.9944C1151.64 85.7563 1147.83 86.2643 1144.4 88.423C1137.16 93.2484 1131.83 95.5341 1126.12 96.296C1110.37 98.4547 1109.23 98.8357 1104.66 103.28C1102.12 105.82 1099.45 107.852 1098.82 107.852C1098.31 107.852 1095.51 106.328 1092.85 104.55C1085.61 99.5975 1078.37 99.9785 1057.16 106.455C1054.63 107.217 1051.07 107.852 1049.42 107.852C1047.77 107.852 1043.83 108.994 1040.78 110.391C1037.74 111.788 1030.37 113.312 1024.53 113.947C1018.69 114.455 1011.45 115.725 1008.53 116.867C1005.23 118.01 996.593 118.899 986.562 119.153C976.657 119.407 964.72 120.677 957.228 122.328C925.355 128.931 918.879 129.82 909.482 128.296C900.594 126.899 897.546 127.026 866.562 130.455C854.752 131.852 848.911 131.724 829.863 129.693C796.467 126.391 795.07 126.518 781.736 132.867C777.8 134.772 776.911 134.645 766.371 130.455C756.213 126.518 753.292 126.01 734.498 124.994C723.07 124.486 711.768 123.344 709.229 122.455C703.133 120.423 666.181 120.677 654.245 122.709C647.514 123.852 640.657 123.852 626.054 122.709C598.499 120.55 566.626 120.677 557.229 123.217C551.514 124.613 538.943 125.248 505.673 125.629C468.086 126.01 461.102 126.391 456.53 128.423C452.721 129.947 447.515 130.709 439.134 130.582C432.53 130.582 421.483 131.724 414.499 133.121C390.118 137.82 343.515 141.121 293.229 141.756C273.673 141.883 257.8 142.645 255.896 143.407C253.991 144.169 249.166 145.82 245.229 146.963C241.166 148.232 233.927 150.391 229.229 151.788C224.404 153.185 217.039 155.09 212.848 155.851C208.658 156.613 202.435 158.772 198.88 160.55C195.324 162.328 190.753 163.851 188.467 163.851C186.308 163.851 181.483 164.867 177.801 166.01C174.118 167.153 168.15 168.55 164.467 169.185C160.785 169.82 154.816 170.963 151.134 171.851C141.737 173.883 120.912 175.915 109.483 175.788C103.515 175.788 98.1816 176.423 95.5149 177.693C84.5943 182.772 77.7371 184.804 75.1975 183.788C73.6737 183.28 69.6102 180.105 66.1816 176.804C59.0705 170.328 58.4356 167.153 61.9911 157.883C63.134 154.963 65.4197 148.359 67.1975 143.28C71.5149 131.09 77.6102 121.947 85.6101 115.725C89.1657 112.804 93.4832 108.486 95.007 106.201C96.6578 103.788 101.737 98.9626 106.309 95.5341C113.293 90.2008 115.578 89.1849 120.531 89.1849C123.705 89.1849 126.753 88.5499 127.134 87.7881C127.642 87.1532 129.293 86.5182 130.943 86.5182C132.467 86.5182 137.928 84.9944 142.88 83.3436C147.832 81.5658 152.912 80.423 154.308 80.804C155.705 81.0579 159.007 80.423 161.801 79.2802C171.197 75.3436 182.626 74.3278 194.689 76.2325C200.785 77.2484 207.007 78.6453 208.531 79.4071C212.721 81.5658 246.372 81.4388 249.546 79.1532C251.451 77.8833 253.102 77.7563 255.515 78.6453C257.673 79.5341 263.134 79.5341 270.753 78.6453C279.261 77.6294 283.705 77.7563 286.245 78.7722C297.292 83.3436 337.292 84.4865 345.673 80.5499C349.483 78.6453 351.134 78.6453 355.705 79.915C360.15 81.3119 361.546 81.1849 364.086 79.5341C365.737 78.5182 371.578 77.2484 376.911 76.7405C382.372 76.2325 387.959 75.2167 389.356 74.3278C391.388 73.3119 394.181 73.5659 400.53 75.2167C410.181 77.8833 415.134 77.1215 416.276 73.058C416.784 70.7722 417.546 70.3912 419.451 71.2802C420.721 71.915 423.896 72.296 426.562 72.296C433.292 72.1691 463.388 68.2325 471.134 66.3278C474.816 65.4388 485.991 64.677 495.895 64.55C505.673 64.423 517.483 63.5342 521.8 62.6453C526.245 61.7563 532.594 61.3754 535.895 61.8833C539.07 62.2643 551.26 62.6453 562.689 62.5183C576.403 62.3912 583.895 62.7722 584.403 63.7881C585.546 65.6929 621.229 65.6929 621.229 63.7881C621.229 61.8833 627.959 62.2643 635.07 64.677C639.895 66.3278 643.705 66.5818 650.943 65.9468C662.372 64.804 656.276 64.9309 710.498 65.3119C735.006 65.4388 770.181 65.3119 788.467 64.804C806.879 64.423 828.086 64.677 835.832 65.3119C843.578 65.9468 869.101 66.7087 892.594 66.9626C924.847 67.3436 935.895 67.8516 938.054 69.2484C940.593 70.7722 941.355 70.5182 945.165 67.3436C948.212 64.9309 950.244 64.0421 951.641 64.804C955.451 66.5818 982.625 65.1849 986.054 62.8992C988.085 61.6294 990.498 61.2484 993.165 61.8833C995.451 62.3912 999.006 62.1373 1000.91 61.2484C1002.94 60.4866 1017.42 59.2167 1033.16 58.4547C1063.13 57.058 1082.69 55.4071 1084.97 54.0104C1085.74 53.5024 1090.69 52.7405 1096.02 52.3595C1101.74 51.9786 1106.69 50.8357 1107.96 49.8198C1109.1 48.677 1113.04 47.5342 1116.59 47.0262C1120.15 46.5183 1123.7 45.7563 1124.47 45.2484C1125.23 44.6135 1132.47 42.9628 1140.47 41.439C1148.59 39.7881 1160.02 37.6294 1165.86 36.4866C1171.7 35.3436 1179.45 33.8198 1183.01 33.1849C1186.56 32.55 1190.12 31.4072 1191.01 30.7722C1191.77 30.1373 1195.45 29.1215 1199.13 28.7405C1206.5 27.7246 1212.34 25.9469 1220.85 22.2643C1224.66 20.6135 1230.75 19.5977 1238.88 19.2167C1253.36 18.7087 1255.64 17.9469 1257.29 13.3755C1258.43 10.4548 1258.18 9.43896 1256.02 7.78821C1252.59 4.99451 1220.47 3.72461 1175.13 4.61353C1157.61 4.99451 1134.12 5.37549 1123.2 5.62939C1109.74 5.88342 1102.12 6.51831 1099.96 7.78821C1095.01 10.4548 1081.67 11.7246 1049.55 12.6135C1029.99 13.1215 1018.31 13.8834 1015.51 15.0262C1009.04 17.6929 991.641 19.5977 962.562 21.1215C935.006 22.5183 927.514 23.2802 923.197 25.1849C915.705 28.2325 903.387 29.5024 888.911 28.4866C880.657 27.8517 866.054 27.5977 856.53 27.7246C843.705 27.9786 837.609 27.4707 833.165 26.0739C828.467 24.4231 821.102 24.0421 799.895 24.0421C777.546 24.1691 771.451 23.7881 766.498 22.0104C745.927 14.3914 746.689 14.5183 725.737 15.4072C706.054 16.1691 700.467 16.1691 689.546 15.6611C685.864 15.5342 682.943 16.1691 681.419 17.6929C678.245 20.4866 676.467 20.4866 671.26 17.312C667.324 14.7722 655.768 12.4866 638.879 10.9628C631.768 10.3279 629.737 10.5818 623.768 13.6294C614.626 18.2008 609.165 23.1532 609.165 26.8357C609.165 29.8834 606.245 32.1691 594.562 38.1373C591.26 39.7881 587.832 41.1849 586.943 41.1849C585.165 41.1849 577.419 32.0421 573.737 25.3119C570.562 19.7246 558.626 14.0104 552.784 15.2802C550.118 15.7881 548.213 15.4072 546.435 13.8834C544.276 11.8517 541.229 11.5977 521.419 12.1056L498.816 12.4866L490.943 17.8199C486.626 20.7405 481.546 24.4231 479.515 25.9469C476.213 28.7405 474.943 28.8676 462.118 28.2325C449.038 27.4707 448.022 27.7246 442.943 30.8993C440.022 32.677 435.832 36.1056 433.8 38.3912C431.642 40.677 429.229 42.5818 428.467 42.5818C427.705 42.5818 425.419 44.1056 423.261 45.8833C418.689 49.8198 414.499 49.4388 409.165 44.7405C407.388 43.0897 402.562 39.5342 398.499 36.8674C394.435 34.0739 389.356 30.5183 387.197 28.7405C384.911 26.9628 378.435 22.8993 372.594 19.7246L362.054 14.1373L344.784 13.6294C330.943 13.3755 327.007 13.6294 324.467 15.4072C321.927 16.931 316.467 17.5659 300.467 17.9469C289.165 18.2008 279.261 18.7087 278.626 19.0897C277.991 19.4707 268.213 20.4866 256.912 21.1215C243.705 22.0104 233.166 23.4072 227.197 25.1849C221.737 26.7087 213.864 27.8517 208.531 27.8517C203.324 27.8517 195.832 28.7405 191.896 29.8834C179.451 33.3119 144.15 30.3914 117.229 23.6611C113.928 22.8993 107.578 22.2643 103.261 22.3914C95.1339 22.6453 91.5784 24.4231 84.0863 32.1691C66.1816 50.5818 60.9753 55.2802 55.5149 58.0739C51.9594 59.7246 49.1657 62.1373 49.1657 63.1532C49.1657 64.423 47.8959 65.1849 46.1181 65.1849C44.2134 65.1849 42.3086 66.5818 40.7848 69.1215C39.515 71.1532 34.1816 77.5023 28.9753 83.0897C13.6102 99.2167 8.91181 110.01 8.53086 129.82C8.27689 136.677 7.26102 144.55 5.99118 148.232C3.4515 155.724 3.32452 159.026 5.22928 162.709C6.11816 164.232 6.75308 168.042 6.75308 171.344C6.75308 175.28 7.51499 178.074 9.03879 179.598C13.2293 183.534 14.8801 198.264 12.2134 205.883C9.67372 212.613 7.388 225.439 7.13404 233.312C7.00705 237.375 6.49912 241.312 5.99118 242.201C5.48324 243.089 5.10229 248.423 5.22928 254.137C5.35626 259.851 4.84832 268.232 3.95944 272.804C3.07055 277.883 2.81658 282.963 3.4515 285.502C4.08642 287.915 4.46737 302.137 4.34039 317.121C4.08642 341.629 4.34039 345.058 6.6261 349.502C9.8007 355.851 9.92768 368.423 7.00705 375.915C5.22928 380.359 4.97531 384.042 5.73721 396.867C6.24515 405.502 7.51499 414.391 8.40387 416.677C9.54673 419.343 9.8007 421.502 8.91181 423.026C8.02292 424.55 8.40387 426.454 10.0547 429.121C11.8324 432.169 12.0864 433.693 10.9436 436.105C8.78483 440.55 6.49912 460.232 6.49912 473.438C6.49912 479.788 5.8642 486.645 4.97531 488.804C2.6896 494.391 2.30864 521.311 4.46737 529.311C5.61023 534.01 5.73721 537.692 4.97531 541.375C3.32452 548.486 6.11816 556.486 11.3245 559.915C18.6896 564.867 22.2451 562.2 17.6737 555.216C16.2769 553.057 15.8959 550.899 16.6578 548.867C17.1658 547.216 17.8007 537.184 17.9277 526.518C18.4356 488.423 21.3562 452.359 24.4039 444.994C25.0388 443.724 23.642 440.931 20.5943 437.248C15.261 430.899 14.6261 426.835 18.0547 418.454C19.5785 414.518 19.9594 410.835 19.4515 405.502C18.8166 400.169 19.1975 397.248 20.3404 395.851C23.642 392.169 23.8959 384.55 20.9753 379.089C18.6896 374.772 18.4356 372.613 19.1975 362.708C19.7055 355.851 20.9753 349.883 22.2451 347.851C23.388 346.073 24.7848 341.756 25.2927 338.454C25.8007 335.28 27.5785 327.153 29.2293 320.55C31.7689 310.518 31.8959 307.978 30.4991 304.169C29.6102 301.375 29.2293 297.185 29.8642 293.121C30.4991 288.296 30.1181 284.994 28.4673 280.423C26.3086 274.963 26.1816 272.931 27.7054 259.47C28.7213 250.074 30.2451 242.455 32.0229 238.899C34.5626 233.566 34.5626 232.423 33.1658 221.121C31.7689 210.582 31.8959 208.677 33.6737 205.883C35.9594 202.328 37.9911 201.693 48.1499 200.804C52.4673 200.423 54.88 200.804 56.0229 202.074C56.7848 203.09 60.0864 203.851 63.6419 203.851C67.0705 203.978 72.2768 204.867 75.1975 206.01C78.1181 207.153 84.3403 208.677 89.1657 209.439C102.88 211.47 109.102 217.312 109.229 228.105C109.229 230.264 108.467 233.312 107.578 234.963C106.055 237.756 104.785 257.82 105.039 274.328C105.166 279.915 104.531 283.851 103.261 286.01C100.594 290.074 100.467 302.899 103.134 305.058C106.182 307.724 107.07 314.328 104.658 316.994C103.388 318.518 102.499 321.82 102.499 325.502C102.499 328.804 101.61 336.804 100.594 343.28C99.4514 349.883 97.9276 359.407 97.0387 364.486C96.2768 369.693 94.626 377.439 93.6101 381.883C90.9435 392.423 88.7847 433.185 90.8165 435.47C91.7054 436.613 91.8324 440.169 91.1974 445.502C89.5466 458.327 89.9276 464.423 92.5943 468.994C94.753 472.677 94.88 473.312 92.9752 475.47C91.4514 477.121 90.5625 481.819 90.1816 490.708C89.5466 500.232 88.6578 504.931 86.372 509.375C83.9594 514.073 83.4514 517.375 83.4514 526.518C83.4514 539.343 84.5943 555.216 85.7371 556.994C86.1181 557.629 85.4832 564.486 84.3403 571.978C80.0229 599.407 79.7689 628.232 83.9594 638.518C84.5943 640.422 85.4832 646.391 85.7371 651.851C86.2451 661.375 89.4197 677.883 91.0705 679.534C91.4514 679.914 90.9435 681.311 89.8006 682.581C88.1498 684.486 88.0228 687.787 89.2927 708.359C90.0546 723.216 90.1816 732.613 89.4197 733.629C88.6578 734.645 88.5308 742.645 89.2927 754.454C90.6895 777.438 90.6895 779.851 90.1816 811.851C89.9276 831.279 90.3086 838.771 92.0863 846.898C94.2451 856.676 94.2451 857.692 92.0863 866.2C90.0546 873.692 89.9276 876.486 91.1974 883.216C91.9593 887.533 93.7371 892.74 94.88 894.644C96.9117 897.692 96.9117 898.2 95.007 900.994C93.7371 902.898 93.1022 905.438 93.6101 907.724C93.9911 909.883 93.6101 912.549 92.5943 913.946C89.6736 918.39 89.1657 923.343 90.5625 933.502C91.4514 938.835 91.9593 949.248 91.9593 956.613C91.9593 963.978 92.7213 972.613 93.7371 975.914C94.88 979.978 95.007 983.025 94.2451 985.438C93.3562 987.851 93.4832 991.406 94.372 995.851C95.1339 999.66 95.8959 1007.41 95.8959 1013.12C95.8959 1020.74 96.4038 1023.91 97.8006 1025.18C98.9435 1026.07 99.8324 1027.98 99.8324 1029.37C99.8324 1030.9 100.467 1033.18 101.102 1034.45C102.118 1036.23 101.737 1037.76 99.7054 1040.42C97.1657 1043.6 96.9117 1045.76 96.9117 1064.8C96.7847 1076.36 97.4197 1094.9 98.3085 1105.82C99.4514 1119.66 99.4514 1128.8 98.5625 1135.28C96.6578 1149.12 96.2768 1273.82 98.0546 1298.45C99.3244 1315.6 99.3244 1371.47 98.1816 1375.66C97.1657 1379.09 97.4197 1381.25 99.3244 1385.44C101.229 1389.63 101.356 1391.28 100.086 1393.31C97.8006 1396.99 98.0546 1398.64 102.118 1402.83C105.42 1406.26 105.547 1406.9 104.15 1410.83C103.134 1413.63 103.007 1415.53 103.896 1416.55C104.658 1417.44 104.785 1419.22 104.277 1420.49C103.769 1422.14 104.404 1423.53 106.436 1425.18C109.737 1427.72 110.118 1431.15 107.832 1439.79C106.816 1443.85 106.689 1447.53 107.578 1451.22C108.213 1454.14 108.594 1459.85 108.213 1463.79C107.832 1467.85 107.197 1478.9 106.943 1488.42C106.436 1502.64 106.689 1505.82 108.34 1506.71C110.88 1508.23 110.245 1528.42 107.324 1537.82C104.531 1546.83 103.261 1561.06 104.912 1565.37C105.928 1567.79 105.928 1570.58 105.039 1573.75C103.896 1577.82 104.15 1579.34 106.436 1583.02C107.959 1585.44 109.102 1588.23 109.102 1589.12C109.102 1590.01 110.499 1592.55 112.277 1594.96C116.594 1601.06 118.753 1607.28 119.769 1617.56C120.404 1622.52 121.166 1626.96 121.674 1627.47C122.055 1627.85 121.801 1628.99 121.039 1629.88C120.15 1631.15 120.912 1634.07 123.832 1640.29C127.261 1647.41 127.642 1649.44 126.499 1652.48C125.737 1654.52 125.102 1664.29 125.102 1674.33C124.975 1714.71 124.467 1732.61 123.451 1734.26C122.816 1735.15 122.055 1738.83 121.801 1742.39C121.547 1746.07 120.404 1750.77 119.261 1753.06C117.737 1755.85 117.229 1760.93 117.229 1770.33C117.229 1786.58 119.007 1796.74 122.562 1800.42C124.086 1801.95 126.753 1805.25 128.277 1807.79C132.848 1815.02 137.928 1816.17 166.499 1816.29C189.864 1816.42 191.642 1816.29 199.896 1812.99C206.118 1810.58 211.451 1809.56 219.07 1809.44C224.785 1809.31 233.166 1808.29 237.483 1807.15C246.753 1804.74 245.102 1804.36 273.8 1815.28C282.181 1818.45 284.975 1818.83 301.864 1818.96C312.15 1819.09 327.642 1818.33 336.531 1817.44C347.578 1816.17 359.134 1815.91 374.118 1816.55L395.832 1817.44L407.896 1813.25C414.499 1810.96 420.594 1809.56 421.483 1810.07C422.372 1810.58 429.991 1811.09 438.372 1811.21C446.88 1811.34 455.388 1811.85 457.292 1812.36C460.086 1813.25 462.626 1812.1 471.388 1806.64C477.229 1802.96 483.197 1799.91 484.594 1799.91C485.991 1799.91 488.911 1801.06 491.197 1802.45C493.737 1804.23 497.419 1805.12 501.737 1805.12C507.324 1805.12 508.975 1804.61 512.784 1800.93C517.229 1796.61 517.737 1796.87 518.753 1803.09C519.007 1804.87 520.657 1806.01 523.197 1806.52C525.356 1807.02 530.054 1810.33 533.864 1814.01L540.467 1820.48L569.165 1821.37C584.911 1821.88 600.53 1822.01 603.832 1821.75C607.133 1821.37 618.816 1820.87 629.864 1820.48C640.784 1820.23 654.879 1818.96 661.229 1817.82C675.07 1815.02 677.102 1815.15 684.848 1818.45C691.578 1821.5 693.483 1821.75 696.911 1819.98C703.641 1816.55 710.879 1816.17 721.673 1818.58C729.546 1820.36 743.133 1821.37 771.832 1822.39C810.435 1823.79 828.34 1825.95 850.181 1831.79C852.974 1832.55 861.736 1833.69 869.863 1834.45C877.863 1835.21 888.149 1836.36 892.466 1836.99C915.197 1840.68 1015.39 1842.96 1047.13 1840.55C1057.16 1839.79 1063.77 1840.17 1073.8 1841.82C1093.99 1845.12 1111.13 1846.39 1155.83 1847.79C1178.18 1848.55 1198.37 1849.69 1200.66 1850.33C1202.94 1850.96 1224.53 1851.6 1248.78 1851.72C1304.78 1851.85 1327.77 1852.99 1351.89 1857.18C1364.72 1859.47 1378.56 1858.83 1384.53 1855.91C1388.97 1853.63 1390.37 1853.37 1394.05 1854.77C1397.35 1856.04 1400.02 1855.91 1405.48 1854.64C1409.29 1853.75 1422.12 1852.74 1433.8 1852.36L1455.13 1851.6L1463.13 1855.28C1471.13 1859.09 1471.26 1859.09 1498.56 1859.09C1517.48 1859.09 1527.13 1858.58 1529.93 1857.44C1533.1 1856.17 1541.99 1855.91 1566.62 1856.42C1617.42 1857.56 1622.5 1857.56 1634.18 1856.04C1640.28 1855.28 1648.15 1853.25 1651.58 1851.72C1657.55 1849.06 1663.13 1848.17 1693.99 1845.25C1701.48 1844.48 1726.12 1843.85 1748.72 1843.85C1771.32 1843.85 1794.31 1843.72 1799.89 1843.72C1805.35 1843.6 1812.85 1843.98 1816.53 1844.48C1825.29 1845.63 1841.04 1842.96 1846.88 1839.41C1858.05 1832.42 1867.96 1823.28 1871.26 1816.55C1874.18 1810.45 1874.56 1807.66 1874.94 1791.79C1875.32 1777.44 1876.08 1772.1 1878.5 1765.12C1883.58 1750.26 1885.1 1736.17 1885.1 1703.41C1885.1 1677.12 1885.48 1672.42 1887.51 1668.74C1889.42 1665.31 1889.8 1661.63 1889.54 1649.18C1889.29 1639.66 1889.93 1631.15 1891.07 1626.58C1892.47 1621.12 1892.97 1609.44 1892.97 1582.52C1892.85 1550.52 1892.59 1544.8 1890.31 1536.55C1888.91 1531.34 1887.39 1525.75 1886.88 1524.1C1886.37 1522.07 1887.26 1519.02 1889.04 1515.72C1894.5 1506.2 1895.89 1497.31 1895.89 1472.42C1895.89 1446.52 1896.78 1442.83 1903.64 1439.91C1905.8 1439.02 1909.48 1438.64 1912.15 1439.15C1915.07 1439.79 1917.23 1439.53 1917.74 1438.64C1919.01 1436.61 1922.43 1436.87 1927.01 1439.15C1932.34 1441.95 1939.45 1441.69 1943.51 1438.52C1945.29 1436.99 1947.7 1435.85 1948.72 1435.85C1952.28 1435.85 1953.54 1428.61 1953.67 1407.15C1953.8 1388.61 1953.42 1385.44 1951.39 1382.26C1948.97 1378.71 1948.97 1378.33 1953.04 1361.56C1956.59 1346.83 1957.23 1341.88 1957.23 1327.02C1957.23 1312.29 1956.72 1308.49 1954.43 1303.41C1952.91 1300.1 1951.13 1296.93 1950.5 1296.55C1948.72 1295.41 1948.85 1278.39 1950.62 1271.15C1952.66 1263.28 1950.24 1240.04 1946.43 1229.5C1943.51 1221.63 1942.62 1217.44 1939.83 1196.23C1938.56 1187.09 1938.56 1183.41 1939.58 1182.14C1940.47 1181.12 1941.35 1178.45 1941.61 1176.17C1941.86 1173.88 1942.75 1171.22 1943.51 1170.2C1944.66 1168.8 1944.66 1166.9 1943.77 1163.47C1941.99 1157.12 1940.34 1157.12 1939.45 1163.6C1939.07 1166.77 1937.16 1170.33 1934.62 1173.25C1932.34 1175.79 1927.01 1181.63 1922.94 1186.2C1918.75 1190.77 1914.05 1194.96 1912.53 1195.34C1909.74 1195.98 1908.47 1197.88 1899.7 1215.03C1895.39 1223.41 1891.07 1236.1 1890.05 1242.83C1889.16 1248.68 1881.16 1258.58 1872.15 1265.06C1869.1 1267.34 1866.56 1270.26 1866.56 1271.53C1866.56 1272.8 1865.29 1274.58 1863.89 1275.47C1862.5 1276.36 1860.21 1279.66 1858.69 1282.83C1855.01 1291.09 1841.93 1305.56 1836.47 1307.47C1831.39 1309.25 1825.42 1313.31 1815.13 1322.2C1806.12 1329.95 1806.62 1329.44 1792.15 1345.18C1780.85 1357.63 1778.69 1359.28 1773.23 1360.55C1769.93 1361.31 1766.5 1362.2 1765.86 1362.71C1765.1 1363.22 1760.78 1364.61 1756.34 1365.76C1737.42 1370.58 1731.07 1366.64 1736.53 1353.56C1737.67 1350.77 1739.45 1343.15 1740.59 1336.55C1741.86 1329.69 1744.28 1321.44 1746.31 1317.12C1750.75 1308.49 1761.55 1288.17 1763.7 1284.49C1765.48 1281.44 1769.67 1269.25 1772.72 1258.58C1775.26 1249.56 1779.96 1239.91 1784.91 1234.2C1796.59 1220.49 1800.66 1211.47 1801.67 1197.12C1802.05 1192.42 1802.94 1186.83 1803.7 1184.8C1807.51 1174.9 1802.81 1153.69 1795.07 1145.18C1793.42 1143.41 1788.85 1134.9 1784.78 1126.52C1780.85 1118.14 1775.39 1107.85 1772.72 1103.91C1770.05 1099.85 1767.89 1096.17 1767.89 1095.53C1767.89 1094.9 1766.62 1091.98 1765.23 1088.8C1760.15 1077.5 1757.23 1070.14 1757.23 1068.87C1757.23 1068.1 1758.62 1065.82 1760.53 1063.66C1762.31 1061.37 1763.83 1058.58 1763.83 1057.31C1763.83 1055.91 1764.97 1053.37 1766.5 1051.47C1768.66 1048.68 1769.16 1046.14 1769.16 1036.61C1769.16 1026.2 1768.78 1024.42 1764.97 1017.69C1760.91 1010.58 1760.66 1009.44 1760.4 994.708C1760.15 975.914 1759.39 972.359 1751.39 947.851C1750.5 945.311 1749.86 939.343 1749.86 934.644C1749.86 927.025 1750.12 925.882 1753.42 923.47C1756.59 921.057 1757.74 920.93 1762.18 922.2C1768.53 924.232 1783.51 940.613 1789.23 951.914C1791.39 956.105 1793.67 960.041 1794.43 960.549C1795.2 960.93 1797.35 964.232 1799.13 967.66C1802.94 975.152 1816.78 989.501 1835.83 1005.88C1859.32 1026.07 1863.01 1030.26 1871.77 1048.42C1881.42 1067.98 1884.85 1071.66 1895.64 1073.69C1898.05 1074.07 1902.62 1076.61 1905.93 1079.28C1910.62 1083.22 1911.89 1084.99 1911.89 1088.42C1911.89 1093.5 1915.07 1098.45 1918.37 1098.45C1919.77 1098.45 1923.2 1101.63 1926.24 1105.56C1931.45 1112.17 1937.8 1115.85 1944.4 1115.85C1947.58 1115.85 1947.96 1113.82 1948.59 1095.15C1949.35 1074.71 1947.58 1060.87 1943.77 1055.53C1941.1 1051.85 1941.35 1048.55 1944.66 1047.28C1945.93 1046.9 1946.56 1044.49 1946.56 1040.17C1946.56 1036.49 1947.32 1032.55 1948.47 1031.15C1949.48 1029.63 1950.37 1026.96 1950.5 1025.18C1950.5 1020.74 1941.1 1004.1 1936.15 999.66C1933.35 997.247 1931.83 994.2 1931.07 990.263C1930.56 987.216 1928.15 980.359 1925.61 975.152C1921.29 965.882 1921.16 965.121 1921.16 948.994C1921.16 939.089 1920.4 929.565 1919.26 925.248C1917.48 918.39 1917.61 917.629 1920.28 912.549C1922.56 908.105 1923.07 905.184 1922.81 895.279C1922.43 883.343 1924.59 872.041 1928.4 865.946C1929.42 864.422 1930.56 860.994 1931.07 858.2C1931.58 855.533 1935.01 846.898 1938.81 838.898L1945.8 824.549L1945.67 809.184C1945.67 800.803 1944.91 791.406 1944.02 788.359C1942.75 783.66 1942.88 780.994 1945.29 771.089C1947.7 760.803 1947.83 758.01 1946.69 749.756C1945.93 744.549 1945.67 734.391 1946.05 727.026C1946.69 716.359 1946.43 713.311 1944.91 711.787C1941.74 708.613 1939.7 694.772 1939.96 677.883C1940.21 668.994 1939.83 649.311 1939.2 633.819C1938.56 618.454 1938.18 601.311 1938.31 595.851C1938.31 590.391 1938.43 580.867 1938.43 574.645C1938.43 566.391 1939.32 560.55 1941.99 552.042C1946.94 535.915 1947.2 520.931 1946.43 326.899C1946.43 308.359 1946.05 305.947 1943.13 299.216C1939.32 290.708 1939.07 286.391 1941.74 282.201C1944.78 277.248 1946.56 258.201 1945.67 239.28C1944.66 216.804 1940.34 200.677 1933.35 192.804C1932.21 191.407 1930.81 186.455 1930.31 181.375C1929.16 171.344 1926.37 158.645 1923.7 152.296C1922.18 148.359 1922.31 147.724 1926.88 140.994C1929.54 137.058 1933.86 131.598 1936.4 128.804C1943.89 120.55 1944.28 109.756 1937.8 89.5658C1935.01 80.5499 1933.74 78.6453 1918.5 62.2643C1908.21 51.0897 1900.34 43.7246 1897.16 42.3278C1894.37 41.058 1891.07 38.1373 1889.54 35.5977C1886.88 31.0262 1880.15 27.8517 1872.91 27.8517C1869.23 27.8517 1864.66 23.5342 1863.13 18.7087C1861.48 13.2484 1849.8 10.2008 1842.05 13.1215C1838.24 14.5183 1834.94 12.6135 1834.31 8.55005C1833.93 6.2644 1832.4 5.75635 1824.53 5.12146C1819.32 4.74048 1813.74 3.59766 1811.96 2.58179C1807.77 0.296143 1785.42 1.43896 1777.55 4.35962C1774.5 5.50244 1769.42 6.89929 1766.24 7.28027C1758.24 8.55005 1751.77 14.5183 1758.5 14.5183C1761.29 14.5183 1762.18 17.6929 1759.77 19.2167C1759.01 19.7246 1756.34 24.55 1753.8 30.0104C1748.97 40.55 1746.31 42.2008 1741.86 37.2484C1740.59 35.8516 1737.8 34.3278 1735.64 33.8198C1731.58 32.931 1729.16 29.7563 1729.16 25.3119C1729.16 23.7881 1728.02 21.3755 1726.5 19.8517C1724.08 17.439 1722.05 17.1849 1707.96 17.1849H1691.96L1686.24 9.81995C1679.89 1.69287 1673.93 -0.973755 1665.29 0.423096C1662.62 0.804077 1655.64 1.05798 1649.8 1.05798C1643.96 1.05798 1636.97 1.81995 1634.43 2.83582C1628.08 5.24841 1593.67 5.12146 1589.35 2.70874C1585.55 0.550049 1566.37 -0.973755 1564.72 0.677002ZM1814.62 36.3595C1817.04 37.8833 1822.75 38.7722 1833.93 39.4072C1849.67 40.296 1849.8 40.296 1853.61 44.6135C1855.77 47.0262 1859.32 49.4388 1861.35 49.9469C1865.93 50.8357 1878.5 62.0104 1883.7 69.7563C1888.28 76.4865 1889.42 81.8198 1887.51 87.4071C1886.24 90.9626 1886.37 92.2325 1888.02 94.1373C1889.16 95.4071 1890.56 98.5817 1890.94 100.994C1891.45 103.407 1893.61 108.105 1895.77 111.407C1898.05 114.709 1899.83 118.264 1899.83 119.28C1899.83 120.423 1900.72 121.566 1901.74 122.074C1904.15 122.963 1908.72 130.455 1911.01 137.312C1912.53 141.502 1912.4 143.788 1910.12 153.312C1907.07 165.883 1905.67 169.566 1901.99 174.899C1900.08 177.439 1898.94 182.01 1898.31 190.137C1896.78 206.264 1896.91 207.534 1899.32 212.613C1901.1 216.423 1901.23 217.82 1899.83 221.248C1898.43 224.423 1898.56 225.693 1900.08 228.232C1901.61 230.391 1901.99 234.963 1901.86 246.137C1901.61 260.232 1901.74 261.248 1904.66 263.788C1907.45 266.074 1907.83 267.724 1907.83 275.47C1907.83 280.931 1907.07 286.01 1905.8 288.423C1904.66 290.708 1903.89 295.153 1904.02 299.089C1904.4 311.915 1902.75 343.153 1901.35 346.581C1899.7 351.026 1889.54 360.169 1886.88 359.661C1884.47 359.153 1875.32 339.089 1873.93 331.216C1872.53 322.962 1866.81 304.55 1861.23 289.82C1858.31 282.455 1855.39 274.455 1854.62 271.788C1853.86 269.248 1850.56 258.708 1847.26 248.423C1843.96 238.137 1841.16 228.74 1841.16 227.724C1841.16 226.582 1839.01 222.518 1836.47 218.455C1833.8 214.518 1829.86 207.407 1827.7 202.709C1825.54 198.01 1820.59 190.264 1816.53 185.566C1811.2 179.344 1809.16 175.915 1809.16 172.994C1809.16 170.836 1808.02 166.772 1806.62 164.105C1805.23 161.439 1803.07 154.328 1802.05 148.486C1800.91 142.645 1798.62 133.375 1796.97 127.788C1795.32 121.947 1793.93 112.931 1793.54 105.82C1793.16 96.5499 1792.4 92.3595 1789.86 87.1532C1786.69 80.9309 1783.51 61.1215 1783.77 49.9469C1783.89 44.9945 1788.59 36.4866 1792.4 34.7087C1796.21 32.677 1810.69 33.6929 1814.62 36.3595ZM1326.24 418.2L1331.58 423.153L1332.34 436.486C1333.48 453.756 1335.51 469.121 1338.05 479.407C1339.58 485.502 1339.7 488.296 1338.56 490.327C1337.8 491.851 1337.16 494.518 1337.16 496.296C1337.16 498.2 1335.77 501.248 1334.12 503.28L1331.07 506.708L1324.21 504.55C1317.99 502.518 1317.1 502.518 1313.42 504.423C1311.13 505.565 1308.09 506.454 1306.69 506.454C1305.29 506.454 1303.51 507.343 1302.62 508.359C1301.74 509.375 1298.43 510.899 1295.13 511.788C1289.55 513.184 1277.99 519.28 1273.04 523.47C1271.89 524.359 1265.93 527.026 1259.7 529.184C1253.48 531.47 1246.37 534.391 1243.83 535.661C1241.29 536.93 1236.47 538.835 1233.16 539.724C1229.86 540.613 1224.78 542.518 1221.86 543.788C1207.39 550.264 1195.7 553.692 1180.09 555.851C1170.82 557.248 1159.51 559.28 1155.2 560.55C1144.4 563.47 1133.74 564.867 1117.86 565.375C1104.66 565.883 1104.4 565.756 1098.05 561.565C1094.63 559.153 1091.45 557.121 1091.07 557.121C1089.67 557.121 1080.53 549.756 1078.5 547.216C1077.48 545.692 1074.31 542.01 1071.51 539.089C1063.26 530.073 1065.42 524.867 1080.28 517.756C1087.26 514.327 1091.58 513.184 1096.53 513.184C1100.34 513.184 1106.31 512.296 1109.99 511.153C1113.55 510.137 1117.74 509.248 1119.39 509.248C1120.91 509.248 1122.94 508.359 1123.83 507.216C1124.72 506.2 1127.64 504.804 1130.31 504.423C1132.97 503.915 1137.42 502.391 1140.09 500.994C1142.88 499.597 1145.8 498.454 1146.82 498.454C1147.7 498.454 1150.12 497.692 1152.02 496.677C1154.05 495.661 1157.48 494.391 1159.77 493.883C1164.97 492.74 1171.07 489.692 1173.23 487.153C1174.12 486.01 1175.39 485.121 1176.15 485.121C1176.91 485.121 1181.36 483.343 1186.05 481.184C1190.75 479.026 1195.2 477.121 1195.96 477.121C1196.85 477.121 1199.77 475.343 1202.56 473.185C1205.36 470.899 1210.56 468.105 1214.12 466.962C1217.67 465.819 1221.61 463.661 1222.88 462.137C1224.91 459.851 1225.8 459.597 1227.7 460.74C1229.61 462.01 1231.13 461.248 1236.59 456.423C1241.8 451.597 1243.96 450.454 1248.15 450.454C1253.99 450.454 1262.62 446.518 1267.58 441.566C1271.77 437.375 1278.5 433.185 1281.16 433.185C1282.31 433.185 1284.21 432.042 1285.48 430.645C1286.62 429.121 1289.93 427.597 1292.59 427.089C1295.77 426.454 1297.8 425.312 1298.18 423.661C1298.56 422.264 1299.96 421.121 1301.35 421.121C1302.75 421.121 1303.89 420.613 1303.89 419.851C1303.89 419.089 1305.16 418.454 1306.82 418.454C1308.47 418.454 1311.64 417.312 1313.8 415.788C1319.26 412.232 1320.28 412.486 1326.24 418.2ZM1673.16 443.978C1673.16 444.994 1674.81 445.248 1677.99 444.74C1685.74 443.47 1690.81 446.391 1695.64 455.026C1697.93 459.089 1699.83 464.296 1699.83 466.581C1699.83 475.597 1708.21 483.978 1725.23 492.105C1730.81 494.772 1736.02 497.819 1736.91 498.835C1738.81 501.121 1732.08 527.788 1727.26 537.184C1725.48 540.486 1722.31 547.216 1720.15 552.042C1717.86 556.867 1713.67 563.343 1710.62 566.391C1707.58 569.438 1705.16 572.74 1705.16 573.756C1705.16 574.772 1704.15 576.422 1702.75 577.438C1701.48 578.454 1699.07 580.994 1697.42 583.407C1695.64 585.946 1692.97 587.851 1690.31 588.359C1687.39 588.994 1682.69 592.549 1675.32 599.915C1669.48 605.756 1664.15 610.454 1663.51 610.454C1663.01 610.454 1662.5 611.343 1662.5 612.486C1662.5 613.502 1660.34 616.042 1657.55 618.073C1654.88 620.232 1650.43 624.042 1647.77 626.708C1643.58 630.645 1641.55 631.661 1635.2 632.295C1629.74 632.93 1625.93 634.454 1621.86 637.248C1616.91 640.803 1615.39 641.311 1607.77 641.057C1603.07 640.93 1597.61 641.438 1595.83 642.2C1594.05 642.962 1589.1 644.613 1584.78 645.883C1580.59 647.153 1577.16 648.676 1577.16 649.311C1577.16 649.819 1576.15 650.581 1575.01 651.089C1571.2 652.486 1553.93 655.787 1550.12 655.787C1548.08 655.787 1545.42 656.422 1544.15 657.057C1537.55 660.486 1514.94 664.042 1501.74 663.914C1496.66 663.787 1490.69 664.422 1488.53 665.184C1486.37 665.946 1480.53 667.216 1475.45 667.851C1464.66 669.121 1454.75 666.835 1449.67 661.756C1444.72 656.803 1445.61 654.01 1454.5 646.899C1458.94 643.343 1462.5 639.915 1462.5 639.153C1462.5 636.994 1469.35 630.899 1473.55 629.248C1475.45 628.486 1478.24 626.2 1479.51 624.168C1485.1 615.026 1507.2 591.661 1515.32 586.327C1518.37 584.422 1521.67 580.613 1523.07 577.692C1526.24 570.962 1538.69 555.597 1553.29 540.486C1565.61 527.788 1571.58 520.931 1576.28 514.581C1582.5 506.073 1595.32 491.089 1606.62 479.026C1613.1 472.169 1618.56 465.946 1618.56 465.438C1618.56 464.931 1621.99 460.867 1626.31 456.55C1635.45 447.407 1641.29 445.375 1657.42 445.248C1663.01 445.248 1668.08 444.613 1668.47 443.851C1669.61 442.073 1673.16 442.2 1673.16 443.978ZM1896.15 466.454C1898.05 467.978 1900.59 469.121 1901.74 469.121C1904.15 469.121 1904.02 467.851 1904.15 493.248C1904.15 509.502 1903.77 513.311 1901.86 516.232C1899.96 519.153 1899.83 520.423 1901.23 524.232C1902.5 527.788 1902.5 531.47 1901.35 540.74C1900.47 547.343 1899.83 556.867 1899.83 562.073C1899.83 577.565 1894.37 600.168 1888.66 608.422C1887.01 610.835 1885.86 614.772 1885.74 618.581C1885.61 622.01 1884.59 626.327 1883.32 627.978C1882.18 629.756 1881.16 632.295 1881.16 633.692C1881.16 635.089 1880.15 637.502 1878.88 638.899C1876.72 641.184 1876.47 644.486 1876.72 668.105C1876.85 692.994 1876.97 695.026 1879.64 698.581C1882.31 702.137 1882.43 702.772 1880.66 708.105C1879.51 711.28 1877.99 716.359 1877.23 719.533C1876.34 722.962 1874.94 725.121 1873.8 725.121C1872.66 725.121 1871.89 726.391 1871.89 727.787C1871.89 729.184 1871.26 730.708 1870.5 731.216C1868.34 732.486 1868.97 736.168 1871.77 739.089C1874.05 741.502 1874.43 745.311 1875.83 773.883C1877.1 801.184 1876.97 807.025 1875.32 814.264C1872.91 824.422 1871.39 826.454 1866.18 826.454C1863.89 826.454 1859.83 827.216 1857.04 827.978C1853.23 829.248 1850.31 829.121 1844.85 827.978C1841.04 827.089 1835.58 825.946 1832.91 825.311C1830.12 824.676 1826.94 823.533 1825.93 822.645C1822.62 819.851 1801.16 822.391 1787.96 827.089C1779.07 830.264 1767.13 829.756 1756.34 825.692C1751.26 823.787 1744.78 821.756 1741.74 821.121C1735.13 819.724 1724.97 815.787 1714.56 810.581C1696.02 801.184 1687.13 800.041 1668.21 804.613C1660.34 806.517 1652.47 808.803 1650.43 809.819C1647.13 811.597 1647.01 812.105 1647.26 821.121C1647.39 827.216 1648.15 831.406 1649.55 832.93C1651.7 835.47 1655.26 847.025 1656.4 855.533C1657.04 859.978 1656.78 861.375 1655.13 862.01C1652.59 863.025 1652.47 871.025 1655.13 873.184C1656.28 874.073 1657.16 875.597 1657.16 876.486C1657.16 877.375 1659.58 882.835 1662.62 888.676C1665.67 894.39 1668.97 903.025 1669.86 907.851C1670.88 912.676 1672.28 918.898 1672.91 921.819C1673.67 924.74 1674.94 930.454 1675.58 934.517C1676.85 941.375 1678.37 945.819 1680.91 950.517C1682.69 953.565 1685.48 958.771 1687.39 962.581C1688.28 964.359 1689.67 970.073 1690.31 975.152C1691.83 986.073 1695.26 996.74 1698.56 1000.55C1701.99 1004.49 1703.89 1008.68 1703.89 1012.23C1703.89 1014.01 1705.04 1016.8 1706.56 1018.45C1707.96 1020.23 1709.23 1023.15 1709.23 1025.06C1709.23 1026.96 1710.5 1031.28 1712.02 1034.45C1714.31 1039.41 1714.81 1042.96 1714.69 1053.37C1714.69 1065.18 1714.94 1066.71 1718.37 1072.17C1720.53 1075.47 1723.2 1082.2 1724.47 1087.28C1725.74 1092.36 1728.28 1099.98 1730.18 1104.17C1732.97 1110.64 1733.35 1112.42 1732.08 1115.34C1731.2 1117.12 1730.56 1121.44 1730.56 1124.99C1730.56 1128.42 1729.67 1132.49 1728.66 1133.88C1724.59 1139.85 1717.23 1154.83 1716.47 1159.03C1715.96 1161.44 1715.45 1170.96 1715.32 1180.23C1715.2 1194.33 1714.81 1197.37 1712.78 1199.66C1711.39 1201.06 1709.1 1206.01 1707.7 1210.58C1705.42 1218.07 1705.29 1219.22 1707.2 1222.9C1709.48 1227.6 1709.74 1233.95 1707.7 1235.22C1706.94 1235.72 1705.04 1238.9 1703.64 1242.33C1702.12 1245.76 1699.58 1250.33 1698.05 1252.49C1696.4 1254.77 1694.24 1259.22 1693.23 1262.52C1692.34 1265.82 1690.69 1271.15 1689.67 1274.45C1688.66 1277.63 1687.89 1281.56 1687.89 1282.96C1687.89 1285.88 1687.01 1288.55 1680.4 1307.85C1674.94 1323.47 1673.29 1339.85 1676.34 1345.69C1677.48 1347.85 1677.99 1350.26 1677.48 1351.02C1676.08 1353.44 1674.05 1366.77 1674.31 1373.12C1674.43 1376.42 1673.8 1381.12 1673.04 1383.41C1672.28 1385.82 1671.26 1392.68 1670.75 1398.77C1669.86 1409.69 1669.74 1409.95 1665.29 1412.1C1659.7 1414.9 1655.01 1425.69 1653.99 1437.88C1653.48 1443.22 1650.18 1451.98 1641.55 1470.52C1631.64 1491.6 1627.83 1503.15 1627.7 1512.68C1627.45 1524.74 1625.55 1532.99 1621.86 1537.44C1619.83 1539.72 1618.56 1543.02 1618.56 1545.44C1618.56 1550.52 1611.2 1572.1 1607.26 1578.45C1605.74 1580.99 1603.7 1584.68 1602.94 1586.45C1602.05 1588.36 1598.24 1596.48 1594.31 1604.48C1589.23 1615.02 1587.2 1620.99 1587.07 1625.44C1586.94 1628.87 1585.93 1634.58 1584.78 1638.14C1581.35 1649.06 1577.29 1669.37 1576.4 1680.55C1575.13 1695.79 1570.69 1705.18 1559.77 1714.71C1553.16 1720.42 1549.86 1724.74 1545.29 1733.37C1542.12 1739.47 1536.4 1747.85 1532.59 1751.79C1528.91 1755.85 1522.82 1762.71 1519.13 1767.02C1512.66 1774.64 1512.4 1774.77 1506.56 1774.14C1501.86 1773.63 1499.83 1772.48 1496.28 1768.29C1492.21 1763.72 1491.83 1762.58 1492.59 1757.25C1493.35 1751.91 1500.59 1735.15 1503.89 1731.22C1504.53 1730.33 1505.42 1727.02 1505.93 1723.72C1506.43 1720.55 1510.37 1709.5 1514.82 1699.22C1519.13 1688.93 1523.07 1678.52 1523.45 1676.23C1523.83 1673.82 1524.97 1671.15 1525.99 1670.39C1527.26 1669.25 1527.89 1665.31 1527.89 1655.91C1527.89 1640.8 1530.18 1632.29 1539.07 1615.28C1542.24 1609.06 1545.55 1600.55 1546.43 1596.36C1547.2 1592.04 1548.47 1587.6 1549.1 1586.45C1551.01 1583.02 1555.58 1564.99 1556.47 1557.88C1557.48 1549.88 1559.39 1542.01 1561.8 1536.55C1565.1 1528.93 1566.88 1519.15 1567.13 1505.82C1567.39 1494.64 1568.02 1491.22 1571.07 1483.85C1573.23 1479.02 1575.01 1472.8 1575.26 1469.88C1575.39 1466.83 1577.93 1458.2 1580.85 1450.45C1583.77 1442.83 1587.45 1430.01 1589.1 1422.01C1590.62 1414.01 1592.4 1406.52 1593.04 1405.37C1593.67 1404.1 1594.43 1398.64 1594.94 1393.18C1595.45 1387.22 1597.1 1379.85 1599.13 1374.9C1602.31 1367.15 1602.56 1364.99 1602.56 1344.93C1602.56 1333.12 1603.07 1320.04 1603.83 1315.98C1604.47 1311.91 1605.74 1302.26 1606.5 1294.64C1607.39 1287.02 1608.78 1278.64 1609.8 1275.98C1615.64 1260.1 1617.55 1243.47 1616.66 1213.88C1616.28 1199.15 1615.64 1177.95 1615.39 1166.52C1614.75 1145.18 1612.85 1133.37 1608.15 1121.82C1606.62 1118.14 1604.59 1112.8 1603.58 1109.88C1602.05 1105.31 1601.04 1104.42 1597.61 1104.17C1593.67 1103.66 1593.42 1104.04 1584.66 1121.82C1579.83 1131.72 1575.89 1140.49 1575.89 1141.25C1575.89 1142.01 1572.72 1146.07 1568.78 1150.26C1559.39 1160.42 1553.8 1167.91 1552.53 1171.85C1551.89 1173.76 1551.26 1181.37 1551.26 1188.99L1551.01 1202.71L1544.78 1208.04C1539.32 1212.74 1538.56 1214.01 1538.56 1218.58C1538.56 1222.39 1537.67 1224.68 1535.51 1226.58C1526.37 1234.96 1522.56 1239.15 1519.77 1243.98C1517.99 1246.9 1514.05 1251.98 1511.01 1255.28C1504.91 1261.88 1495.26 1277.76 1490.18 1289.18C1485.35 1300.23 1480.15 1307.85 1477.48 1307.85C1476.08 1307.85 1471.51 1311.53 1467.07 1315.98C1455.51 1327.79 1439.51 1337.31 1425.67 1340.61C1417.55 1342.52 1415.01 1341.37 1412.34 1335.02C1410.56 1330.83 1410.69 1330.2 1414.5 1323.47C1416.66 1319.53 1418.56 1314.83 1418.56 1313.06C1418.56 1311.28 1419.7 1307.34 1421.23 1304.55C1422.62 1301.63 1423.89 1297.95 1423.89 1296.17C1423.89 1294.52 1424.66 1291.72 1425.67 1290.2C1426.69 1288.55 1427.96 1284.49 1428.34 1281.31C1428.85 1278.01 1430.12 1273.82 1431.01 1271.91C1434.05 1266.07 1435.7 1262.01 1437.1 1256.29C1437.86 1253.37 1439.64 1249.44 1440.91 1247.66C1443.58 1244.23 1447.77 1235.47 1451.96 1224.8C1453.48 1221.12 1457.04 1215.03 1459.96 1211.47C1462.75 1207.79 1465.16 1203.98 1465.16 1202.96C1465.16 1201.95 1467.83 1192.93 1471.13 1183.15C1475.7 1169.44 1477.23 1163.09 1477.23 1156.74C1477.23 1151.53 1477.86 1147.34 1479.13 1145.56C1480.28 1144.04 1481.55 1139.85 1482.05 1136.29C1482.43 1132.74 1484.34 1127.41 1485.99 1124.36C1489.42 1118.39 1490.43 1105.95 1487.77 1100.99C1486.62 1098.83 1486.88 1096.8 1489.04 1091.85C1491.32 1086.52 1491.83 1082.58 1491.83 1069.88C1491.83 1053.5 1490.82 1049.56 1485.1 1044.49C1483.58 1043.09 1480.66 1039.15 1478.75 1035.85C1476.85 1032.55 1473.42 1027.47 1471.13 1024.55C1464.28 1015.66 1459.32 1006.39 1455.26 995.47C1452.59 987.851 1450.94 985.184 1449.67 985.692C1447.13 986.708 1445.61 982.644 1447.89 981.12C1450.18 979.724 1449.04 973.121 1444.85 963.851C1439.13 951.152 1437.23 944.803 1436.59 935.787C1436.21 931.089 1435.45 920.676 1434.69 912.676C1434.05 904.676 1433.8 897.057 1434.18 895.787C1435.07 892.359 1438.5 891.47 1441.16 893.755C1442.31 894.898 1444.85 895.787 1446.75 895.787C1449.29 895.787 1452.08 898.073 1457.8 904.676C1461.99 909.629 1466.56 916.232 1468.08 919.406C1471.13 925.882 1476.47 930.581 1493.23 941.502C1505.29 949.375 1515.83 958.517 1515.83 961.057C1515.83 961.946 1517.35 963.216 1519.26 963.851C1521.04 964.613 1523.58 966.898 1524.85 969.057C1527.39 973.501 1542.75 984.168 1557.23 991.533C1563.96 994.962 1573.61 1004.74 1572.72 1007.15C1572.21 1008.3 1572.59 1010.71 1573.35 1012.49C1574.62 1015.15 1574.5 1016.3 1572.85 1018.2C1569.16 1022.39 1568.91 1026.2 1571.96 1034.83C1575.39 1044.74 1581.86 1051.85 1587.45 1051.85C1595.7 1051.85 1601.04 1049.18 1603.7 1044.1C1605.23 1041.06 1608.15 1038.26 1610.94 1036.87C1614.37 1035.34 1616.78 1032.68 1619.07 1027.98C1620.97 1024.3 1623.01 1020.99 1623.77 1020.49C1625.55 1019.47 1625.42 992.041 1623.64 983.152C1622.88 979.47 1621.86 970.454 1621.35 963.216C1620.85 955.851 1619.83 948.613 1618.94 947.216C1618.18 945.692 1617.16 941.882 1616.66 938.708C1616.15 935.533 1614.62 930.581 1613.1 927.787C1611.7 924.994 1610.56 920.422 1610.56 917.755C1610.56 913.438 1605.23 899.597 1597.48 884.105C1595.83 880.676 1595.45 875.343 1595.45 857.438V835.216L1591.64 829.502C1589.48 826.454 1586.56 823.279 1585.16 822.517C1581.61 820.613 1570.56 820.867 1562.94 823.152C1554.69 825.565 1521.93 829.375 1515.83 828.613C1513.29 828.232 1505.42 827.216 1498.56 826.454C1491.58 825.565 1484.34 824.295 1482.56 823.533C1475.83 820.867 1469.48 819.724 1454.5 818.581C1437.61 817.311 1429.23 814.771 1423.39 809.184C1419.83 805.756 1419.58 804.994 1420.47 798.645C1421.35 792.295 1421.74 791.66 1425.42 790.898C1427.58 790.518 1429.99 788.867 1430.62 787.343C1432.15 784.168 1441.04 778.581 1444.72 778.454C1446.12 778.454 1451.96 776.93 1457.8 775.152C1463.64 773.375 1471.77 771.47 1475.83 770.962C1479.89 770.581 1484.72 769.438 1486.5 768.422C1497.93 762.708 1518.37 760.041 1545.29 760.93C1554.69 761.184 1556.97 760.803 1557.61 759.152C1558.12 758.137 1560.02 757.121 1561.8 757.121C1566.37 757.121 1572.72 753.819 1574.5 750.518C1575.26 748.994 1577.93 747.597 1580.85 747.089C1583.64 746.581 1587.96 744.93 1590.5 743.28C1593.93 741.121 1599.01 739.851 1609.16 738.581C1616.91 737.692 1623.77 736.549 1624.53 735.914C1625.29 735.28 1628.08 734.518 1630.75 734.01C1633.55 733.502 1637.48 731.724 1639.51 729.946C1641.55 728.168 1645.74 726.137 1648.78 725.248C1651.83 724.486 1654.75 723.216 1655.13 722.454C1655.64 721.819 1658.18 720.676 1660.97 719.914C1663.64 719.152 1667.2 717.375 1668.72 715.978C1672.78 712.168 1685.99 706.327 1692.21 705.565C1695.26 705.184 1698.43 704.168 1699.2 703.28C1699.96 702.264 1704.15 701.121 1708.47 700.613C1712.91 699.978 1718.12 698.454 1720.15 696.93C1722.18 695.533 1725.61 694.137 1727.77 693.756C1733.35 693.121 1743.26 687.026 1747.2 682.073C1748.97 679.787 1752.28 676.613 1754.43 675.216C1759.51 671.914 1767.01 660.613 1765.99 657.946C1765.61 656.803 1767.01 652.486 1769.16 648.295C1771.32 643.978 1773.1 639.787 1773.1 639.026C1773.1 638.264 1775.89 635.216 1779.2 632.295C1782.37 629.502 1787.7 624.93 1790.75 622.137C1793.93 619.47 1797.48 617.184 1798.62 617.184C1800.53 617.184 1804.08 611.216 1804.59 607.153C1804.72 606.391 1804.85 605.121 1804.97 604.359C1805.1 603.47 1808.4 599.28 1812.47 594.962C1816.4 590.645 1820.47 585.438 1821.23 583.153C1822.12 580.994 1823.64 577.311 1824.66 575.026C1825.67 572.613 1826.56 569.565 1826.56 568.169C1826.56 566.772 1827.58 564.105 1828.97 562.327C1833.54 556.359 1837.1 546.708 1836.21 542.137C1835.58 538.581 1835.83 538.2 1837.23 539.47C1840.02 542.137 1840.78 541.502 1841.67 536.169C1843.45 524.486 1844.21 521.057 1845.35 520.423C1845.99 520.042 1846.5 518.518 1846.5 516.994C1846.5 515.597 1848.02 512.169 1849.8 509.502C1851.7 506.835 1853.23 503.534 1853.23 502.137C1853.23 500.867 1854.62 499.089 1856.53 498.2C1858.43 497.438 1859.7 495.915 1859.32 495.026C1858.81 494.01 1859.32 493.629 1860.59 494.01C1863.39 495.153 1866.31 492.359 1867.7 487.153C1869.48 480.804 1881.04 466.962 1885.86 465.312C1891.7 463.534 1892.47 463.534 1896.15 466.454ZM1037.86 496.804C1040.4 498.835 1042.43 501.375 1042.43 502.391C1042.43 503.407 1040.4 506.581 1037.86 509.375C1035.32 512.169 1033.16 515.851 1033.16 517.502C1033.16 519.153 1032.02 522.327 1030.63 524.486C1028.47 527.661 1028.09 529.819 1028.72 537.057C1029.23 541.883 1030.5 547.597 1031.51 549.756C1033.67 553.946 1034.43 576.549 1032.66 581.883C1032.28 583.407 1027.58 588.232 1022.37 592.549C1017.16 596.994 1012.21 601.311 1011.32 602.327C1006.24 608.422 1003.58 610.454 1000.28 611.343C998.244 611.851 993.292 614.264 989.482 616.676C985.546 619.216 981.99 621.121 981.355 621.121C979.831 621.121 967.387 630.645 966.117 632.676C965.609 633.692 961.927 636.486 957.99 639.153C951.641 643.343 949.99 643.851 942.371 643.724C930.435 643.47 916.72 645.248 915.197 647.153C914.435 648.042 910.498 649.946 906.562 651.343C895.641 655.026 890.562 658.327 890.562 661.629C890.562 663.153 888.276 666.708 885.609 669.502C881.8 673.311 879.514 674.454 876.213 674.454C870.371 674.454 854.752 683.47 846.879 691.216C843.578 694.518 839.006 698.2 836.848 699.343C829.355 703.28 823.895 708.486 823.895 711.661C823.895 713.057 822.879 714.962 821.863 715.851C820.721 716.74 819.197 719.914 818.435 722.835C817.292 727.152 817.419 728.93 819.197 732.74C820.34 735.28 822.371 737.692 823.641 738.2C824.784 738.708 829.228 741.502 833.419 744.676C837.863 747.851 843.959 750.899 847.768 751.787C851.324 752.676 855.006 754.327 855.895 755.343C856.911 756.486 860.086 757.248 864.276 757.248C868.086 757.248 872.276 758.137 873.673 759.152C875.07 760.168 878.879 761.438 882.054 761.946C885.228 762.454 889.165 763.851 890.816 765.121C898.181 770.962 905.165 773.375 914.308 773.248C919.133 773.248 925.99 773.629 929.546 774.264C933.101 774.898 937.292 775.279 938.943 774.898C942.371 774.264 950.244 778.962 951.26 782.137C954.308 791.914 957.355 795.216 970.054 801.819C982.879 808.422 990.498 815.533 990.498 820.74C990.498 822.137 991.133 823.914 991.895 824.676C992.657 825.565 993.673 829.375 994.054 833.438C994.689 839.533 994.308 841.692 991.133 847.787C989.101 851.851 986.308 856.549 984.911 858.454C982.625 861.756 982.498 862.263 984.403 866.835C987.451 873.946 987.197 891.47 984.149 894.898C982.498 896.676 981.736 899.978 981.609 905.692C981.355 919.533 979.197 929.311 975.895 932.105C973.101 934.263 972.974 935.152 973.863 943.533C974.498 950.771 974.371 953.057 972.72 954.327C971.578 955.216 970.308 959.533 969.8 964.232C969.292 968.803 968.022 973.375 967.133 974.517C964.974 976.93 953.165 1006.14 953.165 1009.06C953.165 1010.2 949.609 1018.33 945.165 1026.96C940.72 1035.6 937.165 1044.36 937.165 1046.26C937.165 1048.3 936.276 1051.47 935.387 1053.37C934.371 1055.28 932.847 1059.98 931.832 1064.04C930.308 1070.9 927.768 1077.88 925.101 1082.83C924.339 1084.1 923.832 1086.14 923.832 1087.28C923.832 1091.34 917.355 1103.41 913.927 1105.69C912.022 1106.83 910.498 1108.61 910.498 1109.37C910.498 1110.26 908.213 1113.95 905.419 1117.76C902.498 1121.44 897.927 1128.93 895.006 1134.26C892.213 1139.72 887.26 1146.58 883.959 1149.5C880.784 1152.42 877.101 1157.37 875.705 1160.29C874.181 1163.34 872.53 1166.77 871.895 1167.79C871.26 1168.93 867.705 1176.29 863.895 1184.29C860.086 1192.17 856.149 1199.03 855.006 1199.41C853.99 1199.79 851.959 1202.33 850.562 1204.99C849.165 1207.66 845.736 1212.61 842.816 1215.79C840.022 1219.09 835.705 1225.69 833.292 1230.52C830.879 1235.34 826.181 1243.47 823.006 1248.8C819.705 1254.39 817.165 1260.1 817.165 1262.39C817.165 1264.42 816.403 1266.83 815.387 1267.72C814.371 1268.49 813.102 1273.18 812.594 1278.01C811.324 1290.71 807.26 1297.56 792.911 1311.15C776.911 1326.26 768.022 1336.68 767.514 1340.99C767.26 1343.41 766.117 1344.68 763.451 1345.31C761.419 1345.82 758.117 1347.72 755.959 1349.5C753.8 1351.41 749.609 1353.18 746.054 1353.56C742.752 1354.07 737.419 1355.85 734.244 1357.5C727.26 1361.18 718.244 1361.44 714.943 1358.26C712.403 1355.72 712.276 1352.55 714.054 1334.52C715.578 1319.79 721.546 1306.71 732.848 1293.12C740.721 1283.72 749.102 1267.47 749.229 1261.63C749.229 1260.23 752.149 1254.77 755.832 1249.31C759.514 1243.85 762.562 1238.14 762.562 1236.61C762.562 1235.09 765.229 1230.64 768.53 1226.96C771.832 1223.15 777.292 1214.52 780.594 1207.79C783.895 1201.06 788.975 1192.42 791.895 1188.61C794.816 1184.68 797.229 1180.99 797.229 1180.23C797.229 1179.47 797.99 1178.2 799.006 1177.31C801.038 1175.53 802.054 1170.96 803.705 1155.22C804.721 1146.45 805.99 1142.26 811.07 1132.49C814.371 1125.88 817.165 1119.79 817.165 1119.03C817.165 1118.14 818.054 1116.74 819.07 1115.98C820.086 1115.09 822.244 1110.14 823.895 1105.06C827.451 1093.5 831.26 1089.95 838.879 1091.22C842.816 1091.85 844.594 1091.6 846.244 1089.95C847.514 1088.68 850.435 1086.52 852.848 1085.12C855.387 1083.6 858.181 1080.3 859.705 1076.87C869.355 1055.28 875.832 1040.04 876.594 1037.25C877.101 1035.6 879.26 1030.39 881.292 1025.95C883.451 1021.5 885.101 1016.68 885.101 1015.15C885.101 1010.71 890.943 1001.18 894.117 1000.3C896.403 999.787 897.165 998.644 897.165 995.851C897.165 991.406 901.863 975.787 905.165 969.184C908.594 962.327 909.355 952.295 906.689 949.502C905.038 947.851 904.53 944.803 904.657 936.295C904.657 930.2 905.419 924.486 906.308 923.47C907.959 921.438 906.308 910.263 903.006 900.486C901.99 897.565 900.847 892.359 900.34 888.803C899.451 882.708 898.181 881.057 896.403 883.978C895.895 884.74 893.99 884.994 891.832 884.486C885.99 883.216 881.673 886.263 869.101 900.232C857.165 913.565 850.308 922.835 849.165 926.898C848.53 929.311 825.8 953.692 799.895 980.105C792.149 987.851 784.657 996.486 783.26 999.152C781.863 1001.82 779.578 1004.61 778.181 1005.37C776.911 1006.01 775.006 1008.55 773.99 1010.96C772.975 1013.5 769.038 1018.07 765.102 1021.25C761.292 1024.55 754.054 1030.9 749.102 1035.34C744.276 1039.91 737.673 1044.87 734.625 1046.52C731.451 1048.04 723.07 1055.03 715.832 1061.88L702.625 1074.45L694.752 1074.45C688.403 1074.45 686.498 1075.09 684.34 1077.5C679.768 1082.58 673.165 1093.63 672.403 1097.18C672.022 1098.96 671.133 1101.5 670.372 1102.77C668.467 1106.45 668.975 1119.41 671.133 1124.74C673.927 1131.34 673.673 1133.12 669.356 1141.12C667.197 1144.93 665.8 1149.25 666.054 1150.52C666.816 1153.18 663.768 1159.79 660.721 1162.33C659.578 1163.34 658.308 1165.76 657.8 1167.91C657.419 1169.95 654.879 1176.55 652.467 1182.52C649.927 1188.49 647.895 1194.2 647.895 1195.09C647.895 1196.1 646.625 1198.39 645.229 1200.17C643.324 1202.58 642.435 1205.63 642.435 1210.07C642.435 1213.63 641.927 1220.1 641.165 1224.42C640.149 1230.9 640.276 1232.55 641.927 1233.82C645.102 1236.1 642.943 1239.41 635.705 1243.47C632.022 1245.37 627.832 1249.06 626.181 1251.6C619.07 1263.15 593.546 1288.55 585.673 1291.98C572.975 1297.31 569.673 1294.52 568.403 1277.12C567.007 1259.72 569.546 1250.71 584.022 1220.49C588.848 1210.2 594.435 1195.34 595.832 1188.49C596.467 1185.56 597.864 1181.37 599.006 1179.22C600.149 1176.93 601.165 1174.39 601.165 1173.37C601.165 1172.49 603.578 1166.77 606.499 1160.8C609.673 1154.45 611.832 1148.1 611.832 1145.31C611.832 1142.64 613.737 1131.85 615.895 1121.18C618.054 1110.52 619.832 1099.09 619.832 1095.66C619.832 1091.85 620.975 1087.41 623.006 1083.72C624.657 1080.42 626.816 1074.45 627.832 1070.52C628.721 1066.45 630.118 1061.37 630.753 1059.22C631.387 1056.93 632.276 1047.66 632.657 1038.52C632.911 1029.37 633.8 1019.09 634.562 1015.79C635.197 1012.61 636.086 998.136 636.34 983.787C636.721 969.565 637.356 952.422 637.864 945.819C638.753 934.771 638.499 932.994 634.816 921.819C631.133 910.771 630.753 907.978 630.118 886.01C629.483 862.517 629.483 862.136 625.673 856.803C622.372 852.232 620.594 851.089 613.229 849.057C599.641 845.248 594.943 845.756 585.8 851.724C575.768 858.327 558.499 875.978 558.499 879.66C558.499 881.184 556.975 886.39 554.943 891.216C551.895 898.962 551.641 900.486 553.038 905.565C554.054 909.121 554.181 912.676 553.419 915.216C552.784 917.375 552.784 924.613 553.292 931.216C553.8 937.819 553.673 944.168 553.038 945.311C552.403 946.581 552.403 952.676 553.038 959.406C553.8 968.549 555.07 972.994 558.372 979.47C560.657 984.041 563.07 987.851 563.705 987.851C566.118 987.851 570.562 996.867 570.562 1001.69C570.562 1004.36 571.07 1006.52 571.705 1006.52C572.467 1006.52 574.626 1009.69 576.53 1013.5C579.324 1018.96 579.832 1021.63 579.197 1025.56C578.689 1029.5 579.197 1032.3 581.864 1037.37C584.276 1042.33 585.038 1045.37 584.403 1048.55C583.895 1051.09 584.53 1055.41 585.673 1059.09C588.467 1067.09 588.467 1080.3 585.8 1082.96C584.784 1084.1 583.768 1087.03 583.768 1089.44C583.768 1094.14 578.562 1101.37 574.118 1102.9C568.53 1104.93 565.229 1102.52 560.276 1092.74C557.61 1087.41 553.546 1080.17 551.134 1076.49C548.721 1072.8 544.149 1064.42 541.102 1057.82C537.927 1051.22 531.324 1040.3 526.245 1033.56C521.165 1026.71 515.07 1017.44 512.657 1012.87C503.895 996.232 502.118 993.438 498.943 992.041C496.403 990.898 495.895 989.501 495.895 985.311C495.895 973.755 488.022 951.533 481.419 944.549C478.88 941.755 477.102 941.121 471.388 941.121C462.753 941.121 454.118 946.073 445.102 955.978C441.927 959.66 434.943 965.501 429.864 968.93C424.657 972.486 416.023 980.359 409.927 987.216C403.959 993.819 394.816 1002.45 389.483 1006.39C377.038 1015.79 375.769 1019.98 379.832 1041.56C381.61 1051.6 381.61 1052.23 378.816 1057.56C377.292 1060.61 374.88 1066.45 373.737 1070.52C370.689 1080.17 368.15 1083.85 355.07 1096.68C348.975 1102.64 342.753 1110.01 341.229 1113.06C336.023 1123.22 331.705 1121.69 329.292 1109.12C328.404 1104.68 326.626 1098.45 325.356 1095.41C322.689 1089.44 319.388 1071.03 320.404 1069.25C320.785 1068.61 320.277 1062.14 319.261 1054.77C317.737 1043.85 316.467 1039.53 312.277 1032.04C305.038 1018.71 304.023 1018.45 295.515 1026.83C291.705 1030.77 286.88 1036.36 284.848 1039.53C282.816 1042.58 279.007 1047.79 276.213 1050.83C273.293 1054.01 269.356 1059.22 267.197 1062.52C259.451 1074.71 253.229 1081.06 247.515 1082.58C243.959 1083.6 240.277 1086.01 237.229 1089.31C233.166 1093.76 231.642 1094.52 227.197 1094.52C220.086 1094.52 213.483 1090.33 210.943 1084.1C209.039 1079.53 209.039 1078.9 211.197 1075.22C212.467 1072.93 215.261 1066.33 217.293 1060.49C220.34 1051.72 222.118 1048.8 227.578 1043.85C235.324 1036.87 241.039 1028.61 246.753 1016.42C249.039 1011.6 251.578 1007.28 252.594 1007.03C253.483 1006.64 255.261 1001.69 256.531 996.105C260.594 977.819 261.229 976.041 264.277 972.232C271.007 963.978 274.308 955.978 275.959 943.533L277.483 931.216L271.515 919.66C268.213 913.311 263.769 905.565 261.483 902.39C254.753 892.486 251.578 885.121 250.816 877.375C250.435 872.676 248.15 865.692 244.975 858.835C242.181 852.867 239.896 846.01 239.896 843.851C239.769 841.565 239.134 835.597 238.372 830.645C236.975 822.137 236.975 821.375 240.277 814.898C242.181 811.089 244.213 805.502 244.594 802.327C245.737 795.597 252.467 781.121 254.626 781.121C256.658 781.121 266.562 790.771 266.562 792.803C266.562 793.692 267.578 795.597 268.848 796.867C270.118 798.264 272.658 801.692 274.562 804.613C276.467 807.533 279.261 811.597 280.658 813.756C284.34 819.216 284.467 819.47 290.689 830.898C293.864 836.486 297.039 841.184 297.927 841.184C298.943 841.184 301.864 844.74 304.785 849.057C307.578 853.248 310.372 857.692 311.134 858.835C311.896 859.978 315.197 861.121 318.88 861.502C324.467 862.136 325.737 861.756 331.197 857.438C335.642 854.01 337.8 851.089 339.451 846.137C341.102 841.438 344.277 837.121 350.118 831.279C354.689 826.708 359.515 820.486 360.911 817.057C362.308 813.756 364.594 809.946 365.737 808.803C368.277 806.264 375.134 805.756 376.53 807.914C377.038 808.803 379.07 808.93 381.356 808.422C384.657 807.787 385.927 808.295 389.991 812.74C392.657 815.533 397.229 821.121 400.276 825.184C404.975 831.533 405.737 833.565 405.991 839.787C406.372 848.676 403.451 854.01 396.594 857.692C393.292 859.47 391.261 861.883 389.61 866.2C388.34 869.502 385.292 874.327 382.753 876.994C380.34 879.66 377.673 882.962 376.911 884.486C376.023 885.883 372.213 889.946 368.404 893.502C364.467 897.057 360.658 902.009 359.896 904.422C359.007 906.835 357.229 909.883 355.959 911.152C352.15 914.454 351.642 920.676 353.927 932.486C357.102 949.121 360.404 952.295 372.467 950.517C384.53 948.867 389.991 946.327 392.657 941.375C394.054 938.835 398.245 934.898 402.435 932.232C406.499 929.565 410.308 926.644 410.943 925.628C411.451 924.613 413.864 922.835 416.276 921.692C420.467 919.406 441.165 899.47 441.165 897.565C441.165 896.93 442.562 895.914 444.213 895.152C446.499 894.136 447.261 892.613 447.515 887.66C447.896 882.962 448.911 880.676 451.959 877.756C454.118 875.724 455.895 872.676 455.895 871.152C455.895 867.851 458.689 864.93 461.229 865.438C463.515 865.946 465.165 857.184 464.276 849.184C463.261 839.025 460.848 831.533 455.388 821.248L450.054 811.216L448.911 788.232C447.642 761.438 448.276 758.391 457.292 751.914C464.403 746.708 479.642 739.597 481.292 740.613C481.927 740.994 482.562 742.137 482.562 743.152C482.562 744.041 483.578 745.184 484.975 745.565C486.499 745.946 488.022 748.359 489.038 752.676C490.054 756.232 491.578 761.438 492.594 764.232C493.61 767.026 494.499 770.835 494.499 772.867C494.499 776.549 495.261 778.2 500.848 786.581C503.007 789.883 503.768 793.184 503.768 798.137C503.768 802.073 504.403 805.121 505.165 805.121C505.927 805.121 506.562 807.152 506.562 809.692C506.562 812.105 507.451 814.898 508.467 815.787C509.61 816.803 510.499 818.2 510.499 819.216C510.499 821.248 521.927 831.914 524.086 831.787C530.181 831.787 538.689 828.105 541.483 824.422C545.038 819.724 554.562 810.962 561.165 806.517C570.308 800.295 577.038 794.073 577.673 791.152C578.181 789.502 579.705 787.851 581.102 787.47C582.499 787.089 585.165 783.914 586.943 780.359C588.721 776.803 591.133 772.105 592.276 769.819C593.546 767.533 594.689 760.295 595.324 752.422C596.086 739.851 595.959 738.708 593.419 736.168C589.737 732.359 585.927 730.454 582.118 730.454C578.181 730.454 570.562 725.629 562.562 717.883C556.848 712.422 555.959 712.041 547.324 711.533L538.181 711.026L531.324 703.406C521.546 692.486 518.245 691.47 496.022 692.613C482.562 693.248 475.197 694.391 467.832 696.676C462.372 698.454 456.657 699.851 455.261 699.851C453.991 699.851 448.657 702.01 443.705 704.549C434.816 708.994 434.054 709.121 419.451 709.121C405.61 709.121 403.705 709.502 394.435 713.311C388.975 715.597 383.261 718.391 381.864 719.406C380.34 720.422 375.769 721.184 370.816 721.184C360.023 721.184 344.15 723.597 339.578 726.01C337.546 727.026 333.991 727.787 331.705 727.787C329.419 727.787 321.419 730.708 313.927 734.137C306.562 737.438 297.546 740.74 293.864 741.375C271.388 744.93 266.943 746.2 254.499 753.184C238.753 761.819 237.356 763.089 236.467 769.057C235.324 776.041 233.547 779.851 231.261 779.851C229.991 779.851 228.975 781.756 228.467 784.803C228.086 787.597 226.816 791.787 225.8 794.2C224.658 796.613 223.896 802.2 223.896 806.517C223.896 810.835 223.261 814.771 222.499 815.152C221.737 815.66 221.229 817.438 221.229 819.089C221.229 820.74 220.34 822.898 219.324 823.787C218.054 824.803 217.166 830.137 216.404 840.93C215.769 851.978 214.626 858.835 212.467 864.676C210.816 869.121 209.039 877.502 208.531 883.343C208.023 889.057 207.007 895.914 206.118 898.454C205.102 901.629 204.721 913.184 204.975 932.232C205.356 959.533 205.229 961.565 202.689 966.517C201.039 969.565 199.896 974.009 199.896 976.549C199.896 979.089 199.261 981.12 198.499 981.12C196.594 981.12 197.483 1030.39 199.642 1039.03C200.658 1043.72 200.785 1046.14 199.769 1047.28C198.753 1048.42 198.753 1050.45 199.642 1053.88C200.785 1057.69 200.531 1060.1 199.007 1064.3C196.721 1070.26 192.785 1110.9 194.054 1114.96C195.197 1119.03 191.515 1172.36 189.991 1174.39C188.975 1175.66 188.467 1191.79 188.34 1223.66C187.959 1279.41 186.435 1293.76 179.324 1307.6C178.181 1309.88 177.166 1312.42 177.166 1313.18C177.166 1314.07 175.261 1317.37 172.975 1320.55C170.055 1324.74 169.039 1327.28 169.674 1329.56C170.308 1331.98 169.42 1333.76 165.61 1337.31C159.515 1343.15 148.975 1359.41 149.356 1362.33C149.737 1364.36 147.324 1367.66 140.086 1375.41C137.801 1377.95 136.023 1378.58 132.086 1378.33L127.134 1377.82L126.499 1363.85C125.991 1354.07 125.102 1348.61 123.451 1345.56C120.404 1339.98 120.531 1339.09 125.229 1330.07C128.531 1323.6 129.166 1320.8 129.166 1312.8C129.166 1307.47 129.801 1301.12 130.689 1298.45C134.753 1286.14 136.531 1208.42 133.229 1193.56C131.705 1186.71 131.705 1183.91 133.102 1177.56C134.88 1169.18 137.674 1111.03 137.674 1079.79C137.801 1062.52 136.785 1051.34 133.356 1027.85C132.721 1023.79 130.562 1017.31 128.531 1013.25C126.499 1009.31 124.086 1002.33 123.197 997.882C122.182 993.438 121.039 988.232 120.531 986.327C119.769 983.533 120.15 982.39 122.436 981.247C124.594 980.105 125.229 978.454 125.229 973.247C125.229 966.136 129.039 951.787 130.816 951.787C131.451 951.787 131.959 945.438 131.705 937.565C131.578 924.994 131.959 922.327 134.626 916.486C137.42 910.517 137.801 907.724 138.182 886.517C138.562 865.692 138.943 862.517 141.483 857.184C144.023 851.978 144.531 848.041 145.293 827.216C145.801 814.01 146.943 800.422 147.705 797.121C149.229 790.391 149.61 779.597 148.34 773.375C147.832 770.581 146.055 768.295 142.88 766.391C133.356 760.422 132.34 753.946 140.467 750.137C143.007 748.867 146.562 745.565 148.34 742.771C151.134 738.327 153.039 737.184 160.785 734.645C165.864 732.994 173.356 731.216 177.547 730.708C181.737 730.073 185.42 729.438 185.674 729.057C185.928 728.803 188.467 723.851 191.261 718.01C194.054 712.295 197.61 706.708 199.134 705.692C203.959 702.518 225.673 694.518 229.356 694.518C231.261 694.518 233.673 693.629 234.562 692.359C235.832 690.962 237.483 690.581 240.404 691.089C251.324 693.375 253.229 693.375 256.404 691.343C258.308 690.2 260.721 689.184 261.737 689.184C262.88 689.184 263.896 688.295 263.896 687.28C263.896 684.867 266.816 683.851 273.8 683.851C277.229 683.851 280.15 683.089 281.165 681.819C282.054 680.803 284.213 679.787 285.991 679.787C287.769 679.787 289.165 679.406 289.165 678.899C289.165 675.978 299.705 672.422 311.388 671.28C313.038 671.153 315.07 670.391 316.086 669.629C317.102 668.994 322.054 667.343 327.134 666.073C332.34 664.676 338.943 662.518 341.864 661.248C351.261 656.93 354.562 655.787 357.864 655.787C359.642 655.787 361.546 655.026 362.054 654.01C363.07 652.486 368.911 650.327 378.562 648.295C380.34 647.787 382.88 646.645 384.15 645.502C385.419 644.359 387.578 643.851 389.102 644.232C390.626 644.613 395.832 643.216 400.784 641.057C405.737 639.026 411.451 637.248 413.356 637.248C415.261 637.248 417.292 636.232 417.673 635.089C418.308 633.565 419.578 633.184 422.245 633.819C424.53 634.327 426.816 633.819 428.467 632.549C429.991 631.534 432.657 630.645 434.562 630.518C436.467 630.518 440.022 628.994 442.562 627.089C446.499 624.168 448.022 623.788 453.483 624.549C458.689 625.311 461.102 624.803 467.451 621.883C473.927 618.835 477.991 618.073 493.864 616.93C504.149 616.168 515.832 615.915 519.895 616.168C528.53 616.93 556.721 615.153 565.229 613.375C568.403 612.613 574.753 611.343 579.197 610.581C583.514 609.692 590.753 607.788 595.197 606.264C601.292 604.232 606.499 603.597 616.911 603.724C632.149 603.851 636.467 605.121 635.07 609.438C634.181 612.359 636.975 629.121 638.372 629.121C641.038 629.121 642.943 640.168 642.689 654.01C642.308 668.613 642.308 668.74 645.864 671.026C648.022 672.422 654.118 673.819 661.61 674.581C682.562 676.74 685.991 677.883 691.959 685.502C694.752 689.057 697.165 692.867 697.165 693.756C697.165 694.772 699.07 699.216 701.483 703.914C705.292 711.153 705.927 713.819 706.181 723.724C706.816 742.01 706.689 747.851 705.038 759.406C703.768 768.168 703.768 771.216 705.165 774.518C706.181 776.803 706.816 780.359 706.816 782.391C706.689 787.597 702.498 800.041 699.959 802.962C698.562 804.613 697.673 808.676 697.419 815.025C696.911 826.2 696.911 823.66 697.165 853.121C697.165 866.073 697.292 878.01 697.165 879.787C697.165 881.692 697.419 899.724 697.673 919.787C698.181 950.644 698.562 957.375 700.467 961.819C703.387 968.549 704.403 969.184 711.895 969.184C717.229 969.184 718.625 968.549 722.054 964.867C724.213 962.454 728.149 958.771 730.816 956.74C733.483 954.581 735.895 951.279 736.276 949.121C736.784 946.962 738.181 945.057 739.705 944.549C741.229 944.041 744.657 939.343 747.705 933.628C754.181 921.819 764.213 908.359 767.514 907.216C770.181 906.327 776.403 896.93 777.673 891.851C778.054 890.073 781.482 885.248 785.165 881.184C793.546 872.168 801.165 857.184 801.165 849.819C801.292 846.898 802.689 840.422 804.467 835.343C807.641 825.946 807.641 822.517 804.34 822.517C803.324 822.517 802.562 821.502 802.562 820.359C802.562 819.216 800.911 817.057 799.006 815.533C797.102 814.01 795.197 811.597 794.562 809.946C793.546 807.406 792.53 807.152 780.975 807.152C774.117 807.152 763.832 806.645 758.117 806.01L747.832 804.74L744.657 797.756C742.752 793.819 739.578 787.978 737.419 784.93C733.102 778.327 730.181 770.835 731.324 768.93C731.832 768.168 732.086 757.883 732.086 746.073C732.086 734.264 732.594 723.851 733.229 723.089C733.864 722.454 735.514 715.724 737.038 708.359C741.229 687.914 744.657 679.406 751.895 671.661C754.181 669.121 756.594 665.819 757.229 664.168C757.99 662.264 759.387 661.248 760.784 661.502C762.181 661.629 763.07 661.121 762.816 660.232C762.689 659.216 763.197 658.454 764.213 658.454C768.022 658.327 777.419 647.28 778.943 640.803C779.578 638.645 781.229 636.613 783.006 635.851C784.784 635.216 790.498 629.756 795.832 623.661C806.371 611.47 815.641 602.454 817.546 602.454C818.181 602.454 820.594 601.057 822.752 599.153C824.911 597.375 828.086 595.851 829.736 595.851C831.641 595.851 833.292 594.708 834.181 592.677C836.594 587.343 843.959 579.851 846.752 579.851C850.689 579.851 854.498 577.311 854.498 574.772C854.498 573.248 856.276 571.724 859.197 570.708C861.736 569.819 863.895 568.169 863.895 567.153C863.895 564.867 879.895 548.613 887.895 542.772C898.308 535.153 908.086 529.184 909.863 529.184C910.879 529.184 912.53 528.296 913.673 527.153C915.451 525.375 934.498 518.137 934.498 519.28C934.498 520.296 947.324 512.677 949.609 510.264C951.387 508.486 953.038 507.851 954.943 508.613C959.768 510.137 963.705 509.629 970.308 506.454C973.736 504.804 978.943 502.391 981.863 500.994C984.911 499.597 988.339 498.835 989.609 499.216C992.53 500.359 1004.85 497.438 1005.61 495.407C1005.99 494.391 1010.94 493.756 1019.7 493.502C1032.66 493.121 1033.29 493.248 1037.86 496.804ZM1372.72 566.137C1373.99 567.788 1375.51 567.788 1382.5 566.391C1389.1 565.121 1391.77 565.121 1396.21 566.518C1405.35 569.438 1411.83 573.629 1412.85 577.184C1414.62 583.026 1413.48 598.645 1411.2 601.057C1410.05 602.327 1409.16 604.359 1409.16 605.502C1409.16 606.645 1408.28 609.692 1407.13 612.359C1406.12 614.899 1405.1 618.708 1405.1 620.867C1405.1 622.899 1403.96 626.581 1402.31 629.121C1399.89 633.184 1399.77 634.2 1401.29 638.772C1402.56 642.835 1402.56 645.375 1401.42 650.2C1400.66 653.756 1400.02 662.645 1400.02 670.264C1400.02 693.121 1395.07 696.803 1374.37 689.819C1362.43 685.756 1353.42 685.502 1348.85 689.184C1346.94 690.708 1344.78 691.851 1344.02 691.851C1343.26 691.851 1342.24 692.486 1341.74 693.248C1340.21 695.914 1337.29 709.756 1337.16 715.089C1337.16 717.883 1336.02 722.073 1334.62 724.359C1332.34 727.914 1332.09 730.581 1332.47 739.851C1332.72 746.073 1333.86 753.946 1335.13 757.121C1336.28 760.422 1337.67 768.803 1338.05 775.66C1338.82 787.216 1339.2 788.486 1343.26 793.311C1347.7 798.645 1351.26 806.898 1349.99 808.93C1348.97 810.581 1352.15 825.692 1354.05 827.978C1355.7 830.137 1359.89 841.692 1359.89 844.486C1359.89 845.502 1359.26 846.517 1358.62 846.771C1358.12 847.025 1356.34 850.073 1354.82 853.502C1351.39 861.375 1347.07 863.787 1340.72 861.375C1330.69 857.819 1327.39 859.597 1319.01 873.057C1314.05 881.057 1312.02 890.454 1314.31 895.152C1316.72 900.613 1313.93 906.581 1305.67 913.184C1294.24 922.454 1290.56 926.517 1290.56 929.946C1290.56 933.248 1281.67 949.121 1278.88 950.898C1277.99 951.533 1277.23 953.438 1277.23 955.216C1277.23 956.867 1276.47 958.771 1275.7 959.279C1274.69 959.914 1274.56 962.454 1275.07 966.39C1275.58 970.835 1275.2 974.009 1273.8 976.93C1271.51 981.501 1272.02 987.978 1274.94 990.39C1275.83 991.025 1281.67 992.041 1287.89 992.549C1296.53 993.184 1300.47 992.93 1305.04 991.279C1312.53 988.613 1316.72 988.613 1318.24 991.406C1318.88 992.549 1320.15 993.184 1321.04 992.549C1321.8 992.041 1322.18 991.025 1321.67 990.263C1321.04 989.247 1321.8 989.12 1323.96 989.628C1328.15 990.644 1341.1 987.47 1338.69 985.946C1335.89 984.295 1339.45 982.517 1346.05 982.517C1348.97 982.517 1353.8 981.501 1356.59 980.359C1363.2 977.692 1372.09 978.708 1378.43 983.025C1381.1 984.803 1385.29 986.962 1387.83 987.724C1392.78 989.247 1398.5 996.486 1398.5 1001.06C1398.5 1003.98 1392.28 1009.06 1379.83 1016.55C1375.01 1019.34 1366.62 1024.8 1361.16 1028.61C1349.23 1036.87 1342.88 1039.91 1327.89 1044.49C1314.94 1048.3 1313.93 1048.93 1296.91 1062.64C1285.23 1072.04 1284.09 1073.56 1278.12 1085.25C1268.21 1104.8 1260.72 1118.52 1256.15 1125.76C1253.74 1129.31 1251.45 1134.39 1251.07 1136.8C1250.56 1139.34 1248.4 1145.95 1246.12 1151.53C1243.96 1157.25 1241.8 1164.99 1241.55 1168.8C1241.04 1175.03 1241.29 1175.79 1244.34 1177.82C1246.37 1179.22 1248.78 1179.72 1250.43 1179.22C1251.96 1178.71 1255.51 1178.2 1258.18 1177.95C1260.97 1177.69 1267.07 1175.41 1271.89 1172.87C1282.05 1167.41 1285.48 1166.77 1314.94 1165.76C1327.39 1165.37 1338.43 1164.49 1339.7 1163.85C1340.85 1163.22 1344.66 1162.33 1348.09 1161.82C1352.66 1161.31 1354.43 1160.42 1354.94 1158.52C1355.58 1155.72 1359.13 1154.96 1360.53 1157.12C1360.91 1157.88 1364.59 1158.52 1368.53 1158.52C1377.04 1158.52 1379.45 1160.93 1376.53 1166.52C1374.24 1170.71 1354.94 1189.37 1350.5 1191.66C1338.43 1197.63 1338.18 1197.88 1337.8 1210.71C1337.67 1216.8 1336.91 1226.33 1336.02 1231.79C1333.99 1246.01 1335.51 1288.55 1338.18 1293.88C1339.45 1296.29 1340.34 1302.26 1340.59 1309.63C1340.85 1318.64 1341.48 1321.95 1343.26 1323.98C1345.67 1326.64 1347.58 1334.26 1348.72 1345.95C1349.23 1350.77 1348.59 1355.6 1346.56 1361.82C1345.04 1366.77 1343.89 1372.74 1343.89 1375.02C1343.89 1377.44 1343.13 1380.1 1342.12 1380.99C1341.1 1382.01 1340.34 1386.96 1340.21 1393.56C1339.7 1413.76 1336.15 1440.8 1333.61 1444.1C1332.85 1445.12 1331.45 1448.04 1330.56 1450.83C1329.67 1453.63 1326.62 1457.95 1323.83 1460.61C1321.04 1463.28 1317.1 1468.61 1315.07 1472.29C1313.04 1476.1 1309.74 1481.31 1307.7 1483.98C1305.55 1486.64 1301.99 1492.49 1299.7 1496.93C1297.42 1501.37 1293.48 1506.96 1290.94 1509.5C1279.39 1520.29 1277.1 1522.96 1277.48 1524.87C1277.74 1526.77 1276.34 1527.02 1267.2 1526.9C1261.35 1526.77 1247.89 1526.01 1237.36 1525.12C1222.5 1523.72 1216.78 1523.72 1212.34 1524.99C1203.96 1527.15 1197.74 1526.9 1180.97 1523.6C1169.93 1521.44 1165.1 1519.91 1161.42 1517.12C1151.51 1509.63 1131.07 1494.52 1128.02 1492.49C1123.7 1489.31 1122.31 1484.74 1121.8 1471.66C1121.42 1461.88 1120.66 1458.83 1116.59 1450.2C1112.53 1441.69 1111.89 1438.9 1111.89 1430.77C1111.89 1425.56 1110.62 1411.85 1109.1 1400.29C1106.05 1376.68 1106.82 1361.82 1111.89 1348.99C1114.69 1341.88 1115.45 1332.1 1113.8 1323.47C1113.16 1320.17 1113.42 1317.76 1114.56 1316.49C1115.58 1315.22 1115.83 1312.68 1115.32 1309.25C1114.69 1304.93 1114.82 1304.04 1116.34 1304.68C1117.74 1305.18 1118.5 1303.79 1119.13 1299.6C1119.77 1296.42 1120.66 1292.87 1121.29 1291.72C1121.93 1290.58 1123.07 1282.96 1123.96 1274.83L1125.61 1259.98L1121.67 1251.85C1117.1 1242.2 1114.94 1240.55 1103.77 1238.39C1092.97 1236.36 1074.43 1228.87 1068.34 1224.29C1065.04 1221.88 1063.89 1219.85 1063.89 1217.06C1063.89 1212.87 1065.93 1211.34 1073.55 1209.95C1076.34 1209.44 1079.01 1208.17 1079.39 1207.03C1080.02 1205.5 1081.29 1205.12 1084.72 1205.76C1088.91 1206.64 1095.39 1205.37 1112.53 1200.42C1116.21 1199.41 1132.09 1196.99 1147.83 1195.22C1168.02 1192.68 1177.04 1191.15 1178.69 1189.63C1180.09 1188.49 1183.77 1187.47 1187.45 1187.34C1193.16 1187.22 1193.93 1186.83 1194.31 1183.79C1194.56 1182.01 1195.32 1179.72 1196.09 1178.83C1198.12 1176.55 1196.21 1162.07 1192.4 1150.9C1190.63 1145.69 1189.1 1139.98 1189.1 1138.33C1189.1 1136.55 1188.21 1132.23 1187.2 1128.55C1183.51 1116.49 1172.09 1109.76 1148.59 1105.82C1139.32 1104.29 1133.48 1102.64 1132.34 1101.25C1125.48 1092.87 1109.61 1077.12 1106.69 1075.98C1104.78 1075.22 1096.02 1072.55 1087.13 1069.88C1060.85 1062.01 1054.63 1059.72 1044.34 1054.39C1037.74 1050.83 1032.78 1049.18 1029.23 1049.18C1025.8 1049.18 1023.39 1048.42 1022.24 1046.9C1016.4 1039.28 1001.67 1026.58 997.482 1025.56C992.022 1024.3 989.482 1019.09 992.403 1015.03C993.8 1013.12 995.705 1012.87 1003.58 1013.5C1009.16 1013.88 1013.61 1013.63 1014.37 1012.74C1015.39 1011.85 1016.78 1011.85 1018.94 1012.87C1023.01 1014.64 1033.04 1013.5 1036.09 1010.83C1037.74 1009.44 1039.77 1009.18 1042.82 1009.82C1052.21 1011.72 1065.16 1012.23 1065.16 1010.58C1065.16 1009.69 1062.75 1009.18 1058.43 1009.31C1054.75 1009.44 1051.45 1009.18 1050.94 1008.68C1050.05 1007.91 1097.55 1007.03 1103.13 1007.79C1104.66 1007.91 1109.61 1008.42 1114.18 1008.8C1122.05 1009.44 1122.56 1009.31 1122.56 1006.52C1122.56 1004.1 1123.07 1003.72 1125.74 1004.36C1129.16 1005.25 1139.83 1001.69 1139.83 999.787C1139.83 997.374 1147.58 994.581 1151.77 995.343C1154.69 995.978 1155.96 995.597 1156.59 994.2C1157.48 991.66 1171.32 985.311 1178.18 984.168C1183.01 983.406 1188.34 979.089 1192.91 972.105C1194.69 969.311 1194.69 968.803 1191.77 965.755C1189.48 963.343 1187.32 962.454 1183.51 962.454C1180.72 962.454 1171.7 961.057 1163.58 959.152C1155.45 957.375 1147.83 955.851 1146.56 955.851C1145.29 955.851 1141.86 954.073 1138.94 952.041C1134.88 949.121 1132.97 946.327 1130.94 940.359C1127.89 931.597 1125.74 922.327 1124.47 912.549C1123.96 908.867 1122.82 904.803 1121.8 903.279C1120.78 901.883 1120.15 899.47 1120.53 897.946C1121.42 894.644 1112.78 876.359 1106.31 867.851C1096.91 855.279 1094.5 850.962 1094.5 846.644C1094.5 840.676 1085.86 815.152 1081.8 808.93C1080.02 806.137 1078.5 803.089 1078.5 802.073C1078.5 800.93 1080.78 795.597 1083.7 790.01C1089.93 777.819 1090.69 774.01 1091.07 755.851C1091.2 747.978 1092.09 739.724 1093.1 737.057C1095.26 731.216 1094.37 728.295 1090.05 726.518C1088.28 725.883 1086.37 724.74 1085.86 723.851C1085.36 723.089 1082.56 721.184 1079.51 719.66C1073.04 716.359 1056.53 715.724 1045.61 718.391C1039.01 720.041 1038.5 719.914 1026.31 714.835C1018.82 711.787 1013.61 708.867 1013.48 707.47C1013.1 706.073 1015.77 703.787 1021.48 700.613C1026.05 697.946 1032.28 694.264 1035.2 692.486C1038.12 690.581 1041.67 688.549 1043.2 687.914C1054.75 682.835 1058.94 681.184 1060.72 681.184C1061.86 681.184 1065.16 679.026 1067.96 676.486C1072.28 672.676 1074.18 671.787 1079.01 671.787C1082.94 671.787 1086.37 670.772 1089.67 668.486C1092.47 666.708 1095.01 665.184 1095.39 665.184C1095.77 665.184 1097.55 664.042 1099.45 662.518C1101.61 660.867 1104.91 659.851 1108.47 659.851C1112.78 659.851 1115.32 658.835 1119.26 655.787C1122.18 653.502 1124.72 651.216 1125.1 650.581C1125.48 649.946 1129.67 649.438 1134.37 649.311C1139.83 649.184 1143.39 648.549 1144.4 647.28C1145.29 646.137 1150.12 645.121 1157.86 644.613C1166.12 643.978 1170.18 643.089 1170.94 641.692C1171.45 640.676 1173.1 639.787 1174.63 639.787C1176.02 639.787 1177.55 638.899 1178.05 637.883C1178.43 636.74 1179.83 635.851 1181.1 635.851C1182.5 635.851 1184.28 634.962 1185.16 633.819C1186.18 632.549 1189.23 631.787 1193.67 631.787C1201.55 631.787 1204.72 630.264 1209.8 624.168C1212.47 620.994 1214.5 619.851 1217.67 619.851C1219.96 619.851 1223.89 618.581 1226.56 617.057C1229.1 615.407 1234.18 613.121 1237.99 611.851C1244.72 609.438 1249.42 607.153 1253.23 604.359C1254.24 603.47 1258.05 602.454 1261.74 601.946C1267.7 601.057 1274.05 598.264 1275.96 595.47C1276.72 594.327 1281.04 591.915 1293.86 585.311C1298.18 583.026 1302.75 580.613 1303.89 579.978C1305.8 578.708 1312.78 575.534 1323.45 571.089C1326.62 569.819 1329.16 568.296 1329.16 567.788C1329.16 566.01 1338.43 563.597 1341.86 564.359C1343.51 564.867 1345.42 564.613 1345.8 563.851C1347.2 561.692 1370.82 563.724 1372.72 566.137ZM1101.23 566.518C1101.23 567.28 1100.47 567.788 1099.7 567.788C1098.94 567.788 1098.69 567.28 1099.2 566.518C1099.58 565.756 1100.21 565.121 1100.59 565.121C1100.85 565.121 1101.23 565.756 1101.23 566.518ZM448.403 1093.25C455.261 1096.29 456.657 1098.71 460.594 1113.18C461.864 1118.01 465.419 1129.95 468.594 1139.85C478.626 1171.47 478.372 1170.33 477.483 1181.76C476.975 1189.5 477.102 1192.04 478.245 1191.28C479.134 1190.77 479.895 1188.99 480.022 1187.47C480.149 1185.82 480.657 1187.85 481.038 1191.79C481.546 1195.85 481.419 1200.8 480.657 1202.71C479.642 1205.37 480.149 1208.17 482.816 1215.41C485.61 1223.03 486.118 1226.2 485.737 1235.22C485.356 1241.06 484.848 1247.79 484.34 1250.2C483.832 1252.87 484.213 1255.28 485.102 1256.42C486.245 1257.82 486.499 1261.37 485.864 1268.23C484.975 1276.87 485.229 1278.26 487.134 1279.02C489.038 1279.66 489.292 1280.8 488.53 1284.87C487.134 1293.25 487.388 1297.44 489.546 1298.71C490.816 1299.47 491.959 1302.77 492.467 1307.85C493.229 1313.56 494.118 1316.23 495.895 1317.25C497.419 1318.01 498.054 1319.41 497.546 1321.18C497.165 1322.83 498.181 1326.01 500.467 1329.31C502.372 1332.36 504.784 1338.2 505.673 1342.26C506.689 1347.22 508.467 1351.28 510.88 1353.69C512.911 1355.85 514.562 1358.39 514.562 1359.28C514.562 1360.17 515.324 1362.71 516.34 1364.74C521.8 1375.41 527.895 1390.77 527.895 1393.82C527.895 1399.02 530.816 1403.85 538.435 1410.96C548.213 1420.1 559.514 1425.06 574.372 1426.58C589.61 1428.1 590.88 1427.72 589.864 1421.12C589.102 1416.8 589.991 1414.14 596.975 1400.68C605.61 1384.29 610.562 1370.45 610.562 1362.96C610.562 1359.02 612.086 1356.74 620.848 1347.47C631.26 1336.42 636.213 1332.1 647.641 1324.23C654.118 1319.53 657.038 1319.02 661.356 1321.31C665.419 1323.47 666.689 1328.55 666.689 1344.17C666.816 1357.88 666.562 1358.9 663.514 1362.33C658.181 1367.91 657.419 1370.45 657.419 1382.14C657.292 1391.79 656.911 1393.69 653.61 1398.77C649.927 1404.36 649.8 1404.87 650.181 1421.63C650.562 1434.45 650.054 1440.55 648.403 1446.64C646.625 1452.61 646.245 1457.69 646.879 1466.96C647.387 1475.98 647.133 1479.53 645.864 1480.8C644.848 1481.69 643.705 1484.87 643.197 1487.79C642.689 1490.71 641.165 1495.53 639.768 1498.45C638.118 1501.88 637.102 1506.71 637.102 1512.17C637.102 1523.34 631.641 1536.68 625.673 1540.1C621.61 1542.52 621.102 1542.52 613.483 1540.36C604.467 1537.82 591.768 1538.71 589.102 1541.88C588.213 1543.02 585.8 1543.79 583.768 1543.79C581.737 1543.79 576.022 1545.95 570.943 1548.49C560.657 1553.69 537.292 1562.45 533.864 1562.45C532.721 1562.45 529.8 1561.56 527.515 1560.29C523.959 1558.52 522.308 1558.39 516.848 1559.66C513.165 1560.55 505.419 1561.18 499.578 1561.18C490.816 1561.18 486.118 1562.07 475.324 1565.75C467.832 1568.17 457.673 1571.6 452.467 1573.12C447.388 1574.77 442.562 1576.68 441.927 1577.31C441.165 1577.95 439.896 1578.45 439.007 1578.45C436.086 1578.58 408.784 1591.91 399.896 1597.75C395.07 1600.93 388.721 1604.23 385.8 1605.12C382.88 1606.14 377.8 1608.8 374.499 1611.09C369.292 1614.64 367.007 1615.28 357.229 1615.91C349.356 1616.55 342.245 1618.07 334.499 1620.87C327.769 1623.28 317.737 1625.56 309.61 1626.58C296.658 1628.1 295.896 1628.1 290.054 1625.31C285.61 1623.15 282.816 1620.48 279.769 1615.41C277.483 1611.6 271.642 1604.48 266.689 1599.53L257.927 1590.52L257.039 1576.17C256.531 1568.04 255.261 1559.28 253.991 1555.85C252.721 1552.55 249.927 1544.17 247.769 1537.18C245.61 1530.2 242.054 1519.28 239.896 1512.8C236.467 1503.15 235.324 1496.17 233.039 1472.17C231.515 1456.17 230.245 1438.01 230.372 1431.66C230.626 1421.88 229.991 1417.95 226.562 1407.02C222.626 1395.09 222.372 1392.93 222.626 1377.31C222.88 1368.04 222.499 1355.85 221.864 1350.26C220.975 1341.37 221.229 1339.34 223.515 1334.26C225.039 1331.09 226.689 1327.15 227.07 1325.63C227.959 1322.71 241.42 1313.18 244.594 1313.18C245.356 1313.18 247.134 1312.04 248.531 1310.52C251.07 1307.6 255.134 1306.96 256.531 1309.25C257.039 1310.14 258.943 1310.39 260.721 1309.88C263.896 1309.12 265.419 1308.23 275.451 1301.37C285.102 1294.9 291.959 1299.85 293.229 1314.58C293.864 1321.44 294.753 1324.36 296.531 1325.76C298.689 1327.28 298.816 1328.04 297.419 1331.09C296.531 1332.99 295.896 1337.44 295.896 1340.74C295.896 1345.69 296.15 1346.71 297.927 1345.95C299.832 1345.31 299.959 1349.88 299.832 1391.53C299.578 1417.06 298.943 1440.55 298.308 1443.72C296.785 1451.22 297.927 1456.68 301.229 1457.56C302.753 1457.95 303.896 1459.47 303.896 1460.87C303.896 1462.39 306.054 1465.06 309.356 1467.34C313.673 1470.26 316.467 1471.15 321.546 1471.15C325.991 1471.15 328.531 1470.52 328.911 1469.37C329.165 1468.36 330.943 1466.33 332.721 1464.8C337.292 1460.87 343.896 1450.2 343.896 1446.77C343.896 1445.12 344.404 1443.85 345.038 1443.85C346.308 1443.85 351.007 1434.45 356.721 1420.23C358.626 1415.66 361.546 1410.58 363.197 1408.93C365.356 1406.77 365.864 1405.37 364.975 1404.36C363.197 1402.2 366.245 1400.42 368.277 1402.33C370.181 1404.36 371.832 1404.23 371.832 1401.95C371.832 1400.93 373.356 1399.15 375.134 1398.01C382.118 1393.44 393.038 1381.37 393.419 1377.56C393.8 1374.39 394.562 1373.76 399.007 1372.99C404.34 1372.23 405.991 1370.58 407.261 1365.12C410.181 1352.93 410.562 1352.17 413.737 1351.28C417.8 1350.26 419.578 1342.9 417.292 1336.55C416.53 1334.26 415.896 1331.09 415.896 1329.56C415.896 1327.91 413.991 1322.07 411.832 1316.36C409.673 1310.64 407.896 1303.66 407.896 1300.99C407.896 1292.36 403.832 1276.74 400.403 1271.79C396.467 1266.07 396.34 1261.37 399.642 1251.72C401.038 1247.79 402.562 1239.91 403.07 1234.2C403.578 1228.49 404.848 1221.37 405.991 1218.2C407.134 1215.03 408.023 1210.33 408.023 1207.66C408.023 1204.1 408.657 1202.58 410.181 1202.33C414.626 1201.44 417.165 1177.95 414.499 1159.79C412.975 1149.12 414.245 1142.01 417.927 1141.37C419.324 1141.12 420.975 1140.49 421.483 1139.98C423.261 1138.33 427.578 1120.93 428.594 1111.79C429.483 1102.39 431.515 1098.2 436.975 1093.5C441.292 1089.95 440.784 1089.95 448.403 1093.25Z" fill="#FF0A1A"/>
<path d="M1167.89 727.153C1167.89 729.311 1169.67 731.978 1173.86 735.407C1179.45 740.105 1179.83 740.74 1179.83 747.216C1179.83 751.026 1179.2 757.502 1178.31 761.565C1177.04 767.914 1177.16 770.073 1178.94 774.899C1180.08 777.946 1181.35 784.676 1181.86 789.883C1182.88 799.152 1185.42 806.518 1187.83 806.518C1189.74 806.518 1191.64 810.962 1194.43 821.756C1196.47 830.137 1197.61 832.295 1202.43 836.613C1209.16 842.581 1210.82 845.502 1211.7 852.486C1212.34 856.93 1213.1 857.946 1215.89 858.327C1217.67 858.581 1221.61 860.867 1224.78 863.279C1227.83 865.819 1231.13 867.851 1232.15 867.851C1233.16 867.851 1235.83 865.819 1238.24 863.406C1241.8 859.724 1242.56 858.073 1242.56 852.867C1242.56 849.438 1243.45 844.105 1244.72 841.057C1246.75 836.105 1246.75 833.311 1245.35 814.645C1243.07 784.168 1243.2 778.962 1246.5 777.184C1248.78 775.914 1249.16 774.391 1249.16 764.74C1249.16 758.391 1248.53 753.057 1247.64 752.168C1246.88 751.407 1245.48 749.375 1244.59 747.597C1242.43 743.28 1228.72 736.803 1218.56 735.407C1213.74 734.772 1203.83 734.137 1196.47 734.01C1189.23 733.883 1182.5 733.375 1181.61 732.867C1180.85 732.359 1179.83 730.073 1179.32 727.914C1178.69 724.232 1178.05 723.851 1173.23 723.851C1168.4 723.851 1167.89 724.232 1167.89 727.153Z" fill="#FF0A1A"/>
<path d="M1165.36 1266.96C1163.07 1269.37 1159.01 1276.61 1156.34 1282.96C1152.15 1293.25 1151.64 1295.79 1152.28 1302.9C1152.53 1307.47 1153.29 1312.8 1153.8 1314.83C1155.2 1319.91 1153.67 1325.25 1151.13 1324.36C1149.61 1323.72 1149.23 1324.61 1149.23 1327.66C1149.23 1330.45 1149.86 1331.85 1151.13 1331.85C1153.67 1331.85 1155.45 1343.15 1153.17 1345.82C1151.51 1347.85 1151.77 1352.42 1154.31 1368.68C1155.7 1378.45 1156.47 1379.85 1159.9 1379.85C1163.2 1379.85 1164.34 1384.42 1163.32 1392.8C1162.82 1396.36 1162.56 1404.1 1162.56 1410.2C1162.69 1420.1 1163.2 1422.39 1167.9 1432.29C1173.99 1445.25 1175.9 1447.28 1183.51 1448.55C1186.69 1449.06 1190.12 1450.33 1191.26 1451.47C1193.8 1454.01 1200.28 1453.12 1208.28 1449.31C1211.32 1447.79 1219.07 1445.88 1225.55 1444.99C1235.07 1443.6 1236.97 1442.96 1235.32 1441.82C1231.26 1438.9 1233.16 1438.14 1242.56 1439.15C1250.82 1439.91 1252.47 1439.66 1256.66 1437.12C1260.09 1434.96 1262.63 1434.45 1265.93 1434.96C1268.97 1435.47 1270.5 1435.22 1270.5 1434.07C1270.63 1431.91 1275.7 1425.44 1275.83 1427.47C1275.83 1428.49 1276.47 1429.12 1277.23 1429.12C1279.26 1429.12 1278.75 1417.95 1275.83 1401.31C1274.31 1393.06 1273.16 1381.76 1273.16 1376.42C1273.16 1371.09 1272.66 1366.39 1271.9 1365.88C1269.61 1364.49 1258.43 1340.1 1258.43 1336.29C1258.43 1334.26 1257.42 1327.66 1256.02 1321.82C1254.63 1315.98 1253.1 1308.61 1252.59 1305.31C1252.09 1302.14 1250.94 1298.33 1249.8 1296.8C1248.66 1295.15 1248.28 1292.61 1248.78 1290.2C1250.43 1282.07 1237.99 1274.45 1212.47 1267.85C1203.2 1265.56 1192.66 1263.91 1183.64 1263.41L1169.55 1262.64L1165.36 1266.96Z" fill="#FF0A1A"/>
<path d="M472.53 1435.72C468.34 1437.5 458.562 1448.8 458.562 1451.85C458.562 1453.37 457.292 1456.93 455.895 1459.85C452.721 1465.82 438.752 1475.22 425.546 1479.91C420.975 1481.56 417.165 1483.34 417.165 1483.85C417.165 1484.36 415.26 1485.25 412.975 1485.63C409.546 1486.39 391.26 1494.9 389.356 1496.55C388.34 1497.56 386.816 1508.36 387.451 1510.01C388.086 1511.79 397.609 1513.06 414.752 1513.95C420.086 1514.2 429.482 1514.83 435.451 1515.34C444.213 1515.98 446.752 1515.72 448.403 1514.07C451.324 1511.15 462.879 1509.88 466.435 1512.04C469.101 1513.69 469.609 1513.56 471.514 1510.9C472.911 1508.61 474.816 1507.85 478.625 1507.85C481.419 1507.85 483.959 1507.34 484.34 1506.71C485.355 1505.06 499.451 1498.45 501.99 1498.45C505.292 1498.45 504.022 1472.04 500.213 1463.79C498.816 1460.61 497.165 1456.29 496.657 1454.52C495.641 1450.33 480.276 1434.45 477.355 1434.58C476.086 1434.71 473.927 1435.22 472.53 1435.72Z" fill="#FF0A1A"/>
<path d="M19.5783 668.994C19.3243 669.629 17.4196 670.899 15.2609 671.914C13.1021 673.057 10.1815 675.597 8.65769 677.629C6.11801 681.057 5.86404 683.343 5.73706 702.264C5.61008 713.819 5.99103 724.105 6.49896 725.121C7.13388 726.264 6.75293 731.47 5.73706 736.803C4.5942 743.026 4.34024 747.597 5.10214 749.629C5.73706 751.28 5.99103 755.089 5.73706 757.883C4.08627 775.026 3.8323 780.613 3.8323 793.819C3.95928 801.946 4.46722 810.962 5.10214 813.883C6.37198 819.597 6.75293 843.724 5.86404 856.549C4.97516 867.216 5.10214 916.867 5.86404 942.517C7.0069 980.994 6.87992 991.152 4.5942 997.882C2.18151 1004.99 1.67357 1067.98 3.95928 1071.66C5.10214 1073.44 5.22912 1075.22 4.21325 1078.01C2.30849 1083.47 2.43548 1147.22 4.34024 1164.49C5.35611 1173.76 5.48309 1182.52 4.72119 1189.63C4.08627 1195.6 3.70532 1203.47 3.70532 1207.15C3.8323 1210.83 2.81643 1216.68 1.54659 1220.23C-0.231188 1225.44 -0.358172 1227.34 0.784684 1230.9C4.72119 1241.69 5.35611 1262.01 3.19738 1305.56C1.29262 1343.91 1.80056 1349.12 7.7688 1356.74C9.29261 1358.64 10.5625 1361.06 10.5625 1362.07C10.5625 1363.22 11.9593 1366.01 13.864 1368.42C15.6418 1370.83 17.8005 1374.52 18.5624 1376.8C19.3243 1378.96 22.372 1382.52 25.2926 1384.68C38.3719 1394.07 37.4831 1393.06 36.4672 1399.53C35.9593 1402.83 35.0704 1406.77 34.5624 1408.29C33.9275 1409.95 32.6577 1413.88 31.7688 1417.18C30.7529 1420.49 29.3561 1424.04 28.4672 1425.18C27.5783 1426.33 26.3085 1429.25 25.8005 1431.79C25.2926 1434.45 24.0228 1437.75 23.0069 1439.15C21.991 1440.55 21.2291 1443.09 21.2291 1444.61C21.2291 1446.26 20.2132 1448.29 19.1974 1449.18C18.0545 1450.07 17.1656 1451.98 17.1656 1453.37C17.1656 1454.77 16.2767 1456.29 15.1339 1456.68C13.6101 1457.31 13.3561 1458.58 13.864 1461.88C14.499 1464.93 13.864 1468.23 11.9593 1472.55C10.4355 1475.98 9.16563 1480.55 9.16563 1482.58C9.16563 1484.87 7.38785 1488.42 4.46722 1491.85C-0.61214 1498.07 -1.12008 1499.98 1.80056 1502.52C3.19738 1503.66 3.8323 1506.71 3.8323 1511.66C3.8323 1515.85 4.46722 1522.96 5.22912 1527.41C6.11801 1533.37 6.11801 1537.31 4.97516 1541.5C2.81643 1549.37 3.32436 1559.66 6.11801 1563.72C8.65769 1567.41 9.03864 1574.01 9.80055 1617.18C9.92753 1630.01 10.8164 1646.26 11.7053 1653.12C12.5942 1660.1 12.9751 1670.9 12.5942 1677.12C10.9434 1706.58 11.1974 1713.56 14.118 1719.79C17.5466 1727.15 19.0704 1742.77 17.1656 1750.64C15.1339 1759.15 13.6101 1812.23 15.0069 1828.61C16.1497 1843.21 20.7212 1858.58 24.0228 1859.47C26.5624 1860.23 27.8323 1863.79 27.8323 1871.02C27.8323 1875.34 28.7212 1877.12 33.0386 1881.06C40.7846 1888.17 46.245 1891.98 47.0069 1890.71C47.3878 1890.07 47.5148 1882.45 47.2608 1873.95C46.7529 1861.63 46.118 1857.56 44.2132 1854.9C37.61 1845.5 37.737 1843.09 44.9751 1837.37L49.8005 1833.44L49.6735 1806.39C49.5465 1777.56 47.7688 1754.07 45.3561 1749.5C44.4672 1747.98 43.8323 1742.64 43.8323 1737.82C43.8323 1732.74 42.8164 1726.01 41.5465 1722.45C39.3878 1716.23 39.3878 1715.47 41.8005 1704.29C43.9592 1694.14 44.2132 1687.28 43.9592 1655.79C43.8323 1635.72 43.1973 1615.53 42.4354 1611.22C41.6735 1606.77 40.5307 1588.99 39.7688 1571.6C38.3719 1541.12 38.4989 1539.6 41.2926 1528.93C44.4672 1516.87 44.7211 1514.2 45.61 1484.49C45.991 1473.56 47.0069 1461.75 47.8957 1458.45C49.0386 1454.01 49.1656 1444.87 48.4037 1422.52C47.8957 1406.01 47.2608 1383.53 47.0069 1372.49C46.7529 1361.56 46.4989 1350.14 46.3719 1347.22C46.245 1344.29 46.7529 1314.2 47.5148 1280.55C48.4037 1240.17 48.5307 1199.41 47.7688 1161.18C47.1338 1129.31 46.8799 1101.37 47.2608 1099.22C47.6418 1096.93 47.0069 1082.83 45.737 1067.85C44.4672 1052.87 43.0704 1034.45 42.6894 1027.22C42.1815 1019.85 41.1656 1012.61 40.2767 1011.22C38.3719 1007.66 36.7212 992.168 36.4672 972.486C36.2132 957.375 34.9434 941.628 31.7688 917.883C31.0069 912.041 30.245 884.359 29.991 856.549C29.6101 823.533 28.8481 802.581 27.8323 796.486C26.6894 790.518 26.1815 776.422 26.3085 757.629C26.4355 735.026 25.9275 726.518 24.5307 721.565C21.864 713.184 21.991 704.549 24.6577 696.549C27.1974 689.057 26.5624 670.899 23.6418 668.994C21.3561 667.597 20.2132 667.597 19.5783 668.994Z" fill="#FF0A1A"/>
<path d="M1933.99 1811.98C1932.85 1813.75 1931.83 1816.04 1931.83 1817.18C1931.83 1818.33 1930.31 1824.04 1928.53 1829.88C1926.62 1835.72 1925.23 1842.2 1925.23 1844.1C1925.23 1846.14 1924.08 1848.8 1922.69 1850.07C1921.29 1851.47 1918.37 1856.55 1916.08 1861.37C1910.88 1872.42 1898.56 1884.87 1887.89 1889.56C1867.96 1898.45 1852.72 1900.23 1821.23 1897.44C1809.8 1896.42 1801.8 1896.42 1796.08 1897.31C1788.47 1898.45 1787.2 1898.33 1783.26 1895.91C1779.07 1893.25 1778.31 1893.25 1769.67 1895.15C1764.59 1896.17 1756.72 1897.95 1752.15 1899.21C1745.42 1900.99 1742.62 1900.99 1736.91 1899.85C1732.97 1898.96 1725.35 1897.95 1719.77 1897.56C1710.62 1896.93 1708.34 1897.44 1693.1 1902.52C1682.69 1905.95 1672.02 1908.48 1664.53 1909.25C1637.99 1912.17 1632.15 1913.06 1625.16 1914.83C1621.1 1915.85 1616.27 1917.5 1614.5 1918.64C1611.96 1920.04 1605.48 1920.55 1588.47 1920.68C1570.69 1920.68 1564.59 1921.18 1559.89 1922.96C1556.72 1924.23 1547.45 1926.39 1539.45 1927.79C1519.13 1931.34 1516.59 1934.39 1526.75 1942.64L1532.47 1947.09L1575.13 1947.34C1598.62 1947.47 1634.05 1947.6 1653.86 1947.85C1677.23 1947.98 1691.45 1947.6 1694.5 1946.71C1701.74 1944.42 1714.31 1944.93 1721.93 1947.72C1730.31 1950.9 1754.56 1952.04 1776.53 1950.39C1784.53 1949.75 1801.04 1948.99 1813.23 1948.61C1847.13 1947.72 1850.43 1947.34 1859.2 1943.28C1863.51 1941.25 1867.96 1938.45 1869.1 1937.18C1870.24 1935.79 1879 1930.83 1888.53 1926.01C1912.53 1913.95 1920.02 1906.96 1935.39 1882.33C1937.67 1878.64 1940.85 1871.53 1942.37 1866.45C1943.89 1861.5 1947.32 1852.99 1949.86 1847.66C1953.8 1839.41 1954.43 1836.61 1954.43 1828.61C1954.43 1820.36 1953.93 1818.71 1950.75 1814.77C1945.8 1808.8 1937.29 1807.28 1933.99 1811.98Z" fill="#FF0A1A"/>
<path d="M655.895 1902.52C651.832 1903.91 642.562 1905.94 635.197 1907.09C625.419 1908.48 619.832 1910.14 614.498 1913.06C607.895 1916.61 606.498 1916.99 599.006 1916.23C594.435 1915.85 585.673 1916.23 579.578 1917.25C569.673 1918.64 565.355 1920.29 555.324 1926.14C553.8 1927.02 549.99 1927.79 547.07 1927.79C541.99 1927.79 540.975 1927.15 532.975 1918.52L524.34 1909.12L514.435 1909.25C508.975 1909.37 499.324 1909.75 492.975 1910.26C482.689 1911.15 481.038 1911.53 477.99 1914.83C473.8 1919.41 470.879 1919.53 468.975 1915.21C467.832 1912.68 466.435 1911.79 463.387 1911.79C461.102 1911.79 456.022 1911.28 451.959 1910.52C438.244 1908.23 398.371 1906.71 381.229 1907.85L364.467 1908.99L361.165 1905.06L357.864 1901.12H336.911C325.229 1901.12 314.308 1901.75 312.276 1902.64C304.657 1905.56 285.102 1907.21 257.8 1907.21C234.308 1907.21 229.356 1907.47 227.578 1909.25C226.054 1910.77 223.134 1911.15 215.642 1910.9C210.308 1910.64 204.34 1910.14 202.435 1909.75C197.229 1908.48 191.896 1911.15 191.896 1915.09C191.896 1919.79 194.435 1924.99 197.356 1925.88C198.753 1926.39 201.419 1928.68 203.197 1931.21C205.102 1933.63 208.403 1936.29 210.562 1937.06C212.721 1937.82 215.134 1939.85 216.022 1941.63C217.165 1944.29 218.816 1945.18 223.895 1945.82C227.451 1946.33 231.007 1946.33 231.895 1945.82C232.657 1945.31 235.959 1945.56 239.134 1946.45C245.229 1948.23 250.943 1947.47 262.245 1943.28C265.292 1942.14 273.927 1940.23 281.292 1939.21C288.657 1938.07 296.403 1936.29 298.562 1935.15C301.61 1933.63 303.641 1933.5 308.086 1934.52C311.26 1935.15 316.848 1935.79 320.53 1935.79C324.213 1935.91 329.546 1936.55 332.467 1937.18C335.387 1937.94 347.705 1938.83 359.895 1939.21C378.308 1939.85 382.752 1939.6 387.07 1937.82C389.864 1936.68 396.34 1935.28 401.292 1934.9C406.371 1934.52 410.562 1933.75 410.562 1933.25C410.562 1932.74 412.848 1931.21 415.768 1929.82C418.689 1928.55 422.498 1925.5 424.149 1922.96C427.197 1918.39 434.562 1914.83 437.356 1916.61C438.244 1917.12 440.657 1917.5 442.943 1917.5C445.102 1917.37 448.403 1918.52 450.181 1919.91C452.086 1921.31 454.244 1922.45 455.133 1922.45C457.038 1922.45 464.276 1930.2 471.133 1939.47C476.975 1947.34 476.848 1947.34 497.673 1948.36C514.181 1949.37 532.721 1946.45 540.975 1941.63C546.435 1938.45 547.578 1938.2 555.705 1939.21C560.53 1939.85 570.562 1940.36 577.8 1940.48C588.594 1940.61 592.53 1941.25 597.99 1943.66L604.847 1946.71L614.752 1944.04C626.689 1940.87 634.562 1939.21 637.228 1939.47C638.244 1939.6 645.609 1939.85 653.609 1939.98C667.959 1940.23 667.959 1940.23 674.181 1935.79C698.308 1918.77 698.308 1918.77 710.752 1917.75C720.784 1916.99 723.07 1917.25 728.022 1919.53C731.197 1921.06 735.133 1922.71 736.784 1923.09C738.435 1923.6 739.831 1924.61 739.831 1925.25C739.831 1927.41 750.752 1938.71 755.831 1941.75C766.625 1948.48 790.371 1950.01 802.943 1944.93C808.657 1942.64 813.101 1942.14 829.228 1941.75C869.609 1941.12 898.942 1939.85 903.641 1938.58C906.434 1937.82 918.625 1937.56 931.831 1938.07C944.657 1938.45 965.101 1938.96 977.165 1939.09C1008.02 1939.72 1037.23 1942.26 1050.56 1945.56C1060.97 1948.23 1064.78 1948.48 1099.2 1948.1C1119.64 1947.98 1138.05 1947.72 1139.83 1947.6C1144.28 1947.47 1172.34 1948.87 1185.8 1949.88C1191.64 1950.39 1202.18 1950.14 1209.16 1949.37C1224.4 1947.6 1289.42 1947.21 1324.21 1948.61C1343.39 1949.25 1350.62 1949.12 1354.56 1947.85C1358.75 1946.45 1360.15 1946.45 1361.8 1947.85C1364.59 1950.14 1408.28 1949.88 1417.42 1947.6C1421.74 1946.58 1424.78 1946.45 1426.81 1947.34C1428.47 1948.1 1443.32 1948.48 1461.23 1948.36C1489.29 1948.23 1493.35 1947.85 1498.56 1945.56C1501.86 1944.17 1505.29 1942.01 1506.31 1940.74C1508.72 1937.94 1509.99 1927.15 1508.08 1926.01C1507.32 1925.5 1498.94 1924.87 1489.55 1924.48C1480.15 1924.1 1468.08 1923.21 1462.75 1922.45C1446.62 1920.29 1413.48 1920.8 1405.1 1923.34C1401.16 1924.48 1395.2 1925.63 1391.89 1925.75C1388.59 1926.01 1380.97 1926.77 1375.13 1927.53C1350.88 1930.96 1343.01 1931.34 1312.53 1930.33C1294.88 1929.82 1278.75 1929.56 1276.47 1929.94C1273.93 1930.45 1270.62 1929.69 1267.2 1927.91C1262.75 1925.63 1259.45 1925.12 1245.86 1925.12C1234.18 1925.12 1228.97 1924.61 1226.56 1923.21C1218.43 1918.52 1206.37 1913.31 1196.97 1910.52C1188.47 1908.1 1185.04 1907.72 1176.91 1908.48C1163.58 1909.75 1163.07 1909.75 1096.53 1908.23C1047.89 1907.09 1036.09 1907.21 1027.96 1908.74C1020.34 1910.14 1015.51 1910.26 1007.89 1909.25C1002.31 1908.48 988.72 1907.6 977.546 1907.21C966.371 1906.83 954.053 1905.82 950.117 1905.06C933.228 1901.88 864.911 1899.72 817.8 1900.99C808.276 1901.25 769.546 1901.25 731.831 1900.74C667.07 1900.1 662.752 1900.23 655.895 1902.52Z" fill="#FF0A1A"/>
<path d="M142.117 1909.37C139.324 1910.01 135.768 1911.15 134.118 1912.04C132.594 1912.8 127.133 1913.94 122.181 1914.58C117.102 1915.09 112.276 1916.23 111.514 1916.99C110.752 1917.75 109.737 1921.69 109.483 1925.75C108.975 1931.6 109.356 1933.75 111.768 1937.06C113.292 1939.21 115.959 1941.37 117.483 1941.88C119.133 1942.39 121.419 1943.66 122.562 1944.55C123.578 1945.44 130.943 1946.83 138.816 1947.6L153.165 1948.99L164.213 1943.28C179.07 1935.66 181.863 1933.75 183.641 1929.82C186.816 1922.71 183.641 1913.82 177.419 1912.42C175.514 1912.04 170.435 1910.9 166.371 1909.75C158.244 1907.6 149.864 1907.47 142.117 1909.37Z" fill="#FF0A1A"/>
</g>
<defs>
<clipPath id="clip0_11_197">
<rect width="1957.17" height="1951.16" fill="white"/>
</clipPath>
</defs>
</svg>
